<?xml version="1.0" encoding="UTF-8"?>
<svg width="48px" height="44px" viewBox="0 0 48 44" version="1.1" xmlns="http://www.w3.org/2000/svg" xmlns:xlink="http://www.w3.org/1999/xlink">
    <!-- Generator: Sketch 57 (83077) - https://sketch.com -->
    <title>eco_system_mall</title>
    <desc>Created with Sketch.</desc>
    <g id="Page-1" stroke="none" stroke-width="1" fill="none" fill-rule="evenodd">
        <g id="eco_system_mall">
            <rect id="Rectangle-Copy-10" fill="#FFFFFF" x="2" y="0" width="44" height="42"></rect>
            <g id="004-mall" fill="#000000" fill-rule="nonzero">
                <path d="M7.78125,19.6875 C7.78125,20.2053223 7.36157231,20.625 6.84375,20.625 C6.32592769,20.625 5.90625,20.2053223 5.90625,19.6875 C5.90625,19.1696777 6.32592769,18.75 6.84375,18.75 C7.36157231,18.75 7.78125,19.1696777 7.78125,19.6875 Z" id="Path"></path>
                <path d="M47.0625,41.25 L46.125,41.25 L46.125,10.3125 C46.125,8.76159666 44.8634033,7.5 43.3125,7.5 L42.09375,7.5 L42.09375,4.6875 C42.09375,4.3150635 41.8732911,3.97814944 41.5323487,3.82873537 C41.1910401,3.67932131 40.7940674,3.74597166 40.5205078,3.99865725 L35.6239013,8.51806641 C34.0649414,3.55297856 29.4158935,0 24,0 C18.6035156,0 13.9416504,3.53100581 12.375,8.51733394 L7.47949219,3.99865725 C7.20593259,3.74597166 6.80895994,3.67932131 6.46765134,3.82873537 C6.12670894,3.97814944 5.90625,4.3150635 5.90625,4.6875 L5.90625,7.5 L4.6875,7.5 C3.13659666,7.5 1.875,8.76159666 1.875,10.3125 L1.875,41.25 L0.9375,41.25 C0.419677688,41.25 0,41.6696777 0,42.1875 C0,42.7053223 0.419677688,43.125 0.9375,43.125 L47.0625,43.125 C47.5803223,43.125 48,42.7053223 48,42.1875 C48,41.6696777 47.5803223,41.25 47.0625,41.25 Z M43.3125,9.375 C43.8295898,9.375 44.25,9.79541016 44.25,10.3125 L44.25,41.25 L42.09375,41.25 L42.09375,9.375 L43.3125,9.375 Z M40.21875,41.25 L36.1875,41.25 L36.1875,12.1875 C36.1875,11.6704102 36.1541748,11.1522217 36.0893555,10.6402588 L40.21875,6.82873538 L40.21875,41.25 Z M24.9375,26.25 L24.9375,20.625 L28.6875,20.625 L28.6875,26.25 L24.9375,26.25 Z M19.3125,26.25 L19.3125,20.625 L23.0625,20.625 L23.0625,26.25 L19.3125,26.25 Z M13.6875,26.25 L13.6875,20.625 L17.4375,20.625 L17.4375,26.25 L13.6875,26.25 Z M19.3125,3.00146484 C20.4785156,2.40527344 21.7529297,2.03759766 23.0625,1.91857913 L23.0625,9.375 L19.3125,9.375 L19.3125,3.00146484 Z M28.6875,9.375 L24.9375,9.375 L24.9375,1.91857913 C26.2467041,2.03759766 27.5211182,2.40527344 28.6875,3.00146484 L28.6875,9.375 Z M34.2689209,11.25 C34.2971192,11.5612793 34.3125,11.8747558 34.3125,12.1875 L34.3125,18.75 L30.5625,18.75 L30.5625,11.25 L34.2689209,11.25 Z M28.6875,18.75 L24.9375,18.75 L24.9375,11.25 L28.6875,11.25 L28.6875,18.75 Z M23.0625,11.25 L23.0625,18.75 L19.3125,18.75 L19.3125,11.25 L23.0625,11.25 Z M17.4375,18.75 L13.6875,18.75 L13.6875,12.1875 C13.6875,11.8747558 13.7028808,11.5612793 13.7310791,11.25 L17.4375,11.25 L17.4375,18.75 Z M30.5625,20.625 L34.3125,20.625 L34.3125,26.25 L30.5625,26.25 L30.5625,20.625 Z M33.9235839,9.375 L30.5625,9.375 L30.5625,4.23303225 C32.1687011,5.56018069 33.3497315,7.33630369 33.9235839,9.375 Z M17.4375,4.23010256 L17.4375,9.375 L14.0756836,9.375 C14.6455078,7.35278325 15.817749,5.56311038 17.4375,4.23010256 Z M3.75,10.3125 C3.75,9.79541016 4.17041016,9.375 4.6875,9.375 L5.90625,9.375 L5.90625,15.9375 C5.90625,16.4553223 6.32592769,16.875 6.84375,16.875 C7.36157231,16.875 7.78125,16.4553223 7.78125,15.9375 L7.78125,6.82873538 L11.9106445,10.6402588 C11.8458252,11.1522217 11.8125,11.6704102 11.8125,12.1875 L11.8125,41.25 L7.78125,41.25 L7.78125,23.4375 C7.78125,22.9196777 7.36157231,22.5 6.84375,22.5 C6.32592769,22.5 5.90625,22.9196777 5.90625,23.4375 L5.90625,41.25 L3.75,41.25 L3.75,10.3125 Z M13.6875,28.125 L34.3125,28.125 L34.3125,41.25 L30.5625,41.25 L30.5625,36.5625 C30.5625,32.9439697 27.6185303,30 24,30 C20.3814697,30 17.4375,32.9439697 17.4375,36.5625 L17.4375,41.25 L13.6875,41.25 L13.6875,28.125 Z M23.0625,41.25 L19.3125,41.25 L19.3125,36.5625 C19.3125,34.2989502 20.925293,32.4049072 23.0625,31.9694824 L23.0625,41.25 Z M24.9375,31.9694824 C27.074707,32.4049073 28.6875,34.2985839 28.6875,36.5625 L28.6875,41.25 L24.9375,41.25 L24.9375,31.9694824 Z" id="Shape"></path>
            </g>
        </g>
    </g>
</svg>