<?xml version="1.0" encoding="UTF-8"?>
<svg width="54px" height="47px" viewBox="0 0 54 47" version="1.1" xmlns="http://www.w3.org/2000/svg" xmlns:xlink="http://www.w3.org/1999/xlink">
    <!-- Generator: Sketch 57 (83077) - https://sketch.com -->
    <title>eco_system_guest</title>
    <desc>Created with Sketch.</desc>
    <g id="Page-1" stroke="none" stroke-width="1" fill="none" fill-rule="evenodd">
        <g id="eco_system_guest">
            <path d="M26.7167467,0.816536858 L48.0591431,20.1286698 L45.4187009,23.4083155 L43.0494224,22.638889 L43.0494224,33.8727722 C46.8893709,34.1415376 49.4659901,35.0031279 50.7792798,36.4575431 C52.0925696,37.9119584 52.7316824,40.9282948 52.6966184,45.5065524 L1.47093622,45.5065524 C0.21828782,42.1658528 0.597180371,39.3289493 2.60761387,36.995842 C4.61804737,34.6627346 6.52549986,33.6217114 8.32997134,33.8727722 L8.32997134,22.638889 C7.87088477,23.2879453 7.29460707,23.4232896 6.60113825,23.0449219 C5.90766942,22.6665541 4.95037847,21.6944701 3.72926538,20.1286698 L26.7167467,0.816536858 Z" id="Rectangle-Copy-9" fill="#FFFFFF"></path>
            <g id="003-home" fill="#000000" fill-rule="nonzero">
                <path d="M44.879013,33.0817565 C44.4843292,33.0817565 44.0904694,33.1097718 43.7003174,33.1600342 L43.7003174,29.72818 C43.7003174,29.2914733 43.3464203,28.9371644 42.9093018,28.9371644 C42.4725952,28.9371644 42.1182861,29.2914733 42.1182861,29.72818 L42.1182861,37.0866852 C42.0634918,37.0850373 42.0091095,37.0825653 41.9539032,37.0825653 C41.3540497,37.0825653 40.7739715,37.1699066 40.2247925,37.3297577 L40.2247925,29.8085174 C40.2247925,28.7748413 39.3839264,27.9339752 38.3502503,27.9339752 L36.4003143,27.9339752 C35.3666382,27.9339752 34.5257721,28.7748413 34.5257721,29.8085174 L34.5257721,38.229126 L32.1008148,38.229126 L32.1008148,29.8085174 C32.1008148,28.7748413 31.2599487,27.9339752 30.2266846,27.9339752 L21.8040161,27.9339752 C20.77034,27.9339752 19.9294739,28.7748413 19.9294739,29.8085174 L19.9294739,38.229126 L17.5049286,38.229126 L17.5049286,29.8085174 C17.5049286,28.7748413 16.6636505,27.9339752 15.6303864,27.9339752 L13.6804505,27.9339752 C12.6467743,27.9339752 11.8059082,28.7748413 11.8059082,29.8085174 L11.8059082,38.229126 L9.91200259,38.229126 L9.91200259,22.0277252 L26.0149383,7.56985479 L42.1182861,22.0277252 L42.1182861,26.2835541 C42.1182861,26.7202606 42.4725952,27.0745697 42.9093018,27.0745697 C43.3464203,27.0745697 43.7003174,26.7202606 43.7003174,26.2835541 L43.7003174,23.4482575 L43.9915924,23.7094574 C44.7607728,24.3999481 45.9481201,24.3360901 46.6386108,23.5669098 L48.4480591,21.5514679 C49.1385498,20.7822876 49.0746917,19.5949401 48.3055114,18.9044495 L39.658722,11.1413727 C39.3336639,10.8492737 38.8335114,10.8764648 38.5414124,11.2011108 C38.2497253,11.5265808 38.2765045,12.0263214 38.6015625,12.3184204 L47.248764,20.0819092 C47.3686523,20.1894378 47.37854,20.3748322 47.2710114,20.4947204 L45.4611511,22.5101624 C45.3536224,22.6300506 45.1682282,22.6399383 45.0483398,22.5324097 L26.5435181,5.91819761 C26.2427673,5.648346 25.7875213,5.648346 25.4867707,5.91819761 L6.98194888,22.5319977 C6.90325928,22.6024476 6.81550601,22.6090394 6.77059931,22.6065674 C6.72569272,22.6040954 6.63917544,22.5884399 6.56872559,22.5097503 L4.75927734,20.4947204 C4.65174868,20.3744202 4.66163638,20.1894378 4.78152471,20.0814972 L24.9149323,2.00514224 C25.5419769,1.44236753 26.4883118,1.44236753 27.1153564,2.00514224 L36.0373535,10.0154114 C36.3624115,10.3075104 36.8625641,10.2803192 37.1542511,9.95567319 C37.4463501,9.63020327 37.4191589,9.13046259 37.094513,8.83836362 L28.1721039,0.82809443 C26.9423218,-0.276031547 25.0879669,-0.276031547 23.8581849,0.82809443 L3.7247772,18.9044495 C2.95559698,19.5949401 2.89173892,20.7822876 3.58222964,21.5514679 L5.39167788,23.5669098 C5.72621157,23.9393463 6.18557745,24.1593475 6.68572998,24.1861267 C6.72033691,24.1881867 6.75453189,24.1890106 6.78872686,24.1890106 C7.25138852,24.1890106 7.69180303,24.0205078 8.03869629,23.7094574 L8.32997134,23.4478454 L8.32997134,33.1159515 C6.62187192,33.2613831 5.01017759,33.8773041 3.62837222,34.9212799 C3.27983091,35.1845397 3.21061704,35.6805726 3.47428891,36.0291138 C3.6296081,36.2351074 3.86650083,36.3434601 4.10586553,36.3434601 C4.27189634,36.3434601 4.4395752,36.2911377 4.58212275,36.183609 C5.68624873,35.3493347 6.96917725,34.8462982 8.32997134,34.7058105 L8.32997134,44.4748535 L1.93057256,44.4748535 C1.69903564,43.7431641 1.58203125,42.9809876 1.58203125,42.2023315 C1.58203125,40.9189911 1.91162109,39.6504821 2.53495786,38.5339966 C2.74795538,38.1524964 2.61158755,37.6708832 2.23008725,37.4574738 C1.84858706,37.2448883 1.36656186,37.3812562 1.15397641,37.7627563 C0.398803711,39.1144867 0,40.6495514 0,42.2023315 C0,43.3604279 0.214233398,44.4892731 0.63693232,45.5571442 C0.756408691,45.8591309 1.0480957,46.0572967 1.3727417,46.0572967 L52.6272583,46.0572967 C52.9519043,46.0572967 53.2435913,45.8591309 53.3630677,45.5571442 C53.7857666,44.4892731 54,43.3604279 54,42.2023315 C54,37.1732025 49.9081421,33.0817565 44.879013,33.0817565 L44.879013,33.0817565 Z M36.1078034,29.8085174 C36.1078034,29.6474304 36.2388153,29.5164185 36.4003143,29.5164185 L38.3502503,29.5164185 C38.5113373,29.5164185 38.6427612,29.6474304 38.6427612,29.8085174 L38.6427612,38.0453796 C38.5500641,38.1042938 38.4590149,38.16568 38.3700257,38.229126 L36.1078034,38.229126 L36.1078034,29.8085174 Z M36.8217773,39.8111572 C36.1506501,40.8011627 35.7580261,41.9946899 35.7580261,43.2784424 C35.7580261,43.6834259 35.7975769,44.0834655 35.8746185,44.4752655 L32.1008148,44.4752655 L32.1008148,39.8111572 L36.8217773,39.8111572 Z M21.8036042,29.5164185 L30.2262726,29.5164185 C30.3873597,29.5164185 30.5187835,29.6474304 30.5187835,29.8085174 L30.5187835,44.4752655 L21.5115052,44.4752655 L21.5115052,29.8085174 C21.5115052,29.6474304 21.6425171,29.5164185 21.8036042,29.5164185 L21.8036042,29.5164185 Z M13.3875275,29.8085174 C13.3875275,29.6474304 13.5189515,29.5164185 13.6800384,29.5164185 L15.6299743,29.5164185 C15.7910614,29.5164185 15.9224854,29.6474304 15.9224854,29.8085174 L15.9224854,38.229126 L13.3875275,38.229126 L13.3875275,29.8085174 Z M9.91200259,44.4752655 L9.91200259,39.8111572 L19.9294739,39.8111572 L19.9294739,44.4752655 L9.91200259,44.4752655 Z M42.9093018,44.4752655 L37.4966126,44.4752655 C37.3927917,44.0871735 37.3404694,43.6863099 37.3404694,43.2784424 C37.3404694,40.7344208 39.4098815,38.6645965 41.9539032,38.6645965 C44.4979248,38.6645965 46.567749,40.7344208 46.567749,43.2784424 C46.567749,43.6867218 46.5154266,44.0871735 46.4116058,44.4752655 L42.9093018,44.4752655 Z M52.0694274,44.4752655 L48.0335999,44.4752655 C48.1102295,44.0834655 48.1497803,43.6834259 48.1497803,43.2784424 C48.1497803,40.468277 46.2686462,38.0906982 43.7003174,37.3347015 L43.7003174,34.7560729 C44.0884095,34.6950989 44.4835052,34.6637878 44.879013,34.6637878 C49.035965,34.6637878 52.4179687,38.0453796 52.4179687,42.2023315 C52.4179687,42.9809876 52.3009644,43.7431641 52.0694274,44.4752655 Z" id="Shape"></path>
                <path d="M28.7237549,38.68396 C29.1608734,38.68396 29.5147705,38.3296509 29.5147705,37.8929443 L29.5147705,36.995636 C29.5147705,36.5589294 29.1608734,36.2046204 28.7237549,36.2046204 C28.2866364,36.2046204 27.9327393,36.5589294 27.9327393,36.995636 L27.9327393,37.8929443 C27.9327393,38.3296509 28.2866364,38.68396 28.7237549,38.68396 Z" id="Path"></path>
                <path d="M20.8951722,20.1284637 C20.8951722,22.9518128 23.1920013,25.2486419 26.0149383,25.2486419 C28.8382874,25.2486419 31.1351166,22.9518128 31.1351166,20.1284637 C31.1351166,17.3055267 28.8382874,15.0086976 26.0149383,15.0086976 C23.1920013,15.0086976 20.8951722,17.3055267 20.8951722,20.1284637 L20.8951722,20.1284637 Z M29.5530853,20.1284637 C29.5530853,22.0796356 27.9661102,23.6666107 26.0149383,23.6666107 C24.0641784,23.6666107 22.4772034,22.0796356 22.4772034,20.1284637 C22.4772034,18.1777038 24.0641784,16.5907288 26.0149383,16.5907288 C27.9661102,16.5907288 29.5530853,18.1777038 29.5530853,20.1284637 Z" id="Shape"></path>
            </g>
        </g>
    </g>
</svg>