<?xml version="1.0" encoding="UTF-8"?>
<svg width="177px" height="178px" viewBox="0 0 177 178" version="1.1" xmlns="http://www.w3.org/2000/svg" xmlns:xlink="http://www.w3.org/1999/xlink">
    <!-- Generator: Sketch 56.2 (81672) - https://sketch.com -->
    <title>eco_system</title>
    <desc>Created with Sketch.</desc>
    <g id="Page-1" stroke="none" stroke-width="1" fill="none" fill-rule="evenodd">
        <g id="go_website_2019_hover" transform="translate(-367.000000, -2656.000000)">
            <g id="eco_system" transform="translate(364.000000, 2656.000000)">
                <g id="Group-17" transform="translate(3.275156, 0.000000)" fill="#1A3F39" fill-rule="nonzero">
                    <path d="M120.787472,134.537116 C120.9143,134.260558 121.029599,133.972477 121.167958,133.695919 C121.94046,132.082665 123.693003,131.126236 125.387896,131.414317 C127.209618,131.713921 128.535555,133.13128 128.777683,135.032615 C128.985221,136.622823 127.993651,138.305217 126.414056,139.031181 C126.183459,139.13489 125.952861,139.215553 125.664614,139.319262 C125.664614,141.935038 125.664614,144.573861 125.664614,147.258777 C131.464147,147.258777 137.21756,147.258777 143.109332,147.258777 C143.109332,146.325394 143.166982,145.392011 143.074743,144.481675 C143.051683,144.239687 142.625077,143.986176 142.3253,143.836373 C140.884064,143.144979 139.880964,141.612387 139.927083,140.102843 C139.984733,138.466542 141.033953,136.991567 142.521308,136.426928 C144.539038,135.666394 146.821956,136.657393 147.640578,138.639391 C148.44767,140.598342 147.571398,142.856898 145.645907,143.767234 C145.36919,143.89399 145.069413,144.009222 144.781166,144.124455 C144.781166,145.150023 144.781166,146.175592 144.781166,147.247254 C151.387791,147.247254 157.959826,147.247254 164.68175,147.247254 C164.68175,145.726185 164.70481,144.216641 164.65869,142.707096 C164.65869,142.522724 164.312794,142.315305 164.093726,142.18855 C162.733199,141.439539 162.052936,139.999133 162.410363,138.581774 C162.767789,137.141369 164.082196,136.15037 165.581081,136.173416 C167.045377,136.196463 168.267545,137.164415 168.636501,138.604821 C168.993928,139.999133 168.279075,141.462585 166.918548,142.200073 C166.664891,142.338352 166.342054,142.649479 166.342054,142.891467 C166.284404,144.32035 166.318994,145.749232 166.318994,147.30487 C166.860899,147.30487 167.356684,147.201161 167.76023,147.33944 C168.129186,147.466195 168.394374,147.869509 168.705681,148.146067 C168.382844,148.411101 168.083067,148.699182 167.73717,148.918124 C167.598812,148.998787 167.368214,148.929647 167.183736,148.929647 C152.206413,148.929647 137.24062,148.929647 122.263297,148.918124 C121.767512,148.918124 121.271727,148.687659 120.775942,148.560903 C120.775942,148.307392 120.775942,148.065404 120.775942,147.811893 C121.652213,146.820894 122.908971,147.592951 123.95819,147.166591 C123.95819,144.67757 123.95819,142.200073 123.946661,139.722576 C123.946661,139.549727 123.808302,139.273169 123.681473,139.227076 C122.147998,138.766146 121.294787,137.648392 120.775942,136.219509 C120.787472,135.666394 120.787472,135.101755 120.787472,134.537116 Z M143.939484,137.809717 C142.682726,137.82124 141.541268,138.962041 141.564327,140.206552 C141.587387,141.393446 142.717316,142.534247 143.904894,142.557293 C145.161652,142.58034 146.280051,141.474109 146.291581,140.183505 C146.303111,138.881379 145.242361,137.798194 143.939484,137.809717 Z M127.163499,135.412882 C127.186559,134.145326 126.07969,133.027571 124.811402,133.016048 C123.543115,133.004525 122.482365,134.030093 122.447775,135.286127 C122.413186,136.588253 123.450875,137.706008 124.730693,137.729054 C125.99898,137.763624 127.140439,136.680439 127.163499,135.412882 Z M167.056907,139.469064 C167.103026,138.593298 166.503472,137.901903 165.650261,137.832764 C164.773989,137.775147 164.059136,138.374356 164.001487,139.215553 C163.932308,140.148936 164.554921,140.863377 165.454253,140.90947 C166.318994,140.955563 167.010787,140.333307 167.056907,139.469064 Z" id="Shape"></path>
                    <path d="M139.512008,101.05057 C139.673426,101.350174 139.996263,101.661302 139.950143,101.926337 C139.788725,102.928859 140.457458,103.205417 141.149251,103.528067 C142.106232,103.977474 143.040153,104.484497 143.985604,104.945426 C144.527508,105.198938 144.758106,105.567682 144.758106,106.189937 C144.735046,108.36783 144.746576,110.557246 144.746576,112.735139 C144.746576,113.288255 144.642807,113.772231 143.985604,113.795277 C143.259221,113.818324 143.120862,113.288255 143.120862,112.723616 C143.109332,110.85685 143.086272,108.978562 143.132392,107.111796 C143.143922,106.524111 142.947914,106.212983 142.417539,105.982518 C141.541268,105.590728 140.711116,105.083705 139.811785,104.726485 C139.442828,104.576683 138.912453,104.553636 138.543497,104.703438 C137.598046,105.095229 136.710245,105.636821 135.776324,106.051658 C135.292069,106.270599 135.16524,106.558681 135.17677,107.05418 C135.19983,108.897899 135.16524,110.730095 135.19983,112.573814 C135.21136,113.253685 134.992292,113.783754 134.346618,113.956603 C132.236649,114.498195 131.671685,115.880985 131.982992,117.897552 C132.12135,118.842458 132.006051,119.821934 132.006051,120.789886 C132.006051,121.354525 131.798513,121.815455 131.1759,121.803932 C130.541756,121.803932 130.357278,121.331479 130.357278,120.778363 C130.357278,118.842458 130.322688,116.918076 130.391867,114.982172 C130.403397,114.578858 130.830003,114.187068 131.072131,113.795277 C131.11825,113.726138 131.222019,113.691568 131.314258,113.668522 C133.239749,113.184546 133.862363,111.963082 133.574116,110.0387 C133.412698,108.909422 133.597176,107.734051 133.527996,106.581727 C133.470347,105.659868 133.850833,105.152845 134.669455,104.795624 C135.672555,104.357741 136.606476,103.804625 137.598046,103.355219 C138.139951,103.113231 138.428198,102.82515 138.393609,102.179848 C138.370549,101.822627 138.624206,101.453884 138.762565,101.08514 C139.016222,101.05057 139.25835,101.05057 139.512008,101.05057 Z" id="Path"></path>
                    <path d="M144.746576,117.32139 C144.746576,117.770797 144.746576,118.17411 144.746576,118.5659 C144.746576,123.371093 144.746576,128.164762 144.746576,132.969955 C144.746576,133.223466 144.827285,133.511547 144.723516,133.707442 C144.562098,134.01857 144.227731,134.514069 144.043253,134.491023 C143.708886,134.433407 143.386049,134.076186 143.155452,133.776582 C143.028623,133.615256 143.109332,133.292606 143.109332,133.050617 C143.109332,127.692309 143.109332,122.322478 143.109332,116.964169 C143.109332,115.489194 143.409109,115.258729 144.850345,115.61595 C148.678267,116.572379 152.50619,117.540332 156.345642,118.462191 C157.233443,118.66961 157.54475,119.130539 157.54475,120.029352 C157.521691,128.130192 157.53322,136.242556 157.53322,144.343396 C157.53322,144.619954 157.57934,144.954128 157.452511,145.161546 C157.291093,145.415058 156.968256,145.714662 156.714599,145.703139 C156.460941,145.703139 156.115044,145.392011 155.999746,145.1385 C155.861387,144.815849 155.919036,144.401012 155.919036,144.032269 C155.919036,136.369312 155.907506,128.694831 155.942096,121.031874 C155.942096,120.248294 155.688439,119.960213 154.962056,119.787364 C151.756747,119.02683 148.562969,118.20868 145.35766,117.413576 C145.196242,117.367483 145.011764,117.35596 144.746576,117.32139 Z" id="Path"></path>
                    <path d="M159.135875,109.278166 C156.56471,109.911944 154.062725,110.522676 151.572269,111.179501 C151.376261,111.225594 151.168723,111.617384 151.157193,111.859373 C151.111074,112.723616 151.214843,113.610906 151.099544,114.475149 C151.053424,114.820846 150.603759,115.108927 150.338571,115.431578 C150.073384,115.131974 149.600658,114.855416 149.577599,114.544288 C149.48536,113.299778 149.519949,112.055268 149.543009,110.810757 C149.554539,110.061747 150.107973,109.842805 150.707528,109.693003 C153.244103,109.059224 155.780678,108.436969 158.305723,107.803191 C158.57091,107.734051 158.836098,107.641865 159.112815,107.561203 C159.135875,107.203982 159.066695,106.858285 159.193524,106.604774 C159.331883,106.316692 159.677779,105.901856 159.885317,105.924902 C160.185094,105.959472 160.519461,106.293646 160.692409,106.59325 C160.830768,106.835238 160.761589,107.203982 160.761589,107.51511 C160.761589,112.066791 160.773119,116.618472 160.750059,121.170153 C160.750059,121.838501 160.946067,122.172676 161.580211,122.380094 C163.113686,122.89864 164.601041,123.520895 166.134516,124.050964 C166.860899,124.304476 167.183736,124.730836 167.183736,125.49137 C167.160676,128.107146 167.183736,130.722922 167.172206,133.350222 C167.172206,133.926384 167.126086,134.548639 166.330524,134.548639 C165.523432,134.537116 165.546492,133.914861 165.546492,133.338699 C165.546492,130.99948 165.534962,128.660262 165.558022,126.321043 C165.569551,125.767928 165.396603,125.502893 164.854698,125.318521 C163.275104,124.765405 161.718569,124.10858 160.138975,123.566988 C159.389532,123.313477 159.135875,122.875593 159.147405,122.115059 C159.170464,118.220203 159.158934,114.325347 159.158934,110.43049 C159.135875,110.061747 159.135875,109.727573 159.135875,109.278166 Z" id="Path"></path>
                    <path d="M133.539526,125.041963 C130.853063,125.041963 128.281898,125.041963 125.618494,125.041963 C125.618494,126.205811 125.606964,127.323565 125.618494,128.429797 C125.618494,129.052052 125.583904,129.743447 124.799872,129.766493 C124.00431,129.78954 123.95819,129.121191 123.96972,128.487413 C123.98125,127.150717 123.99278,125.802497 123.96972,124.465801 C123.95819,123.705267 124.338677,123.371093 125.042,123.371093 C128.06283,123.35957 131.09519,123.35957 134.116021,123.371093 C134.830874,123.371093 135.1883,123.739837 135.1883,124.477324 C135.17677,131.206899 135.1883,137.936473 135.1883,144.666047 C135.1883,145.265256 135.015352,145.772278 134.323559,145.726185 C133.631765,145.691616 133.539526,145.1385 133.539526,144.562338 C133.539526,138.455019 133.539526,132.3477 133.539526,126.240381 C133.539526,125.88316 133.539526,125.502893 133.539526,125.041963 Z" id="Path"></path>
                    <path d="M127.163499,143.386967 C127.163499,142.856898 127.05973,142.303782 127.198089,141.808283 C127.290328,141.474109 127.716934,141.23212 127.993651,140.955563 C128.258838,141.220597 128.731564,141.462585 128.754623,141.750666 C128.846862,142.799282 128.858392,143.870943 128.754623,144.919558 C128.731564,145.219163 128.235778,145.472674 127.947531,145.760755 C127.682344,145.472674 127.290328,145.219163 127.186559,144.884989 C127.07126,144.412536 127.163499,143.882466 127.163499,143.386967 Z" id="Path"></path>
                    <path d="M138.370549,143.340874 C138.370549,143.870943 138.462788,144.424059 138.335959,144.919558 C138.25525,145.230686 137.828644,145.726185 137.632636,145.691616 C137.298269,145.633999 136.802484,145.242209 136.779424,144.965651 C136.675655,143.882466 136.687185,142.787758 136.779424,141.704573 C136.802484,141.439539 137.309799,141.013179 137.574987,141.013179 C137.840174,141.013179 138.24372,141.451062 138.324429,141.76219 C138.462788,142.257689 138.370549,142.810805 138.370549,143.340874 Z" id="Path"></path>
                    <path d="M130.357278,143.317828 C130.357278,142.822328 130.253509,142.292259 130.391867,141.831329 C130.495636,141.485632 130.899182,141.243644 131.1759,140.955563 C131.452617,141.243644 131.925342,141.508678 131.959932,141.831329 C132.063701,142.845375 132.063701,143.882466 131.959932,144.908035 C131.925342,145.219163 131.452617,145.484197 131.1759,145.760755 C130.899182,145.472674 130.484106,145.230686 130.391867,144.896512 C130.253509,144.401012 130.357278,143.847897 130.357278,143.317828 Z" id="Path"></path>
                    <path d="M151.134133,143.43306 C151.134133,143.928559 151.226372,144.447105 151.099544,144.919558 C151.018834,145.230686 150.672938,145.680092 150.40775,145.703139 C150.142563,145.726185 149.623718,145.311349 149.600658,145.057837 C149.508419,143.951606 149.508419,142.822328 149.589129,141.716097 C149.612188,141.451062 150.096444,141.220597 150.373161,140.967086 C150.626818,141.26669 151.018834,141.520202 151.099544,141.865899 C151.226372,142.349875 151.134133,142.902991 151.134133,143.43306 L151.134133,143.43306 Z" id="Path"></path>
                    <path d="M154.316382,143.36392 C154.316382,143.89399 154.408621,144.435582 154.281792,144.942605 C154.212613,145.253732 153.832127,145.691616 153.566939,145.703139 C153.301752,145.714662 152.805967,145.288302 152.782907,145.034791 C152.690668,143.928559 152.702198,142.799282 152.782907,141.69305 C152.805967,141.428016 153.313282,141.013179 153.566939,141.024702 C153.832127,141.047749 154.189553,141.485632 154.270263,141.796759 C154.408621,142.292259 154.316382,142.833851 154.316382,143.36392 Z" id="Path"></path>
                    <path d="M159.147405,143.36392 C159.147405,142.868421 159.055165,142.349875 159.181994,141.877422 C159.274233,141.531725 159.64319,141.26669 159.896847,140.955563 C160.173565,141.23212 160.66935,141.474109 160.703939,141.773713 C160.807708,142.822328 160.807708,143.882466 160.703939,144.931082 C160.68088,145.230686 160.185094,145.472674 159.896847,145.749232 C159.65472,145.449628 159.274233,145.184593 159.181994,144.838896 C159.055165,144.377966 159.147405,143.85942 159.147405,143.36392 Z" id="Path"></path>
                    <path d="M141.564327,109.082271 C141.564327,109.301212 141.645037,109.566247 141.541268,109.727573 C141.34526,110.050223 141.045483,110.315258 140.791825,110.603339 C140.503578,110.338304 140.088502,110.119363 139.973203,109.796712 C139.823315,109.381875 139.904024,108.874852 139.938613,108.413923 C139.973203,107.860807 140.226861,107.342261 140.814885,107.48054 C141.126192,107.549679 141.356789,108.079749 141.552798,108.436969 C141.645037,108.609818 141.564327,108.863329 141.564327,109.082271 Z" id="Path"></path>
                    <path d="M138.382079,123.463279 C138.382079,123.647651 138.451258,123.878116 138.370549,124.016395 C138.151481,124.362092 137.909353,124.880638 137.598046,124.949777 C136.998492,125.076533 136.756365,124.56951 136.744835,124.004871 C136.733305,123.601558 136.733305,123.198244 136.744835,122.794931 C136.767895,122.230292 137.010022,121.723269 137.621106,121.873071 C137.932413,121.953734 138.174541,122.460757 138.370549,122.817977 C138.451258,122.979303 138.382079,123.244337 138.382079,123.463279 Z" id="Path"></path>
                    <path d="M141.564327,123.463279 C141.506678,124.016395 141.817985,124.949777 140.780295,124.961301 C139.719546,124.961301 139.973203,124.016395 139.927083,123.336523 C139.915554,123.152151 139.857904,122.921686 139.938613,122.783407 C140.169211,122.43771 140.422869,121.930687 140.745705,121.873071 C141.356789,121.757839 141.575857,122.253338 141.564327,122.8295 C141.564327,123.013872 141.564327,123.198244 141.564327,123.463279 Z" id="Path"></path>
                    <path d="M141.564327,133.016048 C141.564327,133.20042 141.633507,133.430885 141.552798,133.569163 C141.34526,133.914861 141.114662,134.433407 140.803355,134.514069 C140.180741,134.675395 139.961673,134.145326 139.927083,133.603733 C139.904024,133.177373 139.811785,132.693397 139.961673,132.31313 C140.100032,131.955909 140.503578,131.702398 140.803355,131.39127 C141.057012,131.713921 141.34526,132.025049 141.552798,132.382269 C141.645037,132.532072 141.564327,132.797106 141.564327,133.016048 Z" id="Path"></path>
                    <path d="M131.994521,137.901903 C131.971462,138.408926 132.16747,139.330785 131.198959,139.342308 C130.13821,139.353832 130.380337,138.397403 130.345748,137.717531 C130.334218,137.49859 130.265038,137.233555 130.368807,137.072229 C130.576345,136.749579 130.876122,136.484544 131.14131,136.196463 C131.429557,136.496067 131.752394,136.772625 131.982992,137.106799 C132.086761,137.256601 131.994521,137.533159 131.994521,137.901903 Z" id="Path"></path>
                    <path d="M132.006051,133.304129 C132.006051,133.315652 132.086761,133.649826 131.959932,133.857245 C131.798513,134.133802 131.441087,134.514069 131.210489,134.491023 C130.910712,134.456453 130.495636,134.110756 130.403397,133.822675 C130.265038,133.373268 130.253509,132.808629 130.380337,132.359223 C130.484106,131.990479 130.841533,131.483456 131.15284,131.42584 C131.740864,131.310608 131.982992,131.829154 131.994521,132.382269 C132.006051,132.612734 132.006051,132.831676 132.006051,133.304129 Z" id="Path"></path>
                    <path d="M138.370549,137.844287 C138.370549,138.063228 138.451258,138.328263 138.359019,138.489588 C138.151481,138.812239 137.851704,139.088797 137.586516,139.376878 C137.309799,139.10032 136.894723,138.869855 136.779424,138.535681 C136.641066,138.120845 136.629536,137.579252 136.767895,137.164415 C136.883193,136.795672 137.22909,136.311695 137.551927,136.242556 C138.151481,136.1158 138.393609,136.622823 138.382079,137.198985 C138.382079,137.417927 138.382079,137.625345 138.370549,137.844287 L138.370549,137.844287 Z" id="Path"></path>
                    <path d="M138.382079,118.658086 C138.382079,118.842458 138.451258,119.072923 138.370549,119.211202 C138.151481,119.556899 137.920883,120.075445 137.598046,120.144585 C136.998492,120.282864 136.756365,119.775841 136.733305,119.211202 C136.721775,118.807888 136.721775,118.404575 136.733305,118.001261 C136.744835,117.436622 137.033082,116.941123 137.598046,117.056355 C137.909353,117.113972 138.151481,117.655564 138.359019,118.012785 C138.451258,118.17411 138.382079,118.439145 138.382079,118.658086 Z" id="Path"></path>
                    <path d="M135.1883,118.681133 C135.1883,118.900074 135.269009,119.165109 135.17677,119.314911 C134.969232,119.637562 134.657925,119.902597 134.392738,120.179154 C134.116021,119.902597 133.712475,119.672132 133.585646,119.337958 C133.447287,118.957691 133.447287,118.450668 133.574116,118.058878 C133.712475,117.655564 134.035311,117.102448 134.369678,117.044832 C134.923113,116.941123 135.19983,117.448146 135.19983,118.024308 C135.1883,118.24325 135.1883,118.462191 135.1883,118.681133 C135.1883,118.681133 135.1883,118.681133 135.1883,118.681133 Z" id="Path"></path>
                    <path d="M138.382079,133.039094 C138.312899,133.59221 138.624206,134.525593 137.586516,134.525593 C136.491177,134.525593 136.790954,133.569163 136.733305,132.912339 C136.721775,132.785583 136.733305,132.658827 136.733305,132.543595 C136.721775,131.955909 136.883193,131.42584 137.551927,131.414317 C138.23219,131.402794 138.405138,131.909816 138.382079,132.509025 C138.370549,132.647304 138.382079,132.808629 138.382079,133.039094 Z" id="Path"></path>
                    <path d="M141.575857,113.760708 C141.529738,114.463626 141.771865,115.385485 140.768765,115.385485 C139.800255,115.385485 139.915554,114.498195 139.927083,113.829847 C139.938613,113.184546 139.731075,112.285733 140.745705,112.274209 C141.806455,112.262686 141.495148,113.196069 141.575857,113.760708 Z" id="Path"></path>
                    <path d="M138.370549,113.898987 C138.370549,114.117928 138.451258,114.382963 138.359019,114.544288 C138.151481,114.866939 137.851704,115.131974 137.586516,115.431578 C137.309799,115.15502 136.894723,114.913032 136.779424,114.578858 C136.641066,114.164021 136.629536,113.622429 136.767895,113.207592 C136.883193,112.838848 137.24062,112.354872 137.551927,112.297256 C138.151481,112.182023 138.382079,112.677523 138.382079,113.253685 C138.370549,113.472627 138.382079,113.680045 138.370549,113.898987 L138.370549,113.898987 Z" id="Path"></path>
                    <path d="M147.928825,128.291518 C147.928825,128.533506 148.009534,128.83311 147.905765,129.017482 C147.744347,129.305563 147.44457,129.743447 147.237032,129.731923 C146.925725,129.708877 146.487589,129.386226 146.40688,129.098145 C146.256991,128.579599 146.245461,127.98039 146.37229,127.450321 C146.452999,127.12767 146.879605,126.885682 147.156322,126.597601 C147.42151,126.908729 147.732817,127.19681 147.928825,127.55403 C148.032594,127.749925 147.940355,128.04953 147.928825,128.291518 C147.940355,128.291518 147.940355,128.291518 147.928825,128.291518 Z" id="Path"></path>
                    <path d="M138.382079,128.256948 C138.382079,128.47589 138.462788,128.740924 138.359019,128.90225 C138.151481,129.236424 137.851704,129.501458 137.598046,129.801063 C137.309799,129.489935 136.906253,129.236424 136.767895,128.86768 C136.618006,128.487413 136.629536,127.98039 136.767895,127.5886 C136.894723,127.219856 137.22909,126.712834 137.540397,126.655217 C138.116891,126.551508 138.393609,127.023961 138.382079,127.611647 C138.370549,127.819065 138.382079,128.038007 138.382079,128.256948 Z" id="Path"></path>
                    <path d="M130.357278,128.176285 C130.357278,128.026483 130.357278,127.865158 130.357278,127.715356 C130.334218,127.104624 130.541756,126.609124 131.198959,126.620648 C131.867693,126.632171 132.029111,127.150717 132.006051,127.749925 C131.994521,128.118669 132.10982,128.545029 131.971462,128.856157 C131.810043,129.224901 131.441087,129.489935 131.15284,129.801063 C130.887652,129.478412 130.576345,129.178808 130.368807,128.821587 C130.276568,128.660262 130.357278,128.395227 130.357278,128.176285 Z" id="Path"></path>
                    <path d="M127.163499,128.130192 C127.163499,127.945821 127.09432,127.715356 127.175029,127.577077 C127.394097,127.231379 127.636224,126.70131 127.947531,126.643694 C128.535555,126.528462 128.789213,127.023961 128.800743,127.5886 C128.812273,127.991914 128.904512,128.429797 128.777683,128.787017 C128.639324,129.167284 128.316488,129.674307 128.005181,129.731923 C127.440216,129.835633 127.151969,129.36318 127.163499,128.775494 C127.163499,128.568076 127.163499,128.349134 127.163499,128.130192 Z" id="Path"></path>
                    <path d="M138.382079,109.093794 C138.382079,109.312736 138.462788,109.57777 138.359019,109.739096 C138.151481,110.061747 137.851704,110.326781 137.598046,110.603339 C137.309799,110.338304 136.894723,110.119363 136.779424,109.796712 C136.641066,109.381875 136.641066,108.840283 136.767895,108.425446 C136.883193,108.056702 137.22909,107.549679 137.551927,107.492063 C138.139951,107.376831 138.393609,107.883854 138.382079,108.448492 C138.382079,108.655911 138.382079,108.874852 138.382079,109.093794 Z" id="Path"></path>
                    <path d="M162.329653,128.210855 C162.398833,127.530984 162.122115,126.609124 163.171335,126.643694 C164.105256,126.666741 163.966897,127.519461 163.955367,128.141716 C163.943837,128.821587 164.151375,129.778016 163.102156,129.75497 C162.075996,129.731923 162.410363,128.787017 162.329653,128.210855 Z" id="Path"></path>
                    <path d="M151.145663,128.210855 C151.111074,128.879203 151.318612,129.743447 150.373161,129.75497 C149.381591,129.766493 149.519949,128.879203 149.531479,128.210855 C149.543009,127.565554 149.335471,126.643694 150.327041,126.632171 C151.43391,126.620648 151.053424,127.62317 151.145663,128.210855 Z" id="Path"></path>
                    <path d="M147.951885,132.993001 C147.859646,133.59221 148.217072,134.525593 147.144793,134.525593 C146.130163,134.525593 146.326171,133.62678 146.314641,132.981478 C146.303116,132.31313 146.176282,131.42584 147.144793,131.42584 C148.182482,131.414317 147.882705,132.336176 147.951885,132.993001 Z" id="Path"></path>
                    <path d="M151.134133,133.027571 C151.134133,133.246513 151.214843,133.511547 151.111074,133.661349 C150.915066,133.984 150.626818,134.249035 150.384691,134.548639 C150.096444,134.283605 149.669838,134.064663 149.566069,133.753535 C149.42771,133.304129 149.41618,132.73949 149.554539,132.301607 C149.669838,131.944386 150.096444,131.690875 150.384691,131.39127 C150.626818,131.725444 150.915066,132.036572 151.111074,132.393793 C151.214843,132.555118 151.134133,132.808629 151.134133,133.027571 Z" id="Path"></path>
                    <path d="M162.341183,132.889292 C162.398833,132.359223 162.099056,131.414317 163.113686,131.414317 C164.162905,131.42584 163.909248,132.370746 163.955367,133.050617 C163.966897,133.269559 163.966897,133.488501 163.932308,133.695919 C163.863128,134.214465 163.609471,134.663872 163.056036,134.502546 C162.756259,134.41036 162.537191,133.94943 162.352713,133.62678 C162.260474,133.465454 162.341183,133.20042 162.341183,132.889292 Z" id="Path"></path>
                    <path d="M147.951885,123.394139 C147.894235,124.074011 148.147893,124.938254 147.179382,124.961301 C146.187812,124.972824 146.303111,124.10858 146.314641,123.440232 C146.326171,122.794931 146.118633,121.884594 147.110203,121.861548 C148.251662,121.826978 147.836586,122.8295 147.951885,123.394139 Z" id="Path"></path>
                    <path d="M151.134133,137.85581 C151.076484,138.431972 151.353201,139.353832 150.327041,139.342308 C149.358531,139.319262 149.543009,138.420449 149.508419,137.763624 C149.508419,137.706008 149.508419,137.636868 149.508419,137.579252 C149.543009,136.96852 149.43924,136.207986 150.350101,136.219509 C151.284022,136.231033 151.099544,137.014613 151.134133,137.602299 C151.145663,137.671438 151.134133,137.729054 151.134133,137.85581 Z" id="Path"></path>
                    <path d="M141.564327,128.210855 C141.552798,128.879203 141.725746,129.778016 140.734176,129.75497 C139.788725,129.731923 139.938613,128.83311 139.915554,128.164762 C139.915554,128.038007 139.915554,127.922774 139.915554,127.796018 C139.915554,127.19681 140.030852,126.597601 140.768765,126.620648 C141.518208,126.643694 141.587387,127.242903 141.552798,127.842111 C141.564327,127.968867 141.564327,128.095623 141.564327,128.210855 Z" id="Path"></path>
                    <path d="M141.564327,118.66961 C141.564327,118.888551 141.645037,119.153586 141.541268,119.303388 C141.33373,119.626039 141.033953,119.891073 140.780295,120.179154 C140.503578,119.902597 140.076972,119.683655 139.973203,119.349481 C139.834844,118.934644 139.823315,118.404575 139.961673,117.978215 C140.076972,117.609471 140.434399,117.090925 140.745705,117.033309 C141.31067,116.941123 141.587387,117.425099 141.564327,118.001261 C141.564327,118.24325 141.564327,118.462191 141.564327,118.66961 Z" id="Path"></path>
                    <path d="M151.145663,123.405663 C151.064954,124.039441 151.376261,124.961301 150.338571,124.961301 C149.347001,124.949777 149.519949,124.062488 149.519949,123.405663 C149.519949,122.760361 149.347001,121.861548 150.350101,121.861548 C151.399321,121.850025 151.064954,122.783407 151.145663,123.405663 Z" id="Path"></path>
                    <path d="M157.54475,113.922033 C157.487101,114.475149 157.729229,115.397008 156.726128,115.385485 C155.734558,115.373962 155.976686,114.452102 155.930566,113.806801 C155.930566,113.749185 155.930566,113.680045 155.930566,113.622429 C155.965156,113.02322 155.826797,112.251163 156.749188,112.262686 C157.671579,112.274209 157.510161,113.046267 157.54475,113.645475 C157.54475,113.714615 157.54475,113.783754 157.54475,113.922033 Z" id="Path"></path>
                    <path d="M159.135875,128.107146 C159.205054,127.55403 158.893747,126.620648 159.942967,126.643694 C160.957597,126.666741 160.68088,127.577077 160.750059,128.210855 C160.761589,128.268471 160.750059,128.337611 160.750059,128.395227 C160.738529,129.017482 160.796178,129.778016 159.919907,129.766493 C159.032106,129.75497 159.147405,128.982913 159.135875,128.372181 C159.135875,128.303041 159.135875,128.245425 159.135875,128.107146 Z" id="Path"></path>
                    <path d="M154.327912,128.395227 C154.293322,128.890727 154.52392,129.801063 153.49776,129.766493 C152.575369,129.743447 152.748317,128.879203 152.725258,128.256948 C152.713728,128.01496 152.644549,127.703832 152.759847,127.530984 C152.978915,127.19681 153.301752,126.920252 153.589999,126.620648 C153.843657,126.920252 154.131904,127.185287 154.316382,127.519461 C154.408621,127.692309 154.327912,127.991914 154.327912,128.395227 Z" id="Path"></path>
                    <path d="M159.135875,137.752101 C159.135875,137.602299 159.135875,137.440973 159.135875,137.291171 C159.135875,136.715009 159.228114,136.196463 159.954497,136.207986 C160.62323,136.219509 160.726999,136.715009 160.738529,137.245078 C160.750059,137.648392 160.842298,138.086275 160.703939,138.431972 C160.554051,138.789193 160.185094,139.065751 159.908377,139.365355 C159.65472,139.042704 159.366472,138.7431 159.158934,138.385879 C159.066695,138.236077 159.147405,137.971042 159.135875,137.752101 L159.135875,137.752101 Z" id="Path"></path>
                    <path d="M154.339442,137.798194 C154.293322,138.466542 154.51239,139.330785 153.566939,139.342308 C152.575369,139.365355 152.713728,138.466542 152.725258,137.809717 C152.736788,137.175939 152.4716,136.254079 153.49776,136.231033 C154.639219,136.207986 154.235673,137.210508 154.339442,137.798194 Z" id="Path"></path>
                    <path d="M154.339442,113.806801 C154.270263,114.463626 154.54698,115.397008 153.53235,115.385485 C152.552309,115.385485 152.713728,114.475149 152.725258,113.818324 C152.736788,113.184546 152.49466,112.274209 153.53235,112.274209 C154.604629,112.285733 154.247203,113.219115 154.339442,113.806801 Z" id="Path"></path>
                    <path d="M160.750059,132.981478 C160.750059,133.142803 160.750059,133.292606 160.750059,133.453931 C160.726999,134.01857 160.64629,134.571686 159.908377,134.548639 C159.158934,134.525593 159.135875,133.960954 159.135875,133.407838 C159.135875,133.062141 159.043636,132.681874 159.158934,132.393793 C159.308823,132.025049 159.64319,131.725444 159.908377,131.402794 C160.185094,131.713921 160.496401,132.002002 160.726999,132.3477 C160.819238,132.485979 160.738529,132.762536 160.750059,132.981478 L160.750059,132.981478 Z" id="Path"></path>
                    <path d="M154.350972,132.981478 C154.258733,133.603733 154.581569,134.491023 153.578469,134.514069 C152.51772,134.537116 152.748317,133.615256 152.736788,132.981478 C152.725258,132.324653 152.552309,131.402794 153.55541,131.414317 C154.593099,131.42584 154.247203,132.382269 154.350972,132.981478 Z" id="Path"></path>
                    <path d="M154.350972,123.417186 C154.281792,124.050964 154.55851,124.938254 153.578469,124.949777 C152.552309,124.961301 152.736788,124.050964 152.748317,123.405663 C152.748317,122.760361 152.54078,121.838501 153.566939,121.850025 C154.616159,121.873071 154.247203,122.8295 154.350972,123.417186 Z" id="Path"></path>
                    <path d="M63.6222934,25.8037896 C66.0550995,23.9600706 68.4763757,22.1163517 70.9207117,20.2956792 C71.4164968,19.9269354 71.7278038,19.5466683 71.6125049,18.9128899 C71.3588474,17.4724845 72.016051,16.5851947 73.1805695,15.743998 C77.6311058,12.4944433 82.0124627,9.12965616 86.4168794,5.81096201 C87.5006888,4.99281172 87.6851669,4.99281172 88.7805062,5.82248525 C93.3117516,9.23336535 97.8314672,12.6788152 102.385772,16.0551255 C103.262044,16.7004272 103.734769,17.3918218 103.561821,18.4750067 C103.411932,19.4083894 103.803949,20.0075981 104.564921,20.5607138 C106.640301,22.0472122 108.646501,23.6374198 110.710351,25.1469647 C111.321435,25.5963712 111.575092,26.1033939 111.563937,26.8754513 C111.528973,29.9291108 111.552032,32.9827703 111.540502,36.0364299 C111.540502,37.177231 111.263785,37.4653121 110.099267,37.4653121 C95.0988841,37.4653121 80.0869716,37.4768353 65.0865891,37.4422656 C64.6023338,37.4422656 64.1065487,37.0504753 63.6222934,36.8430569 C63.6222934,33.1671422 63.6222934,29.4912275 63.6222934,25.8037896 Z M101.440322,35.3565585 C101.463382,35.1491401 101.497971,35.0339077 101.497971,34.907152 C101.497971,29.4566578 101.521031,23.9946404 101.474911,18.5441462 C101.474911,18.1754024 101.129015,17.7029494 100.806178,17.449438 C96.6438889,14.280546 92.4470101,11.1462238 88.2847211,7.96580856 C87.7082267,7.5279253 87.3853899,7.59706476 86.866545,8.00037829 C82.7273157,11.157747 78.5650266,14.280546 74.3912076,17.3918218 C73.8608328,17.7836121 73.6532949,18.1984488 73.6648247,18.866797 C73.6878845,24.0407333 73.6763546,29.2146697 73.6878845,34.3886061 C73.6878845,34.6882104 73.7224742,34.999338 73.7340041,35.3219888 C77.3313287,35.3219888 80.859474,35.3219888 84.4567987,35.3219888 C84.4567987,33.5128395 84.4567987,31.7728298 84.4567987,30.03282 C84.4567987,28.6385075 84.7450458,28.3619497 86.1632219,28.3504264 C87.0625531,28.3504264 87.9734141,28.3504264 88.8727453,28.3504264 C90.4869294,28.3504264 90.7175271,28.5808913 90.7175271,30.1710989 C90.7175271,31.876539 90.7175271,33.581979 90.7175271,35.333512 C94.3379116,35.3565585 97.854527,35.3565585 101.440322,35.3565585 Z M71.5548555,35.4141747 C71.5548555,31.0238189 71.5548555,26.7832653 71.5548555,22.369863 C70.7247036,22.9921182 70.0098507,23.5337106 69.2949977,24.0753031 C68.1074194,24.9741161 66.4586456,25.6539874 65.8590915,26.8524048 C65.2480075,28.0853918 65.6746133,29.8254016 65.6630834,31.3464698 C65.6515535,32.6716428 65.6630834,34.008339 65.6630834,35.4026515 C67.3003273,35.4026515 68.8222723,35.4026515 70.3442174,35.4026515 C70.7247036,35.4141747 71.09366,35.4141747 71.5548555,35.4141747 Z M109.511242,35.3565585 C109.511242,33.5935023 109.511242,31.8880622 109.511242,30.1826222 C109.511242,29.0648675 109.822549,27.7742643 109.372884,26.8754513 C108.923218,25.9766383 107.70105,25.446569 106.813249,24.7782209 C105.787089,23.9946404 104.760929,23.2341063 103.61947,22.3813863 C103.61947,26.817835 103.61947,31.0699119 103.61947,35.3680818 C105.568021,35.3565585 107.458923,35.3565585 109.511242,35.3565585 Z M86.5552381,35.3450353 C87.270091,35.3450353 87.9272946,35.3450353 88.6075579,35.3450353 C88.6075579,33.6856882 88.6075579,32.0954806 88.6075579,30.5167962 C87.881175,30.5167962 87.2124416,30.5167962 86.5552381,30.5167962 C86.5552381,32.1646201 86.5552381,33.7317812 86.5552381,35.3450353 Z" id="Shape"></path>
                    <path d="M63.6222934,17.7605656 C70.2865679,12.7249082 76.9508424,7.68925071 83.6035871,2.65359327 C84.5720975,1.91610568 85.5751977,1.22471107 86.5091185,0.45265375 C87.270091,-0.181124646 87.8927049,-0.123508429 88.6652073,0.464176993 C95.5716094,5.69572957 102.501071,10.9042357 109.419003,16.124265 C109.914788,16.504532 110.422103,16.8732758 110.906359,17.2535429 C111.448263,17.6799029 111.81722,18.1754024 111.309905,18.8322272 C110.81412,19.4660056 110.249155,19.3046802 109.672661,18.8783202 C107.009257,16.8617526 104.345853,14.8567082 101.682449,12.8516638 C97.0013154,9.3255513 92.3201814,5.79943877 87.581398,2.22723326 C87.2470313,2.46922137 86.9241944,2.69968625 86.6128875,2.94167436 C79.6718957,8.17322694 72.719374,13.4163028 65.7783823,18.6478553 C64.7061028,19.4544824 64.5331545,19.4544824 63.6107636,18.7054716 C63.6222934,18.3828207 63.6222934,18.0716932 63.6222934,17.7605656 Z" id="Path"></path>
                    <path d="M22.0916416,102.652301 C23.3368694,102.652301 24.593627,102.652301 25.8388548,102.652301 C26.0463928,102.709917 26.2539307,102.79058 26.4614687,102.82515 C32.5953684,103.781579 37.1727334,106.973517 40.1935637,112.389442 C40.977596,113.795277 40.770058,114.7978 39.5248303,115.834892 C39.351882,115.973171 39.1674038,116.215159 39.1674038,116.411054 C39.1328141,117.367483 39.1558739,118.323912 39.1558739,119.41862 C40.5625201,119.41862 41.8653973,119.372527 43.1567446,119.430144 C44.3443229,119.48776 45.1975345,120.190678 45.4627219,121.15863 C45.7279093,122.126583 45.3358932,123.117582 44.4019724,123.855069 C44.2290241,123.993348 44.0214861,124.200766 43.9984263,124.396662 C43.9523068,125.099579 43.9753665,125.814021 43.9753665,126.609124 C44.5288011,126.609124 44.9899966,126.609124 45.451192,126.609124 C47.5265716,126.609124 47.9301177,127.000915 47.9301177,129.029005 C47.9301177,135.666394 47.9301177,142.315305 47.9301177,148.952694 C47.9301177,150.508331 47.895528,150.542901 46.373583,150.542901 C36.9190759,150.542901 27.4645688,150.542901 18.0100617,150.542901 C12.4295966,150.542901 6.83760155,150.531378 1.2571364,150.554424 C0.496163874,150.554424 -0.0111511395,150.404622 0.0001862171,149.482763 C0.0119086339,142.442061 0.0001862171,135.389836 0.0119086339,128.349134 C0.0119086339,127.231379 0.634522515,126.632171 1.76445141,126.609124 C2.4677745,126.586078 3.18262747,126.609124 3.92054022,126.609124 C3.93207011,126.297997 3.95512988,126.079055 3.95512988,125.871637 C3.97818965,124.926731 4.12807818,123.981825 3.05579872,123.371093 C2.73296189,123.186721 2.52542393,122.599036 2.4677745,122.161152 C2.23717676,120.640084 3.25180679,119.476237 4.90058059,119.407097 C6.16886812,119.349481 7.43715566,119.395574 8.74003285,119.395574 C8.76309262,119.02683 8.79768228,118.784842 8.79768228,118.542854 C8.79768228,117.828413 8.82074206,117.102448 8.77462251,116.388007 C8.76309262,116.192112 8.57861444,115.961647 8.40566614,115.811845 C7.17196826,114.7978 6.9644303,113.783754 7.7484626,112.366395 C10.1236193,108.056702 13.605645,105.060659 18.3213687,103.562637 C19.5435367,103.18237 20.8233541,102.951905 22.0916416,102.652301 Z M37.4955702,132.140281 C37.4955702,129.512982 37.5071001,126.931775 37.4725105,124.350569 C37.4725105,124.17772 37.218853,123.970302 37.0343748,123.820499 C35.5585493,122.668175 35.5585493,120.962735 37.0228449,119.787364 C37.2303828,119.614515 37.4494507,119.326434 37.4725105,119.084446 C37.5301599,118.24325 37.51863,117.402053 37.4725105,116.560856 C37.4609806,116.353438 37.2765024,116.146019 37.1381437,115.973171 C36.7230678,115.489194 36.2388126,115.051311 35.8467964,114.544288 C35.0512343,113.51872 34.4055606,112.331826 33.4946996,111.421489 C27.1532619,105.083705 16.5803558,106.558681 12.1528793,114.359916 C11.9222816,114.76323 11.7262735,115.316346 11.368847,115.489194 C10.2735078,116.019263 10.3888066,116.9296 10.4118664,117.851459 C10.4233963,118.220203 10.354217,118.611993 10.4349262,118.969214 C10.4925756,119.257295 10.653994,119.602992 10.8730619,119.775841 C12.3373575,120.928165 12.3488874,122.633605 10.8961217,123.820499 C10.653994,124.016395 10.4349262,124.396662 10.4349262,124.696266 C10.4003365,126.943298 10.4118664,129.178808 10.4233963,131.42584 C10.4233963,131.656305 10.4810457,131.898293 10.5156354,132.128758 C19.5204769,132.140281 28.4561391,132.140281 37.4955702,132.140281 Z M37.4494507,133.880291 C28.3984896,133.880291 19.4628275,133.880291 10.4810457,133.880291 C10.4810457,138.904425 10.4810457,143.870943 10.4810457,148.860508 C10.9998906,148.860508 11.4495562,148.860508 11.979931,148.860508 C11.979931,148.468717 11.979931,148.134543 11.979931,147.800369 C11.979931,144.308826 11.979931,140.817284 11.979931,137.325741 C11.979931,135.965998 12.5564253,135.401359 13.916952,135.389836 C15.3466579,135.378313 16.7878938,135.378313 18.2175997,135.389836 C19.2552895,135.401359 19.820254,135.919905 19.9816724,136.945474 C20.016262,137.187462 20.0277919,137.42945 20.0623816,137.717531 C22.668136,137.717531 25.2508306,137.717531 27.8219953,137.717531 C28.2140115,135.528115 28.3984896,135.378313 30.6352877,135.378313 C31.7306269,135.378313 32.8144362,135.378313 33.9097755,135.378313 C35.3971309,135.389836 35.9390355,135.919905 35.9390355,137.39488 C35.9390355,140.886423 35.9390355,144.377966 35.9390355,147.869509 C35.9390355,148.203683 35.9390355,148.526334 35.9390355,148.825938 C36.5270597,148.825938 36.9882552,148.825938 37.4494507,148.825938 C37.4494507,143.82485 37.4494507,138.892902 37.4494507,133.880291 Z M42.2574134,148.872031 C42.2574134,140.609865 42.2574134,132.451409 42.2574134,124.292952 C41.1966639,124.292952 40.1820338,124.292952 39.1904636,124.292952 C39.1904636,132.532072 39.1904636,140.679005 39.1904636,148.872031 C40.2396833,148.872031 41.2197236,148.872031 42.2574134,148.872031 Z M8.72850296,148.872031 C8.72850296,140.609865 8.72850296,132.451409 8.72850296,124.292952 C7.6562235,124.292952 6.65312336,124.292952 5.66155311,124.292952 C5.66155311,132.532072 5.66155311,140.679005 5.66155311,148.872031 C6.69924291,148.872031 7.69081316,148.872031 8.72850296,148.872031 Z M27.8911746,139.457541 C25.2162409,139.457541 22.6450762,139.457541 20.0623816,139.457541 C20.0623816,142.626433 20.0623816,145.726185 20.0623816,148.837461 C22.7027256,148.837461 25.2969501,148.837461 27.8911746,148.837461 C27.8911746,145.680092 27.8911746,142.603386 27.8911746,139.457541 Z M23.9940729,104.242509 C17.6180456,104.519066 12.694784,107.227029 9.42029616,112.746662 C9.09745934,113.299778 8.45178568,114.002696 9.39723639,114.486672 C10.2619779,114.924555 10.457986,114.014219 10.7808228,113.495673 C13.7440037,108.621341 18.0792411,105.936425 23.786535,105.890332 C29.7590163,105.844239 34.2787318,108.575248 37.2765024,113.772231 C37.5647496,114.279254 37.8875864,114.820846 38.5678497,114.463626 C39.2942326,114.083359 38.948336,113.51872 38.6716187,113.034743 C35.4201906,107.353784 30.4623394,104.542113 23.9940729,104.242509 Z M29.6206576,137.072229 C29.6206576,141.036225 29.6206576,144.942605 29.6206576,148.872031 C31.1887222,148.872031 32.6876075,148.872031 34.2441422,148.872031 C34.2441422,144.919558 34.2441422,141.024702 34.2441422,137.072229 C32.6991374,137.072229 31.211782,137.072229 29.6206576,137.072229 Z M18.2983089,148.872031 C18.2983089,144.931082 18.2983089,141.024702 18.2983089,137.106799 C16.7187144,137.106799 15.1852395,137.106799 13.6748243,137.106799 C13.6748243,141.070795 13.6748243,144.942605 13.6748243,148.872031 C15.2313591,148.872031 16.7417742,148.872031 18.2983089,148.872031 Z M46.2352243,148.872031 C46.2352243,141.946562 46.2352243,135.147848 46.2352243,128.291518 C45.4742518,128.291518 44.7824586,128.291518 44.033016,128.291518 C44.033016,135.170894 44.033016,142.004178 44.033016,148.872031 C44.7824586,148.872031 45.4857817,148.872031 46.2352243,148.872031 Z M1.69527209,128.291518 C1.69527209,135.216987 1.69527209,142.015701 1.69527209,148.872031 C2.45624461,148.872031 3.14803781,148.872031 3.89748045,148.872031 C3.89748045,141.992655 3.89748045,135.159371 3.89748045,128.291518 C3.14803781,128.291518 2.44471472,128.291518 1.69527209,128.291518 Z M40.8161776,121.020351 C40.8161776,121.020351 40.8161776,121.020351 40.8161776,121.020351 C40.066735,121.020351 39.3057624,120.939689 38.5793796,121.054921 C38.2219531,121.112537 37.726168,121.492804 37.6569886,121.815455 C37.51863,122.40314 38.0605347,122.587512 38.5563198,122.587512 C40.0206154,122.599036 41.484911,122.599036 42.9492066,122.587512 C43.4680515,122.587512 43.9638367,122.368571 43.825478,121.780885 C43.7562987,121.469758 43.2951032,121.101014 42.9607365,121.043398 C42.2574134,120.939689 41.5310306,121.020351 40.8161776,121.020351 Z M7.18349815,122.599036 C7.18349815,122.599036 7.18349815,122.599036 7.18349815,122.599036 C7.93294078,122.599036 8.6939133,122.668175 9.42029616,122.564466 C9.74313299,122.518373 10.2043285,122.138106 10.2735078,121.838501 C10.4003365,121.262339 9.90455141,121.031874 9.3857065,121.031874 C7.9214109,121.020351 6.45711529,121.020351 4.99281968,121.031874 C4.47397478,121.031874 4.04736897,121.239293 4.05889886,121.838501 C4.05889886,122.460757 4.52009433,122.587512 5.02740934,122.599036 C5.7537922,122.610559 6.46864517,122.599036 7.18349815,122.599036 Z" id="Shape"></path>
                    <path d="M23.9018338,130.619213 C20.6849955,130.619213 17.479687,130.619213 14.2628486,130.619213 C12.9138518,130.619213 12.7524334,130.446364 12.7524334,129.109668 C12.7524334,126.551508 12.7409035,123.993348 12.7524334,121.435188 C12.7639633,114.982172 17.2952088,110.07327 23.7404154,109.854328 C29.37853,109.658433 34.2326123,113.737661 34.9244055,119.142063 C35.3625412,122.610559 35.1319435,126.171241 35.1665331,129.697354 C35.178063,130.561597 34.4977997,130.619213 33.8290663,130.619213 C30.5199888,130.619213 27.2109113,130.619213 23.9018338,130.619213 Z M23.1523912,117.874506 C21.7688048,117.874506 20.5351069,117.874506 19.2898792,117.874506 C19.2898792,119.464713 19.2898792,120.985781 19.2898792,122.599036 C20.4543977,122.599036 21.5382071,122.622082 22.6220164,122.575989 C22.8064946,122.564466 23.1293314,122.287908 23.1293314,122.115059 C23.1639211,120.73227 23.1523912,119.337958 23.1523912,117.874506 Z M28.7213265,117.897552 C27.3607998,117.897552 26.1155721,117.897552 24.7781052,117.897552 C24.7781052,119.326434 24.7550454,120.686177 24.801165,122.057443 C24.8126949,122.253338 25.1355317,122.575989 25.3315398,122.587512 C26.2885204,122.645129 27.2570309,122.633605 28.2255413,122.587512 C28.3984896,122.575989 28.6982667,122.276385 28.7097966,122.103536 C28.7328564,120.6977 28.7213265,119.314911 28.7213265,117.897552 Z M24.8588144,124.269906 C24.8588144,125.894683 24.8588144,127.415751 24.8588144,128.93682 C26.1732215,128.93682 27.4069194,128.93682 28.663677,128.93682 C28.663677,127.358135 28.663677,125.84859 28.663677,124.269906 C27.3838596,124.269906 26.1501617,124.269906 24.8588144,124.269906 Z M23.0947418,124.269906 C21.7688048,124.269906 20.5351069,124.269906 19.2783493,124.269906 C19.2783493,125.860114 19.2783493,127.392705 19.2783493,128.93682 C20.5812265,128.93682 21.8149243,128.93682 23.0947418,128.93682 C23.0947418,127.381182 23.0947418,125.871637 23.0947418,124.269906 Z M24.8126949,116.111449 C26.1732215,116.111449 27.4184493,116.111449 28.7213265,116.111449 C28.7213265,115.097404 28.7443862,114.164021 28.7097966,113.230639 C28.6982667,113.011697 28.5829678,112.700569 28.4215494,112.608383 C27.3031504,112.020698 26.1501617,111.548245 24.8126949,111.594338 C24.8126949,113.138453 24.8126949,114.590381 24.8126949,116.111449 Z M23.0832119,116.146019 C23.0832119,114.555812 23.0832119,113.09236 23.0832119,111.35235 C21.849514,111.77871 20.7426449,112.124407 19.6588355,112.539244 C19.4628275,112.619907 19.2322297,112.931034 19.2206998,113.149976 C19.1745803,114.129452 19.1976401,115.12045 19.1976401,116.146019 C20.5581667,116.146019 21.7918646,116.146019 23.0832119,116.146019 Z M17.5027467,128.971389 C17.5027467,127.358135 17.5027467,125.825544 17.5027467,124.269906 C16.453527,124.269906 15.4619568,124.269906 14.4703865,124.269906 C14.4703865,125.860114 14.4703865,127.392705 14.4703865,128.971389 C15.4965464,128.971389 16.453527,128.971389 17.5027467,128.971389 Z M33.4716398,128.959866 C33.4716398,127.381182 33.4716398,125.84859 33.4716398,124.292952 C32.4108902,124.292952 31.4077901,124.292952 30.4162198,124.292952 C30.4162198,125.88316 30.4162198,127.392705 30.4162198,128.959866 C31.4539096,128.959866 32.43395,128.959866 33.4716398,128.959866 Z M30.39316,122.529896 C31.41932,122.529896 32.43395,122.529896 33.6676479,122.529896 C33.4716398,121.077967 33.3102214,119.695178 33.0911535,118.335435 C33.0565639,118.13954 32.7567868,117.862982 32.5607787,117.839936 C31.8574556,117.78232 31.1426027,117.816889 30.39316,117.816889 C30.39316,119.441667 30.39316,120.951212 30.39316,122.529896 Z M17.5258065,117.828413 C16.7533041,117.828413 16.0615109,117.805366 15.3927775,117.851459 C15.2082993,117.862982 14.8969923,118.070401 14.8739326,118.231726 C14.6433348,119.649085 14.4588566,121.077967 14.2513187,122.552943 C15.5196062,122.552943 16.4996466,122.552943 17.5258065,122.552943 C17.5258065,120.974258 17.5258065,119.464713 17.5258065,117.828413 Z M15.6925545,116.134496 C16.4765868,116.134496 16.9839018,116.134496 17.5142766,116.134496 C17.5142766,115.443101 17.5142766,114.820846 17.5142766,113.922033 C16.8455432,114.72866 16.3497581,115.327869 15.6925545,116.134496 Z M30.39316,116.122973 C30.9581245,116.122973 31.4654395,116.122973 32.2148821,116.122973 C31.5692085,115.339392 31.0618935,114.72866 30.39316,113.898987 C30.39316,114.809323 30.39316,115.420055 30.39316,116.122973 Z" id="Shape"></path>
                    <path d="M83.0616824,167.80472 L83.0616824,165.834245 C85.6559069,165.834245 88.2731912,165.695967 90.8443559,165.430932 L91.0518939,167.389883 C88.4115498,167.666441 85.7250862,167.80472 83.0616824,167.80472 Z M75.0714709,167.401407 C72.419597,167.124849 69.767723,166.710012 67.1619687,166.16842 L67.5655147,164.232515 C70.0905599,164.762584 72.6847844,165.165897 75.267479,165.430932 L75.0714709,167.401407 Z M98.9498662,166.145373 L98.5347903,164.209468 C101.059835,163.667876 103.596411,162.999528 106.063806,162.1929 L106.67489,164.071189 C104.138315,164.900863 101.544091,165.592257 98.9498662,166.145373 Z M59.4254147,164.117282 C56.9003695,163.299132 54.3868542,162.342703 51.9540481,161.259518 L52.7611402,159.450369 C55.1362969,160.498984 57.5806328,161.44389 60.0364987,162.238993 L59.4254147,164.117282 Z M114.134727,161.201902 L113.327635,159.404276 C115.691262,158.344137 118.020299,157.157243 120.268627,155.855117 L121.260197,157.560557 C118.96575,158.897253 116.567533,160.118717 114.134727,161.201902 Z M44.8285782,157.629696 C42.5341307,156.304523 40.2742729,154.841071 38.1181841,153.27391 L39.2827027,151.672179 C41.381142,153.193247 43.5833504,154.622129 45.8201484,155.912733 L44.8285782,157.629696 Z M8.19812818,107.399877 C7.64469362,104.807148 7.21808781,102.145278 6.94137053,99.5064555 L8.90145126,99.2990371 C9.17816854,101.880244 9.58171458,104.46145 10.1236193,106.996564 L8.19812818,107.399877 Z M159.043636,99.3681765 L157.083555,99.1607582 C157.348742,96.6025981 157.487101,93.9752986 157.487101,91.3825687 L157.487101,91.1175341 L159.458712,91.1175341 L159.458712,91.3825687 C159.458712,94.0559613 159.320353,96.740877 159.043636,99.3681765 Z M8.49790523,91.5208477 L6.52629461,91.5208477 L6.52629461,91.3710455 C6.52629461,88.7667925 6.66465325,86.1279697 6.92984064,83.5352399 L8.88992138,83.731135 C8.63626387,86.2547254 8.49790523,88.8244087 8.49790523,91.3825687 L8.49790523,91.5208477 Z M157.048965,83.3393447 C156.772248,80.7581382 156.357172,78.1769316 155.815267,75.6533413 L157.752288,75.2385045 C158.305723,77.8312343 158.732329,80.4815803 159.020576,83.1319264 L157.048965,83.3393447 Z M10.0774997,76.0451316 L8.14047874,75.641818 C8.68238342,73.037565 9.37417662,70.4448352 10.1927986,67.9097216 L12.0721701,68.5204535 C11.2881378,70.9749044 10.6078745,73.510018 10.0774997,76.0451316 Z M153.774477,68.1401865 C152.967385,65.6857356 152.021935,63.242808 150.961185,60.880543 L152.759847,60.073916 C153.855187,62.4937971 154.823697,65.0058642 155.653849,67.5294546 L153.774477,68.1401865 Z M14.8624027,61.2377636 L13.0522105,60.4311365 C14.1244899,57.9997321 15.3466579,55.6028975 16.6725949,53.2982488 L18.3790181,54.2892477 C17.0992007,56.5362802 15.9116224,58.8754986 14.8624027,61.2377636 Z M147.38692,53.9550736 C146.084043,51.7195644 144.642807,49.5301481 143.120862,47.444441 L144.711986,46.2805934 C146.280051,48.4239167 147.755877,50.6709492 149.093343,52.9640747 L147.38692,53.9550736 Z M22.6220164,47.7555686 L21.0193622,46.591721 C22.5758969,44.4483977 24.2707902,42.3511674 26.0463928,40.3691695 L27.5222183,41.6828192 C25.7927353,43.6187242 24.1439615,45.6583383 22.6220164,47.7555686 Z M138.1976,41.4062614 C136.456588,39.4818797 134.600276,37.6381607 132.674785,35.9096742 L133.989192,34.434699 C135.972332,36.2092785 137.874764,38.0990905 139.661896,40.0695651 L138.1976,41.4062614 Z M33.0219742,36.1747088 L31.6960372,34.7112569 C33.6676479,32.9251541 35.7545573,31.2312373 37.8991163,29.6640762 L39.0636348,31.2542838 C36.9767253,32.775352 34.9474653,34.434699 33.0219742,36.1747088 Z M126.598534,31.0238189 C124.500095,29.5027508 122.297887,28.0853918 120.049559,26.7947885 L121.029599,25.0778253 C123.335577,26.4029983 125.595434,27.8664502 127.751523,29.4220881 L126.598534,31.0238189 Z M45.5895507,26.9906837 L44.5979804,25.2852436 C46.9039578,23.9485474 49.2906443,22.7155603 51.7119205,21.6323754 L52.5190126,23.4300014 C50.1669157,24.4901398 47.8263487,25.6885572 45.5895507,26.9906837 Z" id="Shape"></path>
                </g>
                <text id="HOME" font-family="Montserrat-Black, Montserrat" font-size="16" font-weight="700" letter-spacing="0.213333333" fill="#C2CE4B">
                    <tspan x="64.2269183" y="63.0717518">HOME</tspan>
                </text>
                <text id="MALL" font-family="Montserrat-Black, Montserrat" font-size="16" font-weight="700" letter-spacing="0.213333333" fill="#C2CE4B">
                    <tspan x="3.46016117" y="176.88343">MALL</tspan>
                </text>
                <text id="OFFICE" font-family="Montserrat-Black, Montserrat" font-size="16" font-weight="700" letter-spacing="0.213333333" fill="#C2CE4B">
                    <tspan x="116.336819" y="176.88343">OFFICE</tspan>
                </text>
            </g>
        </g>
    </g>
</svg>