<?xml version="1.0" encoding="UTF-8"?>
<svg width="48px" height="48px" viewBox="0 0 48 48" version="1.1" xmlns="http://www.w3.org/2000/svg" xmlns:xlink="http://www.w3.org/1999/xlink">
    <!-- Generator: Sketch 57 (83077) - https://sketch.com -->
    <title>eco_system_office</title>
    <desc>Created with Sketch.</desc>
    <g id="Page-1" stroke="none" stroke-width="1" fill="none" fill-rule="evenodd">
        <g id="eco_system_office">
            <polygon id="Rectangle" fill="#FFFFFF" points="13.6000312 10.3999688 13.6000312 4.54747351e-13 34.1214344 4.54747351e-13 34.1214344 10.3999688 48 10.3999688 48 48 0 48 0 10.3999688"></polygon>
            <g id="002-town" fill="#000000" fill-rule="nonzero">
                <path d="M34.3999688,44.8000313 L12,44.8000313 C11.5584375,44.8000313 11.2000313,45.1584375 11.2000313,45.6 L11.2000313,47.2000313 C11.2000313,47.6415937 11.5584375,48 12,48 C12.4415625,48 12.7999687,47.6415937 12.7999687,47.2000313 L12.7999687,46.4000625 L34.3999688,46.4000625 C34.8415313,46.4000625 35.1999375,46.0416563 35.1999375,45.6000937 C35.1999375,45.1585312 34.841625,44.8000313 34.3999688,44.8000313 Z" id="Path"></path>
                <path d="M17.5999687,19.9999688 C17.5999687,20.4415313 17.958375,20.7999375 18.3999375,20.7999375 L21.6,20.7999375 C22.0415625,20.7999375 22.3999687,20.4415313 22.3999687,19.9999688 L22.3999687,15.1999688 C22.3999687,14.7584062 22.0415625,14.4 21.6,14.4 L18.4000312,14.4 C17.9584687,14.4 17.6000625,14.7584063 17.6000625,15.1999688 L17.6000625,19.9999688 L17.5999687,19.9999688 Z M19.2,16.0000312 L20.8000312,16.0000312 L20.8000312,19.2 L19.2,19.2 L19.2,16.0000312 Z" id="Shape"></path>
                <path d="M10.3999688,9.6 L0.79996875,9.6 C0.35840625,9.6 0,9.95840625 0,10.3999687 L0,26.4 C0,26.8415625 0.35840625,27.1999687 0.79996875,27.1999687 C1.24153125,27.1999687 1.5999375,26.8415625 1.5999375,26.4 L1.5999375,11.2000312 L10.3999688,11.2000312 C10.8415313,11.2000312 11.1999375,10.841625 11.1999375,10.4000625 C11.1999375,9.9585 10.841625,9.6 10.3999688,9.6 Z" id="Path"></path>
                <path d="M38.4,39.1999687 C38.4,39.6415312 38.7584063,39.9999375 39.1999688,39.9999375 L42.3999375,39.9999375 C42.8415,39.9999375 43.1999063,39.6415312 43.1999063,39.1999687 L43.1999063,34.3999687 C43.1999063,33.9584062 42.8415,33.6 42.3999375,33.6 L39.1999688,33.6 C38.7584063,33.6 38.4,33.9584062 38.4,34.3999687 L38.4,39.1999687 Z M40.0000313,35.2000312 L41.6000625,35.2000312 L41.6000625,38.4 L40.0000313,38.4 L40.0000313,35.2000312 Z" id="Shape"></path>
                <path d="M4.00003125,28.8 C0.0455625,28.8 0,39.096 0,39.1999687 C0,41.1319687 1.3768125,42.7471875 3.19996875,43.1191875 L3.19996875,47.2000312 C3.19996875,47.6415937 3.558375,48 3.9999375,48 C4.4415,48 4.79990625,47.6415937 4.79990625,47.2000312 L4.79990625,43.1191875 C6.6230625,42.7471875 7.99987514,41.1319687 7.99987514,39.1999687 C7.99996875,39.096 7.95440625,28.8 4.00003125,28.8 Z M4.00003125,41.5999688 C2.67684375,41.5999688 1.60003125,40.5231562 1.60003125,39.1999687 C1.60003125,35.214375 2.67046875,30.3999375 4.00003125,30.3999375 C5.32959375,30.3999375 6.40003125,35.214375 6.40003125,39.1999687 C6.40003125,40.5231562 5.32321875,41.5999688 4.00003125,41.5999688 Z" id="Shape"></path>
                <path d="M8.80003125,24 L5.59996875,24 C5.15840625,24 4.8,24.3584062 4.8,24.7999688 L4.8,26.4 C4.8,26.8415625 5.15840625,27.1999688 5.59996875,27.1999688 C6.04153125,27.1999688 6.3999375,26.8415625 6.3999375,26.4 L6.3999375,25.6000313 L7.99996875,25.6000313 L7.99996875,29.6000625 C7.99996875,30.041625 8.358375,30.4000313 8.7999375,30.4000313 C9.2415,30.4000313 9.59990627,30.041625 9.59990627,29.6000625 L9.59990627,24.8000625 C9.6,24.3584062 9.24159375,24 8.80003125,24 Z" id="Path"></path>
                <path d="M39.1999687,20.8000312 L42.3999375,20.8000312 C42.8415,20.8000312 43.1999062,20.441625 43.1999062,20.0000625 L43.1999062,15.2000625 C43.1999062,14.7585 42.8415,14.4000937 42.3999375,14.4000937 L39.1999687,14.4000937 C38.7584062,14.4000937 38.4,14.7585 38.4,15.2000625 L38.4,20.0000625 C38.4,20.441625 38.7584062,20.8000312 39.1999687,20.8000312 Z M40.0000312,16.0000312 L41.6000625,16.0000312 L41.6000625,19.2 L40.0000312,19.2 L40.0000312,16.0000312 Z" id="Shape"></path>
                <path d="M8.80003125,14.4 L5.59996875,14.4 C5.15840625,14.4 4.8,14.7584063 4.8,15.1999688 L4.8,19.9999688 C4.8,20.4415313 5.15840625,20.7999375 5.59996875,20.7999375 L8.7999375,20.7999375 C9.2415,20.7999375 9.59990627,20.4415312 9.59990627,19.9999688 L9.59990627,15.1999688 C9.6,14.7584063 9.24159375,14.4 8.80003125,14.4 Z M7.99996875,19.2 L6.40003125,19.2 L6.40003125,16.0000313 L8.0000625,16.0000313 L8.0000625,19.2 L7.99996875,19.2 Z" id="Shape"></path>
                <path d="M25.6000313,19.9999688 C25.6000313,20.4415313 25.9584375,20.7999375 26.4,20.7999375 L29.5999687,20.7999375 C30.0415312,20.7999375 30.3999375,20.4415313 30.3999375,19.9999688 L30.3999375,15.1999688 C30.3999375,14.7584062 30.0415313,14.4 29.5999687,14.4 L26.4,14.4 C25.9584375,14.4 25.6000313,14.7584063 25.6000313,15.1999688 L25.6000313,19.9999688 Z M27.1999687,16.0000312 L28.8,16.0000312 L28.8,19.2 L27.1999687,19.2 L27.1999687,16.0000312 Z" id="Shape"></path>
                <path d="M47.2000313,9.6 L37.6000313,9.6 C37.1584688,9.6 36.8000625,9.95840625 36.8000625,10.3999688 C36.8000625,10.8415313 37.1584687,11.1999375 37.6000313,11.1999375 L46.4000625,11.1999375 L46.4000625,43.3471875 C46.1489063,43.2575625 45.8824688,43.2 45.6000938,43.2 C45.4617188,43.2 45.3240938,43.212 45.1889063,43.236 C44.6369063,42.2415937 43.5865313,41.5999687 42.400125,41.5999687 C41.2137188,41.5999687 40.1633438,42.2415937 39.6113437,43.236 C39.4761563,43.212 39.3385312,43.2 39.2001562,43.2 C37.8769688,43.2 36.8000625,44.2768125 36.8000625,45.6 C36.8000625,46.9231875 37.8769687,48 39.2001562,48 L45.6,48 C46.9231875,48 48,46.9231875 48,45.6 L48,10.3999688 C48,9.95840625 47.6415938,9.6 47.2000313,9.6 Z M45.6,46.3999687 L39.1999688,46.3999687 C38.7591563,46.3999687 38.4,46.0408125 38.4,45.6 C38.4,45.1591875 38.7591563,44.8000312 39.1999688,44.8000312 C39.3535313,44.8000312 39.499125,44.844 39.6335625,44.9304375 C39.85275,45.07125 40.1264063,45.0968437 40.368,44.99925 C40.6095938,44.9016562 40.788,44.6920312 40.8464063,44.4384375 C41.01525,43.709625 41.6544375,43.2 42.4000313,43.2 C43.145625,43.2 43.7848125,43.709625 43.9536563,44.4384375 C44.0120625,44.6920312 44.1904688,44.9016562 44.4320625,44.99925 C44.6729063,45.0968437 44.9472188,45.07125 45.1665,44.9304375 C45.6872813,44.5944375 46.4000625,45.005625 46.4000625,45.6 C46.3999688,46.0408125 46.0408125,46.3999687 45.6,46.3999687 Z" id="Shape"></path>
                <path d="M26.4,11.2000313 L29.5999687,11.2000313 C30.0415312,11.2000313 30.3999375,10.841625 30.3999375,10.4000625 L30.3999375,5.6000625 C30.3999375,5.1585 30.0415313,4.80009375 29.5999687,4.80009375 L26.4,4.80009375 C25.9584375,4.80009375 25.6000313,5.1585 25.6000313,5.6000625 L25.6000313,10.4000625 C25.6000313,10.841625 25.9584375,11.2000313 26.4,11.2000313 Z M27.1999687,6.40003125 L28.8,6.40003125 L28.8,9.6 L27.1999687,9.6 L27.1999687,6.40003125 Z" id="Shape"></path>
                <path d="M25.6000313,29.5999687 C25.6000313,30.0415312 25.9584375,30.3999375 26.4,30.3999375 L29.5999687,30.3999375 C30.0415312,30.3999375 30.3999375,30.0415313 30.3999375,29.5999687 L30.3999375,24.7999688 C30.3999375,24.3584063 30.0415313,24 29.5999687,24 L26.4,24 C25.9584375,24 25.6000313,24.3584062 25.6000313,24.7999688 L25.6000313,29.5999687 Z M27.1999687,25.6000313 L28.8,25.6000313 L28.8,28.8 L27.1999687,28.8 L27.1999687,25.6000313 Z" id="Shape"></path>
                <path d="M18.4000312,11.2000313 L21.6,11.2000313 C22.0415625,11.2000313 22.3999687,10.841625 22.3999687,10.4000625 L22.3999687,5.6000625 C22.3999687,5.1585 22.0415625,4.80009375 21.6,4.80009375 L18.4000312,4.80009375 C17.9584687,4.80009375 17.6000625,5.1585 17.6000625,5.6000625 L17.6000625,10.4000625 C17.5999687,10.841625 17.958375,11.2000313 18.4000312,11.2000313 Z M19.2,6.40003125 L20.8000313,6.40003125 L20.8000313,9.6 L19.2,9.6 L19.2,6.40003125 Z" id="Shape"></path>
                <path d="M23.4319687,38.6320312 C23.2879688,38.784 23.1999375,38.9920312 23.1999375,39.2000625 C23.1999375,39.4080937 23.2879688,39.6160312 23.4319687,39.7680938 C23.5839375,39.9120938 23.7919687,40.000125 24,40.000125 C24.2080312,40.000125 24.4159688,39.9120938 24.5680313,39.7680938 C24.7120313,39.616125 24.8000625,39.4080938 24.8000625,39.2000625 C24.8000625,38.9920313 24.7120313,38.7840937 24.5680313,38.6320312 C24.264,38.3359687 23.736,38.3359687 23.4319687,38.6320312 Z" id="Path"></path>
                <path d="M17.5999687,29.5999687 C17.5999687,30.0415312 17.958375,30.3999375 18.3999375,30.3999375 L21.6,30.3999375 C22.0415625,30.3999375 22.3999687,30.0415313 22.3999687,29.5999687 L22.3999687,24.7999688 C22.3999687,24.3584063 22.0415625,24 21.6,24 L18.4000312,24 C17.9584687,24 17.6000625,24.3584062 17.6000625,24.7999688 L17.6000625,29.5999687 L17.5999687,29.5999687 Z M19.2,25.6000313 L20.8000312,25.6000313 L20.8000312,28.8 L19.2,28.8 L19.2,25.6000313 Z" id="Shape"></path>
                <path d="M16.0000312,34.3999687 C16.0000312,34.8415312 16.3584375,35.1999375 16.8,35.1999375 L19.2,35.1999375 L19.2,42.3999375 C19.2,42.8415 19.5584062,43.1999062 19.9999687,43.1999062 C20.4415312,43.1999062 20.7999375,42.8415 20.7999375,42.3999375 L20.7999375,35.1999375 L27.1999687,35.1999375 L27.1999687,42.3999375 C27.1999687,42.8415 27.558375,43.1999062 27.9999375,43.1999062 C28.4415,43.1999062 28.7999062,42.8415 28.7999062,42.3999375 L28.7999062,35.1999375 L31.1999062,35.1999375 C31.6414687,35.1999375 31.999875,34.8415312 31.999875,34.3999687 C31.999875,33.9584062 31.6414688,33.6 31.1999062,33.6 L16.8,33.6 C16.3584375,33.6 16.0000312,33.9584062 16.0000312,34.3999687 Z" id="Path"></path>
                <path d="M38.4,29.5999687 C38.4,30.0415312 38.7584063,30.3999375 39.1999688,30.3999375 L42.3999375,30.3999375 C42.8415,30.3999375 43.1999063,30.0415313 43.1999063,29.5999687 L43.1999063,24.7999688 C43.1999063,24.3584063 42.8415,24 42.3999375,24 L39.1999688,24 C38.7584063,24 38.4,24.3584062 38.4,24.7999688 L38.4,29.5999687 Z M40.0000313,25.6000313 L41.6000625,25.6000313 L41.6000625,28.8 L40.0000313,28.8 L40.0000313,25.6000313 Z" id="Shape"></path>
                <path d="M34.3999687,0 L13.6000312,0 C13.1584687,0 12.8000625,0.35840625 12.8000625,0.79996875 L12.8000625,42.3999375 C12.8000625,42.8415 13.1584688,43.1999063 13.6000312,43.1999063 C14.0415937,43.1999063 14.4,42.8415 14.4,42.3999375 L14.4,1.5999375 L33.6,1.5999375 L33.6,42.3999375 C33.6,42.8415 33.9584062,43.1999063 34.3999687,43.1999063 C34.8415313,43.1999063 35.1999375,42.8415 35.1999375,42.3999375 L35.1999375,0.79996875 C35.1999375,0.35840625 34.841625,0 34.3999687,0 Z" id="Path"></path>
            </g>
        </g>
    </g>
</svg>