<?xml version="1.0" encoding="UTF-8"?>
<svg width="1036px" height="1095px" viewBox="0 0 1036 1095" version="1.1" xmlns="http://www.w3.org/2000/svg" xmlns:xlink="http://www.w3.org/1999/xlink">
    <!-- Generator: Sketch 56.2 (81672) - https://sketch.com -->
    <title>go_g</title>
    <desc>Created with Sketch.</desc>
    <g id="Page-1" stroke="none" stroke-width="1" fill="none" fill-rule="evenodd">
        <g id="go_website_2019_hover" transform="translate(-206.000000, -2525.000000)" fill="#F4F2EE" fill-rule="nonzero">
            <path d="M1141.73579,3258.935 L1005.2691,3404.20549 C940.856829,3472.76645 856.734864,3519.63041 768.382433,3536.14197 C732.979075,3542.76998 690.84986,3545.90854 644.412196,3540.17726 C557.093012,3630.55219 419.671059,3646.14752 316.190321,3576.90426 C301.120499,3566.84527 292.503603,3558.85267 291.567831,3557.97543 C287.961212,3554.408 285.075916,3551.42539 282.229611,3548.46228 C186.235045,3447.15112 181.01032,3290.6715 265.951085,3180.89988 C257.724093,3134.95214 256.515388,3083.15616 267.705657,3026.44764 C283.145887,2948.21758 321.863436,2874.33471 379.64733,2812.81114 L609.418239,2568.19841 C611.54322,2565.93709 661.957913,2513.24437 728.729113,2527.41663 C756.334374,2533.26487 781.366263,2550.92658 797.410846,2575.87911 C821.682421,2613.6198 821.838383,2655.98061 797.800751,2695.16388 C793.160884,2702.7666 787.390293,2710.15489 779.670177,2718.38142 L330.28538,3196.78762 C357.949127,3302.87484 425.987517,3367.22507 426.962279,3368.14129 C488.703707,3426.13642 554.168726,3462.49303 622.655507,3477.01618 L1111.26473,2956.87298 C1093.13416,2930.34143 1069.56441,2908.31303 1042.48552,2892.52276 L711.397844,3244.97718 C689.855603,3267.92181 661.665484,3281.56772 632.032718,3283.40018 C603.0238,3285.17414 576.159358,3275.77796 554.363678,3256.20582 C549.509363,3251.85862 544.927982,3246.63419 540.833981,3240.68847 L540.229629,3239.77224 C511.552129,3196.92408 516.679378,3138.96794 552.219202,3101.14927 L752.825231,2887.59074 C758.186422,2882.09338 874.319572,2765.57679 1028.50743,2821.07666 L1046.2676,2802.16733 C1054.51408,2793.39495 1062.00026,2786.76694 1069.79835,2781.32807 C1132.69,2737.40772 1187.82254,2768.92978 1208.17557,2791.73795 C1230.14671,2813.45444 1241.94133,2838.81635 1242,2865.87424 C1242.0778,2904.49217 1217.51379,2930.41941 1214.55052,2933.18758 L1183.98198,2965.72333 C1210.74894,3022.74375 1218.48855,3082.10347 1206.38201,3138.50008 C1196.9853,3182.28396 1174.62426,3223.904 1141.73579,3258.935 Z M697,3483 C716.950293,3482.70772 737.15411,3480.64227 757.552943,3476.82314 C833.687787,3462.59883 906.390323,3422.03032 962.282347,3362.58051 L1098.79462,3217.37564 C1124.34192,3190.19357 1141.62047,3158.29605 1148.75811,3125.07351 C1157.86543,3082.73184 1151.11782,3043.62473 1139.7678,3012 L697,3483 Z M1152.3384,2913 L1172.14095,2891.96875 C1172.16061,2891.94913 1172.16061,2891.94913 1172.18028,2891.92951 C1180.26255,2883.35613 1194.87356,2861.20661 1165.2779,2831.89626 C1158.37553,2824.65696 1136.37051,2806.07805 1102.99919,2829.32621 C1098.57459,2832.40635 1094.032,2836.48704 1088.62416,2842.2157 L1083,2848.19941 C1109.46894,2865.46387 1132.98815,2887.41721 1152.3384,2913 Z M332.453174,3514.61034 C332.472651,3514.59085 338.529978,3519.98981 348.891707,3526.94803 C417.586858,3572.9464 505.836851,3570.12023 572,3523.53714 C513.02384,3504.84543 449.840662,3470.11277 386.462715,3410.52929 C382.489421,3406.84552 323.610646,3351.06276 287.4225,3257 C248.079091,3338.90048 260.466422,3438.81049 324.935077,3506.91146 C327.33074,3509.42578 329.862742,3512.01806 332.453174,3514.61034 L332.453174,3514.61034 Z M588.994029,3206.85042 C590.399589,3208.83288 591.80515,3210.48493 593.21071,3211.70938 C603.303417,3220.74705 614.606467,3224.71196 627.842162,3223.89565 C642.405332,3223.00161 656.59759,3215.96583 667.822553,3204.0711 L983,2870.00793 C877.348694,2847.75389 798.734907,2925.26401 795.123397,2928.91795 L594.674836,3141.35165 C577.730022,3159.31037 575.153161,3186.59828 588.54503,3206.22848 L588.994029,3206.85042 Z M317.308438,3122 L735.924747,2677.73544 C740.811471,2672.55212 744.251725,2668.2262 746.753727,2664.13411 C758.990084,2644.25824 759.068271,2626.33099 747.066478,2607.70224 C739.482282,2595.9521 728.047349,2587.68997 715.732805,2585.09832 C681.721207,2577.90793 651.755816,2608.36477 651.462613,2608.65706 L421.219733,2853.01329 C370.886478,2906.42481 337.246271,2970.24192 323.915289,3037.56654 C318.031673,3067.26343 316.194265,3095.47936 317.308438,3122 Z" id="go_g"></path>
        </g>
    </g>
</svg>