<?xml version="1.0" encoding="UTF-8"?>
<svg width="108px" height="100px" viewBox="0 0 108 100" version="1.1" xmlns="http://www.w3.org/2000/svg" xmlns:xlink="http://www.w3.org/1999/xlink">
    <!-- Generator: Sketch 56.2 (81672) - https://sketch.com -->
    <title>icon_everywhere</title>
    <desc>Created with Sketch.</desc>
    <g id="Page-1" stroke="none" stroke-width="1" fill="none" fill-rule="evenodd">
        <g id="icon_everywhere" fill-rule="nonzero">
            <circle id="Oval" fill="#1A3F39" cx="75.8717949" cy="49.3846154" r="31.3333333"></circle>
            <path d="M95.3333333,45.3333333 C93.4871795,45.3333333 91.9230769,46.4615385 91.2564103,48.0769231 L58.4615385,48.0769231 L58.4615385,44.2307692 L72.9487179,44.2307692 C73.3846154,44.2307692 73.7948718,44.0512821 74.1025641,43.7435897 L77.4358974,40.4102564 C78.025641,40.7179487 78.6923077,40.8717949 79.4102564,40.8717949 C81.8461538,40.8717949 83.8205128,38.8974359 83.8205128,36.4615385 C83.8205128,34.025641 81.8461538,32.0512821 79.4102564,32.0512821 C76.974359,32.0512821 75,34.025641 75,36.4615385 C75,36.974359 75.1025641,37.4615385 75.2564103,37.8974359 L72.2564103,40.8974359 L58.4615385,40.8974359 L58.4615385,36.3333333 L61.5128205,33.2820513 C62.0512821,33.5384615 62.6666667,33.6666667 63.3076923,33.6666667 C65.7435897,33.6666667 67.7179487,31.6923077 67.7179487,29.2564103 C67.7179487,26.8205128 65.7435897,24.8461538 63.3076923,24.8461538 C60.8717949,24.8461538 58.8974359,26.8205128 58.8974359,29.2564103 C58.8974359,29.8461538 59,30.3846154 59.2051282,30.8974359 L55.6410256,34.4615385 C55.3333333,34.7692308 55.1538462,35.1794872 55.1538462,35.6153846 L55.1538462,40.8717949 L51.3076923,40.8717949 L51.3076923,8.48717949 C52.9230769,7.82051282 54.0512821,6.25641026 54.0512821,4.41025641 C54.0512821,1.97435897 52.0769231,-5.68434189e-14 49.6410256,-5.68434189e-14 C47.2051282,-5.68434189e-14 45.2307692,1.97435897 45.2307692,4.41025641 C45.2307692,6.25641026 46.3589744,7.82051282 47.974359,8.48717949 L47.974359,40.8717949 L44.1282051,40.8717949 L44.1282051,26.7948718 C44.1282051,26.3589744 43.9487179,25.9487179 43.6410256,25.6410256 L40.3076923,22.3076923 C40.6153846,21.7179487 40.7692308,21.0512821 40.7692308,20.3333333 C40.7692308,17.8974359 38.7948718,15.9230769 36.3589744,15.9230769 C33.9230769,15.9230769 31.9487179,17.8974359 31.9487179,20.3333333 C31.9487179,22.7692308 33.9230769,24.7435897 36.3589744,24.7435897 C36.8717949,24.7435897 37.3589744,24.6410256 37.7948718,24.4871795 L40.7948718,27.4871795 L40.7948718,40.8974359 L27.3846154,40.8974359 L24.3846154,37.8974359 C24.5384615,37.4358974 24.6410256,36.974359 24.6410256,36.4615385 C24.6410256,34.025641 22.6666667,32.0512821 20.2307692,32.0512821 C17.7948718,32.0512821 15.8205128,34.025641 15.8205128,36.4615385 C15.8205128,38.8974359 17.7948718,40.8717949 20.2307692,40.8717949 C20.9487179,40.8717949 21.6153846,40.6923077 22.2051282,40.4102564 L25.5384615,43.7435897 C25.8461538,44.0512821 26.2564103,44.2307692 26.6923077,44.2307692 L40.7692308,44.2307692 L40.7692308,48.0769231 L8.48717949,48.0769231 C7.82051282,46.4615385 6.25641026,45.3333333 4.41025641,45.3333333 C1.97435897,45.3333333 7.21200877e-13,47.3076923 7.21200877e-13,49.7435897 C7.21200877e-13,52.1794872 1.97435897,54.1538462 4.41025641,54.1538462 C6.25641026,54.1538462 7.82051282,53.025641 8.48717949,51.4102564 L40.8717949,51.4102564 L40.8717949,55.2564103 L35.6153846,55.2564103 C35.1794872,55.2564103 34.7692308,55.4358974 34.4615385,55.7435897 L30.8974359,59.3076923 C30.3846154,59.1025641 29.8461538,59 29.2564103,59 C26.8205128,59 24.8461538,60.974359 24.8461538,63.4102564 C24.8461538,65.8461538 26.8205128,67.8205128 29.2564103,67.8205128 C31.6923077,67.8205128 33.6666667,65.8461538 33.6666667,63.4102564 C33.6666667,62.7692308 33.5384615,62.1794872 33.2820513,61.6153846 L36.3333333,58.5641026 L40.8974359,58.5641026 L40.8974359,72.3589744 L37.8974359,75.3589744 C37.4358974,75.2051282 36.974359,75.1025641 36.4615385,75.1025641 C34.025641,75.1025641 32.0512821,77.0769231 32.0512821,79.5128205 C32.0512821,81.9487179 34.025641,83.9230769 36.4615385,83.9230769 C38.8974359,83.9230769 40.8717949,81.9487179 40.8717949,79.5128205 C40.8717949,78.7948718 40.6923077,78.1282051 40.4102564,77.5384615 L43.7435897,74.2051282 C44.0512821,73.8974359 44.2307692,73.4871795 44.2307692,73.0512821 L44.2307692,58.5641026 L48.0769231,58.5641026 L48.0769231,91.3589744 C46.4615385,92.025641 45.3333333,93.5897436 45.3333333,95.4358974 C45.3333333,97.8717949 47.3076923,99.8461538 49.7435897,99.8461538 C52.1794872,99.8461538 54.1538462,97.8717949 54.1538462,95.4358974 C54.1538462,93.5897436 53.025641,92.025641 51.4102564,91.3589744 L51.4102564,58.5641026 L55.2564103,58.5641026 L55.2564103,64.2051282 C55.2564103,64.6410256 55.4358974,65.0512821 55.7435897,65.3589744 L59.3076923,68.9230769 C59.1025641,69.4358974 59,69.974359 59,70.5641026 C59,73 60.974359,74.974359 63.4102564,74.974359 C65.8461538,74.974359 67.8205128,73 67.8205128,70.5641026 C67.8205128,68.1282051 65.8461538,66.1538462 63.4102564,66.1538462 C62.7692308,66.1538462 62.1794872,66.2820513 61.6153846,66.5384615 L58.5641026,63.4871795 L58.5641026,58.5384615 L63.5128205,58.5384615 L66.5641026,61.5897436 C66.3076923,62.1282051 66.1794872,62.7435897 66.1794872,63.3846154 C66.1794872,65.8205128 68.1538462,67.7948718 70.5897436,67.7948718 C73.025641,67.7948718 75,65.8205128 75,63.3846154 C75,60.9487179 73.025641,58.974359 70.5897436,58.974359 C70,58.974359 69.4615385,59.0769231 68.9487179,59.2820513 L65.3846154,55.7179487 C65.0769231,55.4102564 64.6666667,55.2307692 64.2307692,55.2307692 L58.5897436,55.2307692 L58.5897436,51.3846154 L91.2564103,51.3846154 C91.9230769,53 93.4871795,54.1282051 95.3333333,54.1282051 C97.7692308,54.1282051 99.7435897,52.1538462 99.7435897,49.7179487 C99.7435897,47.2820513 97.7435897,45.3333333 95.3333333,45.3333333 L95.3333333,45.3333333 Z M79.4102564,35.3846154 C80.025641,35.3846154 80.5128205,35.8717949 80.5128205,36.4871795 C80.5128205,37.1025641 80.025641,37.5897436 79.4102564,37.5897436 C78.7948718,37.5897436 78.3076923,37.1025641 78.3076923,36.4871795 C78.3076923,35.8717949 78.8205128,35.3846154 79.4102564,35.3846154 Z M63.3076923,28.2051282 C63.9230769,28.2051282 64.4102564,28.6923077 64.4102564,29.3076923 C64.4102564,29.9230769 63.9230769,30.4102564 63.3076923,30.4102564 C62.6923077,30.4102564 62.2051282,29.9230769 62.2051282,29.3076923 C62.2051282,28.6923077 62.6923077,28.2051282 63.3076923,28.2051282 Z M49.6666667,3.35897436 C50.2820513,3.35897436 50.7692308,3.84615385 50.7692308,4.46153846 C50.7692308,5.07692308 50.2820513,5.56410256 49.6666667,5.56410256 C49.0512821,5.56410256 48.5641026,5.07692308 48.5641026,4.46153846 C48.5641026,3.84615385 49.0512821,3.35897436 49.6666667,3.35897436 Z M35.3333333,20.3589744 C35.3333333,19.7435897 35.8205128,19.2564103 36.4358974,19.2564103 C37.0512821,19.2564103 37.5384615,19.7435897 37.5384615,20.3589744 C37.5384615,20.974359 37.0512821,21.4615385 36.4358974,21.4615385 C35.8205128,21.4615385 35.3333333,20.974359 35.3333333,20.3589744 Z M20.3076923,37.5897436 C19.6923077,37.5897436 19.2051282,37.1025641 19.2051282,36.4871795 C19.2051282,35.8717949 19.6923077,35.3846154 20.3076923,35.3846154 C20.9230769,35.3846154 21.4102564,35.8717949 21.4102564,36.4871795 C21.4102564,37.0769231 20.9230769,37.5897436 20.3076923,37.5897436 Z M4.41025641,50.8205128 C3.79487179,50.8205128 3.30769231,50.3333333 3.30769231,49.7179487 C3.30769231,49.1025641 3.79487179,48.6153846 4.41025641,48.6153846 C5.02564103,48.6153846 5.51282051,49.1025641 5.51282051,49.7179487 C5.51282051,50.3333333 5,50.8205128 4.41025641,50.8205128 Z M29.2564103,64.4615385 C28.6410256,64.4615385 28.1538462,63.974359 28.1538462,63.3589744 C28.1538462,62.7435897 28.6410256,62.2564103 29.2564103,62.2564103 C29.8717949,62.2564103 30.3589744,62.7435897 30.3589744,63.3589744 C30.3589744,63.9487179 29.8461538,64.4615385 29.2564103,64.4615385 Z M36.4358974,80.5641026 C35.8205128,80.5641026 35.3333333,80.0769231 35.3333333,79.4615385 C35.3333333,78.8461538 35.8205128,78.3589744 36.4358974,78.3589744 C37.0512821,78.3589744 37.5384615,78.8461538 37.5384615,79.4615385 C37.5384615,80.0769231 37.025641,80.5641026 36.4358974,80.5641026 Z M49.6666667,96.4871795 C49.0512821,96.4871795 48.5641026,96 48.5641026,95.3846154 C48.5641026,94.7692308 49.0512821,94.2820513 49.6666667,94.2820513 C50.2820513,94.2820513 50.7692308,94.7692308 50.7692308,95.3846154 C50.7692308,95.974359 50.2820513,96.4871795 49.6666667,96.4871795 Z M64.4102564,70.5384615 C64.4102564,71.1538462 63.9230769,71.6410256 63.3076923,71.6410256 C62.6923077,71.6410256 62.2051282,71.1538462 62.2051282,70.5384615 C62.2051282,69.9230769 62.6923077,69.4358974 63.3076923,69.4358974 C63.9230769,69.4358974 64.4102564,69.9230769 64.4102564,70.5384615 Z M71.5897436,63.3589744 C71.5897436,63.974359 71.1025641,64.4615385 70.4871795,64.4615385 C69.8717949,64.4615385 69.3846154,63.974359 69.3846154,63.3589744 C69.3846154,62.7435897 69.8717949,62.2564103 70.4871795,62.2564103 C71.0769231,62.2564103 71.5897436,62.7435897 71.5897436,63.3589744 Z M55.1538462,44.2307692 L55.1538462,48.0769231 L51.3076923,48.0769231 L51.3076923,44.2307692 L55.1538462,44.2307692 Z M44.1794872,44.2307692 L48.025641,44.2307692 L48.025641,48.0769231 L44.1794872,48.0769231 L44.1794872,44.2307692 Z M44.1794872,55.2307692 L44.1794872,51.3846154 L48.025641,51.3846154 L48.025641,55.2307692 L44.1794872,55.2307692 Z M55.1538462,55.2307692 L51.3076923,55.2307692 L51.3076923,51.3846154 L55.1538462,51.3846154 L55.1538462,55.2307692 Z M95.3333333,50.8205128 C94.7179487,50.8205128 94.2307692,50.3333333 94.2307692,49.7179487 C94.2307692,49.1025641 94.7179487,48.6153846 95.3333333,48.6153846 C95.9487179,48.6153846 96.4358974,49.1025641 96.4358974,49.7179487 C96.4358974,50.3333333 95.9230769,50.8205128 95.3333333,50.8205128 Z" id="Shape" fill="#C2CE4B"></path>
        </g>
    </g>
</svg>