<?xml version="1.0" encoding="UTF-8"?>
<svg width="90px" height="99px" viewBox="0 0 90 99" version="1.1" xmlns="http://www.w3.org/2000/svg" xmlns:xlink="http://www.w3.org/1999/xlink">
    <!-- Generator: Sketch 56.2 (81672) - https://sketch.com -->
    <title>icon_saftey</title>
    <desc>Created with Sketch.</desc>
    <g id="Page-1" stroke="none" stroke-width="1" fill="none" fill-rule="evenodd">
        <g id="icon_saftey" transform="translate(-1.000000, 0.000000)" fill-rule="nonzero">
            <path d="M60.4561268,34.9439505 C60.1726582,34.6604819 59.7603402,34.4800928 59.3480222,34.4800928 C58.9357042,34.4800928 58.549156,34.634712 58.2399175,34.9439505 C57.9564489,35.2274191 57.7760598,35.6397371 57.7760598,36.0520551 C57.7760598,36.4643731 57.930679,36.8766911 58.2399175,37.1601598 C58.5233862,37.4436284 58.9357042,37.6240175 59.3480222,37.6240175 C59.7603402,37.6240175 60.1726582,37.4693983 60.4561268,37.1601598 C60.7395954,36.8766911 60.9199845,36.4643731 60.9199845,36.0520551 C60.9199845,35.6397371 60.7395954,35.2274191 60.4561268,34.9439505 Z" id="Path" fill="#010101"></path>
            <circle id="Oval" fill="#1A3F39" cx="59.0903234" cy="31.4907873" r="31.4907873"></circle>
            <g id="Group" transform="translate(-0.000000, 12.060302)" fill="#C2CE4B">
                <path d="M36.1035949,11.4160546 C37.0828501,11.5191341 37.933256,10.7460379 37.933256,9.76678263 C37.933256,8.83906713 37.1859296,8.11751063 36.283984,8.11751063 C35.3562685,8.11751063 34.634712,8.86483701 34.634712,9.76678263 C34.6089421,10.6429584 35.253189,11.338745 36.1035949,11.4160546 Z" id="Path"></path>
                <path d="M69.5013529,11.4418245 C64.9143152,11.4418245 61.2034532,7.70519263 61.2034532,3.14392475 C61.2034532,2.21620925 60.4561268,1.49465275 59.5541812,1.49465275 L13.0395568,1.49465275 C12.1118413,1.49465275 11.3902848,2.24197913 11.3902848,3.14392475 C11.3902848,7.7309625 7.65365288,11.4418245 3.092385,11.4418245 C2.1646695,11.4418245 1.443113,12.1891509 1.443113,13.0910965 L1.443113,40.201005 C1.443113,61.3323025 15.2042263,80.2731607 35.8458961,86.4579307 C36.0005154,86.5094704 36.1551346,86.5352403 36.3355238,86.5352403 C36.5159129,86.5352403 36.6447623,86.5094704 36.8251514,86.4579307 C57.0287334,80.4020101 71.2279345,61.7961603 71.2279345,40.201005 L71.2279345,13.0910965 C71.1763948,12.1891509 70.4290684,11.4418245 69.5013529,11.4418245 Z M67.8520809,40.201005 C67.8520809,60.0438088 55.1990723,77.2323154 36.283984,83.1336168 C17.523515,77.2838552 4.71588713,59.9407293 4.71588713,40.201005 L4.71588713,14.637289 C9.79255251,13.9157325 13.8384229,9.86986213 14.5599794,4.79319675 L58.0079887,4.79319675 C58.7295452,9.86986213 62.7754155,13.9157325 67.8520809,14.637289 L67.8520809,40.201005 Z" id="Shape"></path>
                <path d="M55.8175493,9.09676588 C55.5598505,8.50405876 54.9671434,8.09174076 54.2971267,8.09174076 L42.9326118,8.09174076 C42.0048963,8.09174076 41.2833398,8.83906713 41.2833398,9.74101276 C41.2833398,10.6429584 42.0306662,11.3902848 42.9326118,11.3902848 L53.2405618,11.3902848 C54.9929133,14.8176781 57.7760598,17.6008246 61.2034532,19.3531761 L61.2034532,40.1494653 C61.2034532,56.4102564 51.4366705,70.4290684 36.283984,76.0469012 C21.1312975,70.4290684 11.3645149,56.4102564 11.3645149,40.1494653 L11.3645149,19.3531761 C14.7919083,17.6008246 17.5750548,14.8176781 19.3274063,11.3902848 L29.6353563,11.3902848 C30.5630718,11.3902848 31.2846283,10.6429584 31.2846283,9.74101276 C31.2846283,8.83906713 30.5373019,8.09174076 29.6353563,8.09174076 L18.2708414,8.09174076 C17.6008246,8.09174076 17.0081175,8.47828888 16.7504188,9.09676588 C15.2299961,12.5499291 12.4983894,15.3073058 9.01945626,16.8277284 C8.42674913,17.0854271 8.01443113,17.6781343 8.01443113,18.348151 L8.01443113,40.201005 C8.01443113,58.0079887 19.0439376,73.5472233 35.7170468,79.4485247 C35.8974359,79.5000644 36.077825,79.5516042 36.283984,79.5516042 C36.490143,79.5516042 36.6705321,79.5258343 36.8509213,79.4485247 C53.4982605,73.5472233 64.5535369,58.0337585 64.5535369,40.201005 L64.5535369,18.348151 C64.5535369,17.6781343 64.1669888,17.0854271 63.5485118,16.8277284 C60.0695787,15.3073058 57.312202,12.575699 55.8175493,9.09676588 Z" id="Path"></path>
                <path d="M21.3374565,40.6906327 C21.3374565,48.9369927 28.037624,55.6371602 36.283984,55.6371602 C44.530344,55.6371602 51.2305115,48.9369927 51.2305115,40.6906327 C51.2305115,32.4442726 44.530344,25.7441051 36.283984,25.7441051 C28.037624,25.7441051 21.3374565,32.4442726 21.3374565,40.6906327 Z M47.9061977,40.6906327 C47.9061977,47.1073315 42.7006829,52.3128463 36.283984,52.3128463 C29.8672851,52.3128463 24.6617704,47.1073315 24.6617704,40.6906327 C24.6617704,34.2739338 29.8672851,29.0683242 36.283984,29.0683242 C42.7006829,29.0426491 47.9061977,34.2739338 47.9061977,40.6906327 Z" id="Shape"></path>
                <path d="M32.4700425,41.1544904 C31.8257956,40.5102435 30.7692308,40.5102435 30.1249839,41.1544904 C29.480737,41.7987373 29.480737,42.8553022 30.1249839,43.499549 L33.4492978,46.8238629 C33.7843061,47.1588713 34.1966241,47.3134905 34.634712,47.3134905 C35.0727999,47.3134905 35.4851179,47.1588713 35.8201263,46.8238629 L44.118026,38.5259631 C44.7622729,37.8817163 44.7622729,36.8251514 44.118026,36.1809045 C43.4737792,35.5366576 42.4172143,35.5366576 41.7729674,36.1809045 L34.634712,43.3191599 L32.4700425,41.1544904 Z" id="Path"></path>
            </g>
        </g>
    </g>
</svg>