<?xml version="1.0" encoding="UTF-8"?>
<svg width="26px" height="30px" viewBox="0 0 26 30" version="1.1" xmlns="http://www.w3.org/2000/svg" xmlns:xlink="http://www.w3.org/1999/xlink">
    <!-- Generator: Sketch 57 (83077) - https://sketch.com -->
    <title>icon_android</title>
    <desc>Created with Sketch.</desc>
    <g id="Page-1" stroke="none" stroke-width="1" fill="none" fill-rule="evenodd">
        <g id="icon_android" fill="#C2CE4B" fill-rule="nonzero">
            <path d="M1.87001976,9.76571146 L1.7933004,9.76571146 C0.809822134,9.76571146 0.00794466403,10.5701383 0.00794466403,11.5510672 L0.00794466403,19.3242095 C0.00794466403,20.3089921 0.809822134,21.1108103 1.7933004,21.1108103 L1.87132411,21.1108103 C2.85480237,21.1108103 3.65667984,20.3063834 3.65667984,19.3242095 L3.65667984,11.5510079 C3.65537549,10.5701383 2.85225296,9.76571146 1.87001976,9.76571146 Z" id="Path"></path>
            <path d="M4.51096838,22.3245059 C4.51096838,23.2274111 5.24887352,23.9627668 6.15177866,23.9627668 L7.90517787,23.9627668 L7.90517787,28.1614032 C7.90517787,29.1474308 8.70960474,29.9493083 9.6905336,29.9493083 L9.76725296,29.9493083 C10.7520356,29.9493083 11.5551581,29.1461858 11.5551581,28.1614032 L11.5551581,23.9627668 L14.0055534,23.9627668 L14.0055534,28.1614032 C14.0055534,29.1474308 14.8125296,29.9493083 15.7934585,29.9493083 L15.8689328,29.9493083 C16.8536561,29.9493083 17.6555336,29.1461858 17.6555336,28.1614032 L17.6555336,23.9627668 L19.4101779,23.9627668 C20.3117787,23.9627668 21.0497431,23.2274111 21.0497431,22.3245059 L21.0497431,10.0508893 L4.51096838,10.0508893 L4.51096838,22.3245059 Z" id="Path"></path>
            <path d="M16.899664,2.60768775 L18.2924111,0.457885375 C18.3819368,0.32229249 18.3422727,0.136897233 18.2054348,0.0486166008 C18.0699012,-0.0409090909 17.8844466,-0.0037944664 17.796166,0.135592885 L16.3523123,2.35962451 C15.2691107,1.9158498 14.0592688,1.66648221 12.7816008,1.66648221 C11.5026877,1.66648221 10.2953953,1.9158498 9.20964427,2.35962451 L7.76833992,0.135592885 C7.68011858,-0.0037944664 7.49335968,-0.0409090909 7.35652174,0.0486166008 C7.21968379,0.136837945 7.18001976,0.32229249 7.26954545,0.457885375 L8.66353755,2.60768775 C6.15047431,3.83928854 4.45594862,6.16049407 4.45594862,8.82314229 C4.45594862,8.98683794 4.46620553,9.14798419 4.48025692,9.30782609 L21.0841897,9.30782609 C21.0982411,9.14798419 21.1071937,8.98683794 21.1071937,8.82314229 C21.1071937,6.16049407 19.4114229,3.83928854 16.899664,2.60768775 Z M8.93211462,6.45717391 C8.49088933,6.45717391 8.13278656,6.10162055 8.13278656,5.6591502 C8.13278656,5.21667984 8.49088933,4.86237154 8.93211462,4.86237154 C9.37588933,4.86237154 9.73144269,5.21662055 9.73144269,5.6591502 C9.73144269,6.10167984 9.37333992,6.45717391 8.93211462,6.45717391 Z M16.6298419,6.45717391 C16.1886166,6.45717391 15.8305138,6.10162055 15.8305138,5.6591502 C15.8305138,5.21667984 16.1886166,4.86237154 16.6298419,4.86237154 C17.0723123,4.86237154 17.4278656,5.21662055 17.4278656,5.6591502 C17.4278656,6.10162055 17.0723123,6.45717391 16.6298419,6.45717391 Z" id="Shape"></path>
            <path d="M23.7673518,9.76571146 L23.6931818,9.76571146 C22.7097036,9.76571146 21.9052767,10.5701383 21.9052767,11.5510672 L21.9052767,19.3242095 C21.9052767,20.3089921 22.7110079,21.1108103 23.6931818,21.1108103 L23.7686561,21.1108103 C24.7533794,21.1108103 25.5540119,20.3063834 25.5540119,19.3242095 L25.5540119,11.5510079 C25.5540119,10.5701383 24.75083,9.76571146 23.7673518,9.76571146 Z" id="Path"></path>
        </g>
    </g>
</svg>