<?xml version="1.0" encoding="UTF-8"?>
<svg width="30px" height="30px" viewBox="0 0 30 30" version="1.1" xmlns="http://www.w3.org/2000/svg" xmlns:xlink="http://www.w3.org/1999/xlink">
    <!-- Generator: Sketch 56.2 (81672) - https://sketch.com -->
    <title>icon_ct copy</title>
    <desc>Created with Sketch.</desc>
    <g id="Page-1" stroke="none" stroke-width="1" fill="none" fill-rule="evenodd">
        <g id="go_website_2019_hover" transform="translate(-1109.000000, -4366.000000)" fill="#C2CE4B" fill-rule="nonzero">
            <path d="M1137.33333,4386.83333 C1135.25,4386.83333 1133.25,4386.5 1131.38333,4385.88333 C1130.8,4385.7 1130.15,4385.83333 1129.68333,4386.28333 L1126.01667,4389.95 C1121.3,4387.55 1117.43333,4383.7 1115.03333,4378.98333 L1118.7,4375.3 C1119.16667,4374.85 1119.3,4374.2 1119.11667,4373.61667 C1118.5,4371.75 1118.16667,4369.75 1118.16667,4367.66667 C1118.16667,4366.75 1117.41667,4366 1116.5,4366 L1110.66667,4366 C1109.75,4366 1109,4366.75 1109,4367.66667 C1109,4383.31667 1121.68333,4396 1137.33333,4396 C1138.25,4396 1139,4395.25 1139,4394.33333 L1139,4388.5 C1139,4387.58333 1138.25,4386.83333 1137.33333,4386.83333 Z M1124,4366 L1124,4382.66667 L1129,4377.66667 L1139,4377.66667 L1139,4366 L1124,4366 Z" id="icon_ct-copy"></path>
        </g>
    </g>
</svg>