<?xml version="1.0" encoding="UTF-8"?>
<svg width="78px" height="100px" viewBox="0 0 78 100" version="1.1" xmlns="http://www.w3.org/2000/svg" xmlns:xlink="http://www.w3.org/1999/xlink">
    <!-- Generator: Sketch 56.2 (81672) - https://sketch.com -->
    <title>icon_bt</title>
    <desc>Created with Sketch.</desc>
    <g id="Page-1" stroke="none" stroke-width="1" fill="none" fill-rule="evenodd">
        <g id="icon_bt" fill-rule="nonzero">
            <circle id="Oval" fill="#1A3F39" cx="42.1356421" cy="64.4155844" r="35.2669553"></circle>
            <g id="Group" fill="#C2CE4B">
                <path d="M26.2337662,13.2178932 L26.2914863,39.5959596 L13.5642136,28.0808081 L11.5151515,30.3607504 L25.5699856,43.0591631 L11.3997114,55.6998557 L13.4487734,57.979798 L26.2914863,46.4935065 L26.2337662,74.6608947 L42.1356421,56.7676768 L29.4660895,43.4343434 L42.1356421,29.1197691 L26.2337662,13.2178932 Z M37.9220779,29.2929293 L29.3217893,39.018759 L29.2929293,20.6637807 L37.9220779,29.2929293 Z M29.2929293,66.6378066 L29.3217893,47.7922078 L37.950938,56.8831169 L29.2929293,66.6378066 Z" id="Shape"></path>
                <path d="M27.7633478,0.0577200577 C12.5252525,0.0577200577 0.115440115,12.4675325 0.115440115,27.7056277 L0.115440115,59.9422799 C0.115440115,75.1803752 12.5252525,87.5901876 27.7633478,87.5901876 C43.001443,87.5901876 55.4112554,75.1803752 55.4112554,59.9422799 L55.4112554,27.7056277 C55.3823954,12.4386724 43.001443,0.0577200577 27.7633478,0.0577200577 Z M52.3232323,59.9134199 C52.3232323,73.4487734 41.2987013,84.4733045 27.7633478,84.4733045 C14.2279942,84.4733045 3.2034632,73.4487734 3.2034632,59.9134199 L3.2034632,27.6767677 C3.2034632,14.1414141 14.2279942,3.11688312 27.7633478,3.11688312 C41.2987013,3.11688312 52.3232323,14.1414141 52.3232323,27.6767677 L52.3232323,59.9134199 Z" id="Shape"></path>
            </g>
        </g>
    </g>
</svg>