<?xml version="1.0" encoding="UTF-8"?>
<svg width="106px" height="100px" viewBox="0 0 106 100" version="1.1" xmlns="http://www.w3.org/2000/svg" xmlns:xlink="http://www.w3.org/1999/xlink">
    <!-- Generator: Sketch 56.2 (81672) - https://sketch.com -->
    <title>icon_congestion</title>
    <desc>Created with Sketch.</desc>
    <g id="Page-1" stroke="none" stroke-width="1" fill="none" fill-rule="evenodd">
        <g id="icon_congestion" fill-rule="nonzero">
            <path d="M49.1764706,49.8529412 L45,49.8529412 C44.0294118,49.8529412 43.2352941,50.6470588 43.2352941,51.6176471 C43.2352941,52.5882353 44.0294118,53.3823529 45,53.3823529 L49.1764706,53.3823529 C50.1470588,53.3823529 50.9411765,52.5882353 50.9411765,51.6176471 C50.9705882,50.6470588 50.1764706,49.8529412 49.1764706,49.8529412 Z" id="Path" fill="#1A3F39"></path>
            <circle id="Oval" fill="#C2CE4B" cx="35.9411765" cy="63.7058824" r="35.9411765"></circle>
            <path d="M105.382353,64.6764706 C105.382353,64.6764706 105.382353,64.6764706 105.382353,64.6764706 L96.4117647,50.8235294 C95.3529412,49.1764706 93.5588235,48.2058824 91.6176471,48.2058824 L82.9117647,48.2058824 L82.9117647,38.2647059 L85.5,38.2647059 C87.6176471,38.2647059 89.3235294,36.5588235 89.3235294,34.4411765 L89.3235294,24.8235294 C89.3235294,22.7058824 87.6176471,21 85.5,21 L82.9117647,21 L82.9117647,6.70588235 C82.9117647,3 79.9117647,9.9475983e-14 76.2058824,9.9475983e-14 L27.7058824,9.9475983e-14 C24,9.9475983e-14 21,3 21,6.70588235 L21,21 L18.4117647,21 C16.2941176,21 14.5882353,22.7058824 14.5882353,24.8235294 L14.5882353,34.4411765 C14.5882353,36.5588235 16.2941176,38.2647059 18.4117647,38.2647059 L21,38.2647059 L21,52.6764706 C21,58.2647059 25.2058824,62.9117647 30.6176471,63.6176471 L30.6176471,65.5 C30.6176471,68.4411765 33,70.8235294 35.9411765,70.8235294 C38.8823529,70.8235294 41.2647059,68.4411765 41.2647059,65.5 L41.2647059,63.7352941 L46.1176471,63.7352941 L45.4705882,64.7352941 C45.4705882,64.7352941 45.4705882,64.7352941 45.4705882,64.7352941 C45.2941176,65 45.1764706,65.3529412 45.1764706,65.7058824 L45.1764706,79.0294118 C45.1764706,81.7647059 47.4117647,84 50.1470588,84 L53.4705882,84 L53.4705882,85.7647059 C53.4705882,88.7058824 55.8529412,91.0882353 58.7941176,91.0882353 C61.7352941,91.0882353 64.1176471,88.7058824 64.1176471,85.7647059 L64.1176471,84 L86.6176471,84 L86.6176471,85.7647059 C86.6176471,88.7058824 89,91.0882353 91.9411765,91.0882353 C94.8823529,91.0882353 97.2647059,88.7058824 97.2647059,85.7647059 L97.2647059,84 L100.588235,84 C103.323529,84 105.558824,81.7647059 105.558824,79.0294118 L105.558824,65.7058824 C105.676471,65.2941176 105.558824,64.9705882 105.382353,64.6764706 Z M82.8823529,24.5588235 L85.4705882,24.5588235 C85.6176471,24.5588235 85.7352941,24.6764706 85.7352941,24.8235294 L85.7352941,34.4411765 C85.7352941,34.5882353 85.6176471,34.7058824 85.4705882,34.7058824 L82.8823529,34.7058824 L82.8823529,24.5588235 Z M21,34.7058824 L18.4117647,34.7058824 C18.2647059,34.7058824 18.1470588,34.5882353 18.1470588,34.4411765 L18.1470588,24.8235294 C18.1470588,24.6764706 18.2647059,24.5588235 18.4117647,24.5588235 L21,24.5588235 L21,34.7058824 Z M85.8235294,51.7647059 L81.6470588,55.9411765 C80.9411765,56.6470588 80.9411765,57.7647059 81.6470588,58.4705882 C82,58.8235294 82.4411765,59 82.9117647,59 C83.3529412,59 83.8235294,58.8235294 84.1764706,58.4705882 L90.8823529,51.7647059 L91.6470588,51.7647059 C92.3823529,51.7647059 93.0588235,52.1470588 93.4705882,52.7352941 L100.676471,63.8529412 L66.7352941,63.8529412 L78.7647059,51.8235294 C78.7941176,51.7941176 78.7941176,51.7647059 78.8235294,51.7647059 L85.8235294,51.7647059 Z M61.6470588,63.8823529 L50.2352941,63.8823529 L57.4411765,52.7647059 C57.8529412,52.1470588 58.5294118,51.7941176 59.2647059,51.7941176 L73.7647059,51.7941176 L61.6470588,63.8823529 Z M57.3235294,24.3823529 C57.6764706,24.7352941 58.1176471,24.9117647 58.5882353,24.9117647 C59.0588235,24.9117647 59.5,24.7352941 59.8529412,24.3823529 L73.5294118,10.7058824 L79.3235294,10.7058824 L79.3235294,39.7058824 L27.0588235,39.7058824 L56.0588235,10.7058824 L68.5,10.7058824 L57.3235294,21.8823529 C56.6470588,22.5588235 56.6470588,23.6764706 57.3235294,24.3823529 Z M24.5588235,6.70588235 C24.5588235,4.97058824 25.9705882,3.55882353 27.7058824,3.55882353 L76.2058824,3.55882353 C77.9411765,3.55882353 79.3529412,4.97058824 79.3529412,6.70588235 L79.3529412,7.11764706 L24.5588235,7.11764706 L24.5588235,6.70588235 Z M24.5588235,10.6764706 L51.0294118,10.6764706 L24.5588235,37.1470588 L24.5588235,10.6764706 Z M37.7058824,65.4705882 C37.7058824,66.4411765 36.9117647,67.2352941 35.9411765,67.2352941 C34.9705882,67.2352941 34.1764706,66.4411765 34.1764706,65.4705882 L34.1764706,63.7058824 L37.7352941,63.7058824 L37.7352941,65.4705882 L37.7058824,65.4705882 Z M32.0294118,60.1470588 C27.9117647,60.1470588 24.5588235,56.7941176 24.5588235,52.6764706 L24.5588235,43.2647059 L79.3529412,43.2647059 L79.3529412,48.2352941 L59.2647059,48.2352941 C57.3235294,48.2352941 55.5294118,49.2058824 54.4705882,50.8529412 L48.4411765,60.1764706 L32.0294118,60.1764706 L32.0294118,60.1470588 Z M60.6176471,85.7352941 C60.6176471,86.7058824 59.8235294,87.5 58.8529412,87.5 C57.8823529,87.5 57.0882353,86.7058824 57.0882353,85.7352941 L57.0882353,83.9705882 L60.6470588,83.9705882 L60.6470588,85.7352941 L60.6176471,85.7352941 Z M93.7941176,85.7352941 C93.7941176,86.7058824 93,87.5 92.0294118,87.5 C91.0588235,87.5 90.2647059,86.7058824 90.2647059,85.7352941 L90.2647059,83.9705882 L93.8235294,83.9705882 L93.8235294,85.7352941 L93.7941176,85.7352941 Z M102.117647,79 C102.117647,79.7941176 101.470588,80.4117647 100.705882,80.4117647 L50.1764706,80.4117647 C49.3823529,80.4117647 48.7647059,79.7647059 48.7647059,79 L48.7647059,67.4411765 L102.117647,67.4411765 L102.117647,79 L102.117647,79 Z" id="Shape" fill="#1A3F39"></path>
            <path d="M34.7647059,46.2941176 C31.8235294,46.2941176 29.4411765,48.6764706 29.4411765,51.6176471 C29.4411765,54.5588235 31.8235294,56.9411765 34.7647059,56.9411765 C37.7058824,56.9411765 40.0882353,54.5588235 40.0882353,51.6176471 C40.0882353,48.6764706 37.7058824,46.2941176 34.7647059,46.2941176 Z M34.7647059,53.4117647 C33.7941176,53.4117647 33,52.6176471 33,51.6470588 C33,50.6764706 33.7941176,49.8823529 34.7647059,49.8823529 C35.7352941,49.8823529 36.5294118,50.6764706 36.5294118,51.6470588 C36.5588235,52.6176471 35.7352941,53.4117647 34.7647059,53.4117647 Z" id="Shape" fill="#1A3F39"></path>
            <path d="M55,26.7058824 C54.6764706,26.3823529 54.2058824,26.1764706 53.7352941,26.1764706 C53.2647059,26.1764706 52.7941176,26.3529412 52.4705882,26.7058824 C52.1470588,27.0294118 51.9411765,27.5 51.9411765,27.9705882 C51.9411765,28.4411765 52.1176471,28.9117647 52.4705882,29.2352941 C52.8235294,29.5588235 53.2647059,29.7647059 53.7352941,29.7647059 C54.2058824,29.7647059 54.6764706,29.5882353 55,29.2352941 C55.3235294,28.8823529 55.5294118,28.4411765 55.5294118,27.9705882 C55.5294118,27.5 55.3235294,27.0294118 55,26.7058824 Z" id="Path" fill="#1A3F39"></path>
            <path d="M83.5588235,72.1470588 L67.3235294,72.1470588 C66.3529412,72.1470588 65.5588235,72.9411765 65.5588235,73.9117647 C65.5588235,74.8823529 66.3529412,75.6764706 67.3235294,75.6764706 L83.5588235,75.6764706 C84.5294118,75.6764706 85.3235294,74.8823529 85.3235294,73.9117647 C85.3235294,72.9411765 84.5294118,72.1470588 83.5588235,72.1470588 Z" id="Path" fill="#1A3F39"></path>
            <path d="M61.3823529,72.6470588 C61.0588235,72.3235294 60.5882353,72.1176471 60.1176471,72.1176471 C59.6470588,72.1176471 59.1764706,72.2941176 58.8529412,72.6470588 C58.5294118,72.9705882 58.3235294,73.4411765 58.3235294,73.9117647 C58.3235294,74.3823529 58.5,74.8529412 58.8529412,75.1764706 C59.1764706,75.5 59.6470588,75.7058824 60.1176471,75.7058824 C60.5882353,75.7058824 61.0588235,75.5294118 61.3823529,75.1764706 C61.7058824,74.8529412 61.9117647,74.3823529 61.9117647,73.9117647 C61.9117647,73.4411765 61.7058824,73 61.3823529,72.6470588 Z" id="Path" fill="#1A3F39"></path>
            <path d="M91.3235294,72.6470588 C91,72.3235294 90.5294118,72.1176471 90.0588235,72.1176471 C89.5882353,72.1176471 89.1470588,72.2941176 88.7941176,72.6470588 C88.4705882,72.9705882 88.2647059,73.4411765 88.2647059,73.9117647 C88.2647059,74.3823529 88.4411765,74.8529412 88.7941176,75.1764706 C89.1176471,75.5 89.5882353,75.7058824 90.0588235,75.7058824 C90.5294118,75.7058824 91,75.5294118 91.3235294,75.1764706 C91.6470588,74.8529412 91.8529412,74.3823529 91.8529412,73.9117647 C91.8529412,73.4411765 91.6470588,73 91.3235294,72.6470588 Z" id="Path" fill="#1A3F39"></path>
        </g>
    </g>
</svg>