<?xml version="1.0" encoding="UTF-8"?>
<svg width="25px" height="30px" viewBox="0 0 25 30" version="1.1" xmlns="http://www.w3.org/2000/svg" xmlns:xlink="http://www.w3.org/1999/xlink">
    <!-- Generator: Sketch 57 (83077) - https://sketch.com -->
    <title>icon_apple</title>
    <desc>Created with Sketch.</desc>
    <g id="Page-1" stroke="none" stroke-width="1" fill="none" fill-rule="evenodd">
        <g id="icon_apple" fill="#C2CE4B" fill-rule="nonzero">
            <path d="M1.2652021,11.0280906 C-1.27102741,15.4292382 0.34130046,22.1082218 3.1459562,26.1579267 C4.54592341,28.1825824 5.96330046,29.9999923 7.90464472,29.9999923 C7.94123489,29.9999923 7.97792341,29.9993037 8.01549718,29.9978283 C8.92759554,29.9614349 9.5867103,29.6806152 10.223989,29.4092382 C10.9394644,29.1043201 11.6794316,28.7890742 12.8400873,28.7890742 C13.9442841,28.7890742 14.6489398,29.0940906 15.3303824,29.3889759 C16.001989,29.6795333 16.6937595,29.9801234 17.7159234,29.9609431 C19.9026775,29.9202218 21.2453005,27.959107 22.4298578,26.2290415 C23.6659562,24.422648 24.2860218,22.6687792 24.4952349,21.9985496 L24.5036939,21.9718939 C24.54353,21.8527792 24.4872677,21.7227464 24.373071,21.6703201 C24.3699234,21.6688447 24.3583169,21.6640251 24.355071,21.662648 C23.969989,21.5051726 20.5920873,20.006648 20.5565791,15.9223201 C20.5236283,12.6040251 23.0906447,10.8468119 23.6054644,10.5283201 L23.6294644,10.5133693 C23.6852349,10.4774677 23.7240873,10.4205169 23.7372677,10.3554021 C23.750448,10.2903857 23.7366775,10.2227136 23.6993005,10.1680251 C21.9274316,7.57504145 19.2116939,7.18425457 18.1183169,7.13723817 C17.9596611,7.12140211 17.7958906,7.1134349 17.6314316,7.1134349 C16.3472349,7.1134349 15.1170382,7.59845129 14.1287103,7.98815621 C13.4464808,8.2571726 12.8572021,8.48950047 12.4507759,8.48950047 C11.9940873,8.48950047 11.4014644,8.25432014 10.7152021,7.98205785 C9.79749718,7.61782834 8.75733325,7.20510703 7.65618571,7.20510703 C7.62992341,7.20510703 7.60405456,7.20540211 7.57857915,7.20589391 C5.01825128,7.24356604 2.59897259,8.70835293 1.2652021,11.0280906 Z" id="XMLID_229_"></path>
            <path d="M18.1205791,0.000188993602 C16.5701201,0.0633365346 14.7102185,1.01772998 13.5985464,2.31982834 C12.6537923,3.41428735 11.7308742,5.23907424 11.9740218,7.0784185 C11.9892677,7.19350047 12.082907,7.28232014 12.1986775,7.29127096 C12.3033332,7.2994349 12.4101529,7.30356604 12.5165791,7.3036644 C14.0326119,7.3036644 15.6680546,6.46494309 16.7849398,5.11445129 C17.960448,3.6884185 18.5548414,1.85832014 18.3750382,0.219041453 C18.3608742,0.0905824362 18.2478578,-0.00482739984 18.1205791,0.000188993602 Z" id="XMLID_230_"></path>
        </g>
    </g>
</svg>