<?xml version="1.0" encoding="UTF-8"?>
<svg width="30px" height="30px" viewBox="0 0 30 30" version="1.1" xmlns="http://www.w3.org/2000/svg" xmlns:xlink="http://www.w3.org/1999/xlink">
    <!-- Generator: Sketch 56.2 (81672) - https://sketch.com -->
    <title>icon_ig</title>
    <desc>Created with Sketch.</desc>
    <g id="Page-1" stroke="none" stroke-width="1" fill="none" fill-rule="evenodd">
        <g id="go_website_2019_hover" transform="translate(-1216.000000, -4366.000000)" fill="#C2CE4B" fill-rule="nonzero">
            <g id="icon_ig" transform="translate(1216.000000, 4366.000000)">
                <path d="M15,10.7728795 C12.6367347,10.7728795 10.7142857,12.6953284 10.7142857,15.0585937 C10.7142857,17.4218591 12.6367347,19.344308 15,19.344308 C17.3632653,19.344308 19.2857143,17.4218591 19.2857143,15.0585937 C19.2857143,12.6953284 17.3632653,10.7728795 15,10.7728795 Z M25.6054688,0 L4.39453125,0 C1.96875,0 0,1.96875 0,4.39453125 L0,25.6054688 C0,28.03125 1.96875,30 4.39453125,30 L25.6054688,30 C28.03125,30 30,28.03125 30,25.6054688 L30,4.39453125 C30,1.96875 28.03125,0 25.6054688,0 Z M15,22.96875 C10.6406836,22.96875 7.08984375,19.4179102 7.08984375,15.0585938 C7.08984375,10.6991602 10.6406836,7.1484375 15,7.1484375 C19.3593164,7.1484375 22.9101562,10.6991602 22.9101562,15.0585938 C22.9101562,19.4179102 19.3593164,22.96875 15,22.96875 Z M24.6679688,7.1484375 C23.7011719,7.1484375 22.9101562,6.35742188 22.9101562,5.390625 C22.9101562,4.42382812 23.7011719,3.6328125 24.6679688,3.6328125 C25.6347656,3.6328125 26.4257812,4.42382812 26.4257812,5.390625 C26.4257812,6.35742188 25.6347656,7.1484375 24.6679688,7.1484375 Z" id="Shape"></path>
            </g>
        </g>
    </g>
</svg>