<?xml version="1.0" encoding="UTF-8"?>
<svg width="99px" height="98px" viewBox="0 0 99 98" version="1.1" xmlns="http://www.w3.org/2000/svg" xmlns:xlink="http://www.w3.org/1999/xlink">
    <!-- Generator: Sketch 56.2 (81672) - https://sketch.com -->
    <title>icon_logs</title>
    <desc>Created with Sketch.</desc>
    <defs>
        <filter x="-14.1%" y="-13.7%" width="128.2%" height="127.3%" filterUnits="objectBoundingBox" id="filter-1">
            <feOffset dx="0" dy="2" in="SourceAlpha" result="shadowOffsetOuter1"></feOffset>
            <feGaussianBlur stdDeviation="2" in="shadowOffsetOuter1" result="shadowBlurOuter1"></feGaussianBlur>
            <feColorMatrix values="0 0 0 0 0   0 0 0 0 0   0 0 0 0 0  0 0 0 0.11871722 0" type="matrix" in="shadowBlurOuter1" result="shadowMatrixOuter1"></feColorMatrix>
            <feMerge>
                <feMergeNode in="shadowMatrixOuter1"></feMergeNode>
                <feMergeNode in="SourceGraphic"></feMergeNode>
            </feMerge>
        </filter>
    </defs>
    <g id="Page-1" stroke="none" stroke-width="1" fill="none" fill-rule="evenodd">
        <g id="icon_logs" transform="translate(0.000000, -2.000000)">
            <g id="Group-12" transform="translate(0.000000, 1.823158)" fill-rule="nonzero">
                <circle id="Oval" fill="#C2CE4B" cx="34.1640829" cy="64.0569351" r="33.5299767"></circle>
                <path d="M97.547263,28.1672383 L86.4895047,28.1672383 C85.7212238,28.1672383 85.1175744,28.7983262 85.1175744,29.5391686 C85.1175744,30.280011 85.7486624,30.9110989 86.4895047,30.9110989 L96.1478941,30.9110989 L96.1478941,76.4866237 C96.1478941,78.764028 94.2820689,80.6298532 92.0046646,80.6298532 L22.9965702,80.6298532 C20.7191659,80.6298532 18.8533407,78.764028 18.8533407,76.4866237 L18.8533407,30.9110989 L75.4591851,30.9110989 C76.227466,30.9110989 76.8311154,30.280011 76.8311154,29.5391686 C76.8311154,28.7983262 76.2000274,28.1672383 75.4591851,28.1672383 L17.4814103,28.1672383 C16.7131294,28.1672383 16.10948,28.7983262 16.10948,29.5391686 L16.10948,76.4866237 C16.10948,80.3005899 19.2100425,83.4011524 23.0240088,83.4011524 L92.0595418,83.4011524 C95.873508,83.4011524 98.9740705,80.3005899 98.9740705,76.4866237 L98.9740705,29.5391686 C98.9466319,28.7708876 98.315544,28.1672383 97.547263,28.1672383 Z" id="Path" fill="#1A3F39"></path>
                <path d="M92.0321032,10.1949513 L87.8888736,10.1949513 L87.8888736,6.05172177 C87.8888736,5.2834408 87.2577857,4.67979147 86.5169433,4.67979147 C85.776101,4.67979147 85.145013,5.31087941 85.145013,6.05172177 L85.145013,17.10948 C85.145013,18.646042 83.9102758,19.8807793 82.3737138,19.8807793 C80.8371519,19.8807793 79.6024146,18.646042 79.6024146,17.10948 L79.6024146,6.05172177 C79.6024146,4.51515983 80.8371519,3.28042255 82.3737138,3.28042255 C83.1419948,3.28042255 83.7456441,2.64933461 83.7456441,1.90849225 C83.7456441,1.16764988 83.1145562,0.536561943 82.3737138,0.536561943 C79.3280285,0.536561943 76.858554,3.00603649 76.858554,6.05172177 L76.858554,10.1949513 L71.3433942,10.1949513 L71.3433942,6.05172177 C71.3433942,5.2834408 70.7123062,4.67979147 69.9714638,4.67979147 C69.2306215,4.67979147 68.5995335,5.31087941 68.5995335,6.05172177 L68.5995335,17.10948 C68.5995335,18.646042 67.3647963,19.8807793 65.8282343,19.8807793 C64.2916724,19.8807793 63.0569351,18.646042 63.0569351,17.10948 L63.0569351,6.05172177 C63.0569351,4.51515983 64.2916724,3.28042255 65.8282343,3.28042255 C66.5965153,3.28042255 67.2001646,2.64933461 67.2001646,1.90849225 C67.2001646,1.16764988 66.5690767,0.536561943 65.8282343,0.536561943 C62.782549,0.536561943 60.3130745,3.00603649 60.3130745,6.05172177 L60.3130745,10.1949513 L54.7979147,10.1949513 L54.7979147,6.05172177 C54.7979147,5.2834408 54.1668267,4.67979147 53.4259844,4.67979147 C52.685142,4.67979147 52.0540541,5.31087941 52.0540541,6.05172177 L52.0540541,17.10948 C52.0540541,18.646042 50.8193168,19.8807793 49.2827548,19.8807793 C47.7461929,19.8807793 46.5114556,18.646042 46.5114556,17.10948 L46.5114556,6.05172177 C46.5114556,4.51515983 47.7461929,3.28042255 49.2827548,3.28042255 C50.0510358,3.28042255 50.6546851,2.64933461 50.6546851,1.90849225 C50.6546851,1.16764988 50.0235972,0.536561943 49.2827548,0.536561943 C46.2370696,0.536561943 43.767595,3.00603649 43.767595,6.05172177 L43.767595,10.1949513 L38.2524352,10.1949513 L38.2524352,6.05172177 C38.2524352,5.2834408 37.6213472,4.67979147 36.8805049,4.67979147 C36.1396625,4.67979147 35.5085746,5.31087941 35.5085746,6.05172177 L35.5085746,17.10948 C35.5085746,18.646042 34.2738373,19.8807793 32.7372753,19.8807793 C31.2007134,19.8807793 29.9659761,18.646042 29.9659761,17.10948 L29.9659761,6.05172177 C29.9659761,4.51515983 31.2007134,3.28042255 32.7372753,3.28042255 C33.5055563,3.28042255 34.1092057,2.64933461 34.1092057,1.90849225 C34.1092057,1.16764988 33.4781177,0.536561943 32.7372753,0.536561943 C29.6915901,0.536561943 27.2221155,3.00603649 27.2221155,6.05172177 L27.2221155,10.1949513 L23.078886,10.1949513 C19.2649197,10.1949513 16.1643573,13.2955138 16.1643573,17.10948 L16.1643573,22.6246399 C16.1643573,23.3929208 16.7954452,23.9965702 17.5362876,23.9965702 C18.2771299,23.9965702 18.9082179,23.3654822 18.9082179,22.6246399 L18.9082179,17.10948 C18.9082179,14.8320757 20.7740431,12.9662505 23.0514474,12.9662505 L27.1946769,12.9662505 L27.1946769,17.10948 C27.1946769,20.1551653 29.6641515,22.6246399 32.7098367,22.6246399 C35.755522,22.6246399 38.2249966,20.1551653 38.2249966,17.10948 L38.2249966,12.9662505 L43.7401564,12.9662505 L43.7401564,17.10948 C43.7401564,20.1551653 46.209631,22.6246399 49.2553162,22.6246399 C52.3010015,22.6246399 54.7704761,20.1551653 54.7704761,17.10948 L54.7704761,12.9662505 L60.2856359,12.9662505 L60.2856359,17.10948 C60.2856359,20.1551653 62.7551104,22.6246399 65.8007957,22.6246399 C68.846481,22.6246399 71.3159555,20.1551653 71.3159555,17.10948 L71.3159555,12.9662505 L76.8311154,12.9662505 L76.8311154,17.10948 C76.8311154,20.1551653 79.3005899,22.6246399 82.3462752,22.6246399 C85.3919605,22.6246399 87.861435,20.1551653 87.861435,17.10948 L87.861435,12.9662505 L92.0046646,12.9662505 C94.2820689,12.9662505 96.1478941,14.8320757 96.1478941,17.10948 L96.1478941,22.6246399 C96.1478941,23.3929208 96.778982,23.9965702 97.5198244,23.9965702 C98.2606668,23.9965702 98.8924721,23.3654822 98.8924721,22.6246399 L98.8924721,17.10948 C98.9466319,13.2955138 95.8460694,10.1949513 92.0321032,10.1949513 Z" id="Path" fill="#1A3F39"></path>
                <path d="M45.0846481,39.197558 C35.9201537,39.197558 27.9903965,45.6456304 26.1520099,54.6180546 C24.3136233,63.6179174 29.0330635,72.6452188 37.4567156,76.2671148 C45.8803677,79.8890108 55.7033887,77.090273 60.9441624,69.5446563 L71.3159555,69.5446563 C72.0842365,69.5446563 72.6878859,68.9135684 72.6878859,68.172726 C72.6878859,67.4318837 72.0567979,66.8007957 71.3159555,66.8007957 L62.5356016,66.8007957 C63.7703389,64.2215667 64.4014268,61.3679517 64.4014268,58.5143367 C64.4014268,57.7460557 63.7703389,57.1424064 63.0294965,57.1424064 L46.4565784,57.1424064 L46.4565784,40.5694883 C46.4565784,39.8286459 45.8529291,39.197558 45.0846481,39.197558 Z M61.6575662,59.9137056 C61.465496,62.3557415 60.7246536,64.7154617 59.4899163,66.8282343 L46.4565784,66.8282343 C45.6882974,66.8282343 45.0846481,67.4593223 45.0846481,68.2001646 C45.0846481,68.941007 45.715736,69.5720949 46.4565784,69.5720949 L57.4320209,69.5720949 C52.4656331,75.0872548 44.4261216,76.5963781 37.7585403,73.3037454 C31.1183976,70.0111126 27.469063,62.6850048 28.8409933,55.3863356 C30.2129236,48.0876663 36.3042941,42.5999451 43.6852792,41.9688572 L43.6852792,58.5417753 C43.6852792,59.3100562 44.3163671,59.9137056 45.0572095,59.9137056 L61.6575662,59.9137056 Z" id="Shape" fill="#1A3F39"></path>
                <path d="M76.8311154,43.3407875 L67.3373577,43.3407875 C63.8800933,37.3591714 57.5143367,33.6823981 50.5998079,33.6823981 C49.831527,33.6823981 49.2278776,34.3134861 49.2278776,35.0543284 L49.2278776,52.9991768 C49.2278776,53.7674578 49.8589656,54.3711071 50.5998079,54.3711071 L68.5446563,54.3711071 C69.3129373,54.3711071 69.9165866,53.7400192 69.9165866,52.9991768 C69.9165866,50.6394567 69.4775689,48.3071752 68.6544108,46.0846481 L76.8311154,46.0846481 C77.5993964,46.0846481 78.2030457,45.4535602 78.2030457,44.7127178 C78.2304843,43.9718754 77.5993964,43.3407875 76.8311154,43.3407875 Z M51.9991768,51.6272465 L51.9991768,36.4262587 C56.8283715,36.8378378 61.2459871,39.3621896 64.0721635,43.3407875 L60.2856359,43.3407875 C59.5173549,43.3407875 58.9137056,43.9718754 58.9137056,44.7127178 C58.9137056,45.4809988 59.5447935,46.0846481 60.2856359,46.0846481 L65.6910413,46.0846481 C66.5141995,47.8132803 67.0080944,49.7065441 67.2001646,51.5998079 L51.9991768,51.5998079 L51.9991768,51.6272465 Z" id="Shape" fill="#1A3F39"></path>
                <path d="M90.6601729,50.2553162 C91.4284538,50.2553162 92.0321032,49.6242283 92.0321032,48.8833859 L92.0321032,40.5969269 C92.0321032,39.8286459 91.4010152,39.2249966 90.6601729,39.2249966 L82.3737138,39.2249966 C81.6054328,39.2249966 81.0017835,39.8560845 81.0017835,40.5969269 L81.0017835,48.8833859 C81.0017835,49.6516669 81.6328715,50.2553162 82.3737138,50.2553162 L90.6601729,50.2553162 Z M83.7456441,41.9688572 L89.260804,41.9688572 L89.260804,47.484017 L83.7456441,47.484017 L83.7456441,41.9688572 Z" id="Shape" fill="#1A3F39"></path>
                <path d="M75.4591851,65.4288654 L75.4591851,70.9440252 C75.4591851,71.7123062 76.090273,72.3159555 76.8311154,72.3159555 L90.6327343,72.3159555 C91.4010152,72.3159555 92.0046646,71.6848676 92.0046646,70.9440252 C92.0046646,70.2031829 91.3735766,69.5720949 90.6327343,69.5720949 L78.2030457,69.5720949 L78.2030457,66.8007957 L90.6327343,66.8007957 C91.4010152,66.8007957 92.0046646,66.1697078 92.0046646,65.4288654 C92.0046646,64.6605844 91.3735766,64.0569351 90.6327343,64.0569351 L76.8311154,64.0569351 C76.090273,64.0569351 75.4591851,64.6605844 75.4591851,65.4288654 Z" id="Path" fill="#1A3F39"></path>
            </g>
            <g id="Group" filter="url(#filter-1)" transform="translate(15.258883, 0.000000)"></g>
        </g>
    </g>
</svg>