<?xml version="1.0" encoding="UTF-8"?>
<svg width="37px" height="30px" viewBox="0 0 37 30" version="1.1" xmlns="http://www.w3.org/2000/svg" xmlns:xlink="http://www.w3.org/1999/xlink">
    <!-- Generator: Sketch 56.2 (81672) - https://sketch.com -->
    <title>icon_tw</title>
    <desc>Created with Sketch.</desc>
    <g id="Page-1" stroke="none" stroke-width="1" fill="none" fill-rule="evenodd">
        <g id="go_website_2019_hover" transform="translate(-1269.000000, -4366.000000)" fill="#C2CE4B" fill-rule="nonzero">
            <g id="icon_tw" transform="translate(1269.000000, 4366.000000)">
                <path d="M36.4285714,3.48576471 C35.0877976,4.07288235 33.6491667,4.47105882 32.137619,4.64882353 C33.6810119,3.73547059 34.8624405,2.28676471 35.422381,0.565823529 C33.9746429,1.41164706 32.3766071,2.02582353 30.673869,2.35876471 C29.3103571,0.921294118 27.3708929,0.0259411765 25.2197024,0.0259411765 C21.0926786,0.0259411765 17.7464286,3.33282353 17.7464286,7.40905882 C17.7464286,7.98717647 17.8124405,8.55182353 17.9399405,9.09176471 C11.7300595,8.78352941 6.22357143,5.84335294 2.53815476,1.37564706 C1.89392857,2.46447059 1.52744048,3.73317647 1.52744048,5.08747059 C1.52744048,7.64976471 2.8477381,9.91058824 4.85095238,11.2332941 C3.62625,11.1928235 2.47440476,10.8598824 1.4660119,10.3064706 L1.4660119,10.3987059 C1.4660119,13.9755294 4.04285714,16.9607059 7.45964286,17.6401176 C6.83363095,17.8065882 6.1735119,17.8988235 5.49059524,17.8988235 C5.00803571,17.8988235 4.54136905,17.8515882 4.08380952,17.7615882 C5.03529762,20.6972941 7.79428571,22.8321176 11.0631548,22.8906471 C8.50678571,24.8702941 5.28345238,26.0468235 1.78244048,26.0468235 C1.17922619,26.0468235 0.585059524,26.0108235 5.95238095e-05,25.9455882 C3.30761905,28.0444706 7.23434524,29.2682353 11.4547024,29.2682353 C25.2016071,29.2682353 32.7158929,18.0158235 32.7158929,8.25717647 L32.6908333,7.30111765 C34.1590476,6.26623529 35.4292262,4.966 36.4285714,3.48576471 Z" id="Path"></path>
            </g>
        </g>
    </g>
</svg>