<?xml version="1.0" encoding="UTF-8"?>
<svg width="36px" height="36px" viewBox="0 0 36 36" version="1.1" xmlns="http://www.w3.org/2000/svg" xmlns:xlink="http://www.w3.org/1999/xlink">
    <!-- Generator: Sketch 57 (83077) - https://sketch.com -->
    <title>sm_icon_logs</title>
    <desc>Created with Sketch.</desc>
    <g id="Page-1" stroke="none" stroke-width="1" fill="none" fill-rule="evenodd">
        <g id="sm_icon_logs" fill="#C2CE4B" fill-rule="nonzero">
            <path d="M35.3224119,11.9843897 L30.5262758,11.9843897 C30.1930455,11.9843897 29.9312217,12.2581146 29.9312217,12.5794439 C29.9312217,12.9007731 30.2049466,13.174498 30.5262758,13.174498 L34.7154567,13.174498 L34.7154567,32.9421955 C34.7154567,33.9299853 33.9061831,34.7392589 32.9183933,34.7392589 L2.98717163,34.7392589 C1.9993818,34.7392589 1.19010822,33.9299853 1.19010822,32.9421955 L1.19010822,13.174498 L25.7420407,13.174498 C26.075271,13.174498 26.3370948,12.9007731 26.3370948,12.5794439 C26.3370948,12.2581146 26.06337,11.9843897 25.7420407,11.9843897 L0.595054109,11.9843897 C0.261823808,11.9843897 -2.30215846e-12,12.2581146 -2.30215846e-12,12.5794439 L-2.30215846e-12,32.9421955 C-2.30215846e-12,34.5964459 1.34482229,35.9412682 2.99907271,35.9412682 L32.9421955,35.9412682 C34.5964459,35.9412682 35.9412682,34.5964459 35.9412682,32.9421955 L35.9412682,12.5794439 C35.9293671,12.2462136 35.6556422,11.9843897 35.3224119,11.9843897 Z" id="Path"></path>
            <path d="M32.9302944,4.18918092 L31.133231,4.18918092 L31.133231,2.39211752 C31.133231,2.05888722 30.8595061,1.79706341 30.5381769,1.79706341 C30.2168476,1.79706341 29.9431227,2.0707883 29.9431227,2.39211752 L29.9431227,7.18825363 C29.9431227,7.85471423 29.407574,8.39026293 28.7411134,8.39026293 C28.0746528,8.39026293 27.5391041,7.85471423 27.5391041,7.18825363 L27.5391041,2.39211752 C27.5391041,1.72565691 28.0746528,1.19010822 28.7411134,1.19010822 C29.0743437,1.19010822 29.3361676,0.916383327 29.3361676,0.595054109 C29.3361676,0.27372489 29.0624427,-3.48165941e-13 28.7411134,-3.48165941e-13 C27.4200933,-3.48165941e-13 26.3489959,1.0710974 26.3489959,2.39211752 L26.3489959,4.18918092 L23.9568784,4.18918092 L23.9568784,2.39211752 C23.9568784,2.05888722 23.6831535,1.79706341 23.3618243,1.79706341 C23.0404951,1.79706341 22.7667702,2.0707883 22.7667702,2.39211752 L22.7667702,7.18825363 C22.7667702,7.85471423 22.2312215,8.39026293 21.5647609,8.39026293 C20.8983003,8.39026293 20.3627516,7.85471423 20.3627516,7.18825363 L20.3627516,2.39211752 C20.3627516,1.72565691 20.8983003,1.19010822 21.5647609,1.19010822 C21.8979912,1.19010822 22.159815,0.916383327 22.159815,0.595054109 C22.159815,0.27372489 21.8860901,-3.48165941e-13 21.5647609,-3.48165941e-13 C20.2437408,-3.48165941e-13 19.1726434,1.0710974 19.1726434,2.39211752 L19.1726434,4.18918092 L16.7805259,4.18918092 L16.7805259,2.39211752 C16.7805259,2.05888722 16.506801,1.79706341 16.1854718,1.79706341 C15.8641425,1.79706341 15.5904176,2.0707883 15.5904176,2.39211752 L15.5904176,7.18825363 C15.5904176,7.85471423 15.0548689,8.39026293 14.3884083,8.39026293 C13.7219477,8.39026293 13.186399,7.85471423 13.186399,7.18825363 L13.186399,2.39211752 C13.186399,1.72565691 13.7219477,1.19010822 14.3884083,1.19010822 C14.7216386,1.19010822 14.9834625,0.916383327 14.9834625,0.595054109 C14.9834625,0.27372489 14.7097376,-3.48165941e-13 14.3884083,-3.48165941e-13 C13.0673882,-3.48165941e-13 11.9962908,1.0710974 11.9962908,2.39211752 L11.9962908,4.18918092 L9.60417331,4.18918092 L9.60417331,2.39211752 C9.60417331,2.05888722 9.33044842,1.79706341 9.0091192,1.79706341 C8.68778999,1.79706341 8.4140651,2.0707883 8.4140651,2.39211752 L8.4140651,7.18825363 C8.4140651,7.85471423 7.8785164,8.39026293 7.2120558,8.39026293 C6.54559519,8.39026293 6.0100465,7.85471423 6.0100465,7.18825363 L6.0100465,2.39211752 C6.0100465,1.72565691 6.54559519,1.19010822 7.2120558,1.19010822 C7.5452861,1.19010822 7.8071099,0.916383327 7.8071099,0.595054109 C7.8071099,0.27372489 7.53338501,-3.48165941e-13 7.2120558,-3.48165941e-13 C5.89103568,-3.48165941e-13 4.81993828,1.0710974 4.81993828,2.39211752 L4.81993828,4.18918092 L3.02287487,4.18918092 C1.36862445,4.18918092 0.0238021643,5.53400321 0.0238021643,7.18825363 L0.0238021643,9.58037115 C0.0238021643,9.91360145 0.297527054,10.1754253 0.618856273,10.1754253 C0.940185492,10.1754253 1.21391038,9.90170037 1.21391038,9.58037115 L1.21391038,7.18825363 C1.21391038,6.20046381 2.02318397,5.39119022 3.01097379,5.39119022 L4.8080372,5.39119022 L4.8080372,7.18825363 C4.8080372,8.50927375 5.87913459,9.58037115 7.20015471,9.58037115 C8.52117484,9.58037115 9.59227223,8.50927375 9.59227223,7.18825363 L9.59227223,5.39119022 L11.9843897,5.39119022 L11.9843897,7.18825363 C11.9843897,8.50927375 13.0554871,9.58037115 14.3765073,9.58037115 C15.6975274,9.58037115 16.7686248,8.50927375 16.7686248,7.18825363 L16.7686248,5.39119022 L19.1607423,5.39119022 L19.1607423,7.18825363 C19.1607423,8.50927375 20.2318397,9.58037115 21.5528598,9.58037115 C22.8738799,9.58037115 23.9449773,8.50927375 23.9449773,7.18825363 L23.9449773,5.39119022 L26.3370948,5.39119022 L26.3370948,7.18825363 C26.3370948,8.50927375 27.4081922,9.58037115 28.7292124,9.58037115 C30.0502325,9.58037115 31.1213299,8.50927375 31.1213299,7.18825363 L31.1213299,5.39119022 L32.9183933,5.39119022 C33.9061831,5.39119022 34.7154567,6.20046381 34.7154567,7.18825363 L34.7154567,9.58037115 C34.7154567,9.91360145 34.9891816,10.1754253 35.3105108,10.1754253 C35.63184,10.1754253 35.9058761,9.90170037 35.9058761,9.58037115 L35.9058761,7.18825363 C35.9293671,5.53400321 34.5845448,4.18918092 32.9302944,4.18918092 Z" id="Path"></path>
            <path d="M12.5675428,16.7686248 C8.59258133,16.7686248 5.15316858,19.5653791 4.35579607,23.457033 C3.55842357,27.3605879 5.6054097,31.2760439 9.25904193,32.8469868 C12.9126742,34.4179296 17.1732616,33.2040193 19.4463683,29.9312217 L23.9449773,29.9312217 C24.2782076,29.9312217 24.5400314,29.6574968 24.5400314,29.3361676 C24.5400314,29.0148383 24.2663065,28.7411134 23.9449773,28.7411134 L20.136631,28.7411134 C20.6721797,27.6224117 20.9459046,26.3846992 20.9459046,25.1469866 C20.9459046,24.8137563 20.6721797,24.5519325 20.3508505,24.5519325 L13.1625969,24.5519325 L13.1625969,17.3636789 C13.1625969,17.0423497 12.9007731,16.7686248 12.5675428,16.7686248 Z M19.7557964,25.7539418 C19.6724888,26.8131381 19.3511596,27.8366312 18.8156109,28.7530145 L13.1625969,28.7530145 C12.8293666,28.7530145 12.5675428,29.0267394 12.5675428,29.3480686 C12.5675428,29.6693979 12.8412677,29.9431227 13.1625969,29.9431227 L17.9230298,29.9431227 C15.7689339,32.3352403 12.2819168,32.9897998 9.38995383,31.5616699 C6.50989195,30.1335401 4.92704802,26.9559511 5.52210213,23.7902633 C6.11715624,20.6245754 8.75919648,18.244359 11.9605876,17.9706341 L11.9605876,25.1588877 C11.9605876,25.492118 12.2343125,25.7539418 12.5556417,25.7539418 L19.7557964,25.7539418 Z" id="Shape"></path>
            <path d="M26.3370948,18.5656882 L22.2193204,18.5656882 C20.7197841,15.9712523 17.958733,14.3765073 14.9596603,14.3765073 C14.62643,14.3765073 14.3646062,14.6502322 14.3646062,14.9715614 L14.3646062,22.7548691 C14.3646062,23.0880994 14.6383311,23.3499232 14.9596603,23.3499232 L22.742968,23.3499232 C23.0761983,23.3499232 23.3380221,23.0761983 23.3380221,22.7548691 C23.3380221,21.731376 23.1476048,20.7197841 22.7905724,19.7557964 L26.3370948,19.7557964 C26.6703251,19.7557964 26.932149,19.4820715 26.932149,19.1607423 C26.94405,18.8394131 26.6703251,18.5656882 26.3370948,18.5656882 Z M15.5666155,22.159815 L15.5666155,15.5666155 C17.6612059,15.7451317 19.5772802,16.8400313 20.8030916,18.5656882 L19.1607423,18.5656882 C18.827512,18.5656882 18.5656882,18.8394131 18.5656882,19.1607423 C18.5656882,19.4939726 18.8394131,19.7557964 19.1607423,19.7557964 L21.5052555,19.7557964 C21.8622879,20.5055646 22.0765074,21.3267393 22.159815,22.1479139 L15.5666155,22.1479139 L15.5666155,22.159815 Z" id="Shape"></path>
            <path d="M32.3352403,21.5647609 C32.6684706,21.5647609 32.9302944,21.291036 32.9302944,20.9697068 L32.9302944,17.37558 C32.9302944,17.0423497 32.6565695,16.7805259 32.3352403,16.7805259 L28.7411134,16.7805259 C28.4078831,16.7805259 28.1460593,17.0542508 28.1460593,17.37558 L28.1460593,20.9697068 C28.1460593,21.3029371 28.4197842,21.5647609 28.7411134,21.5647609 L32.3352403,21.5647609 Z M29.3361676,17.9706341 L31.7282851,17.9706341 L31.7282851,20.3627516 L29.3361676,20.3627516 L29.3361676,17.9706341 Z" id="Shape"></path>
            <path d="M25.7420407,28.1460593 L25.7420407,30.5381769 C25.7420407,30.8714072 26.0157656,31.133231 26.3370948,31.133231 L32.3233392,31.133231 C32.6565695,31.133231 32.9183933,30.8595061 32.9183933,30.5381769 C32.9183933,30.2168476 32.6446684,29.9431227 32.3233392,29.9431227 L26.932149,29.9431227 L26.932149,28.7411134 L32.3233392,28.7411134 C32.6565695,28.7411134 32.9183933,28.4673886 32.9183933,28.1460593 C32.9183933,27.812829 32.6446684,27.5510052 32.3233392,27.5510052 L26.3370948,27.5510052 C26.0157656,27.5510052 25.7420407,27.812829 25.7420407,28.1460593 Z" id="Path"></path>
        </g>
    </g>
</svg>