<?xml version="1.0" encoding="UTF-8"?>
<svg width="36px" height="36px" viewBox="0 0 36 36" version="1.1" xmlns="http://www.w3.org/2000/svg" xmlns:xlink="http://www.w3.org/1999/xlink">
    <!-- Generator: Sketch 57 (83077) - https://sketch.com -->
    <title>sm_icon_everywhere</title>
    <desc>Created with Sketch.</desc>
    <g id="Page-1" stroke="none" stroke-width="1" fill="none" fill-rule="evenodd">
        <path d="M34.3728814,16.3451464 C33.7072419,16.3451464 33.1432974,16.751926 32.9029276,17.3343606 L21.0785824,17.3343606 L21.0785824,15.9476117 L26.3020031,15.9476117 C26.459168,15.9476117 26.6070878,15.8828968 26.7180277,15.7719569 L27.9198767,14.5701079 C28.1325116,14.6810478 28.3728814,14.7365177 28.6317411,14.7365177 C29.5100154,14.7365177 30.2218798,14.0246533 30.2218798,13.146379 C30.2218798,12.2681048 29.5100154,11.5562404 28.6317411,11.5562404 C27.7534669,11.5562404 27.0416025,12.2681048 27.0416025,13.146379 C27.0416025,13.3312789 27.0785824,13.5069337 27.1340524,13.6640986 L26.0523883,14.7457627 L21.0785824,14.7457627 L21.0785824,13.1001541 L22.1787365,12 C22.3728814,12.0924499 22.5947612,12.1386749 22.825886,12.1386749 C23.7041602,12.1386749 24.4160247,11.4268105 24.4160247,10.5485362 C24.4160247,9.67026194 23.7041602,8.95839753 22.825886,8.95839753 C21.9476117,8.95839753 21.2357473,9.67026194 21.2357473,10.5485362 C21.2357473,10.761171 21.2727273,10.9553159 21.3466872,11.1402157 L20.0616333,12.4252696 C19.9506934,12.5362096 19.8859784,12.6841294 19.8859784,12.8412943 L19.8859784,14.7365177 L18.4992296,14.7365177 L18.4992296,3.06009245 C19.0816641,2.81972265 19.4884438,2.25577812 19.4884438,1.59013867 C19.4884438,0.711864407 18.7765794,0 17.8983051,0 C17.0200308,0 16.3081664,0.711864407 16.3081664,1.59013867 C16.3081664,2.25577812 16.7149461,2.81972265 17.2973806,3.06009245 L17.2973806,14.7365177 L15.9106317,14.7365177 L15.9106317,9.66101695 C15.9106317,9.50385208 15.8459168,9.3559322 15.7349769,9.2449923 L14.5331279,8.0431433 C14.6440678,7.83050847 14.6995378,7.59013867 14.6995378,7.33127889 C14.6995378,6.45300462 13.9876733,5.74114022 13.1093991,5.74114022 C12.2311248,5.74114022 11.5192604,6.45300462 11.5192604,7.33127889 C11.5192604,8.20955316 12.2311248,8.92141757 13.1093991,8.92141757 C13.2942989,8.92141757 13.4699538,8.8844376 13.6271186,8.82896764 L14.7087827,9.91063174 L14.7087827,14.7457627 L9.87365177,14.7457627 L8.79198767,13.6640986 C8.84745763,13.4976888 8.8844376,13.3312789 8.8844376,13.146379 C8.8844376,12.2681048 8.17257319,11.5562404 7.29429892,11.5562404 C6.41602465,11.5562404 5.70416025,12.2681048 5.70416025,13.146379 C5.70416025,14.0246533 6.41602465,14.7365177 7.29429892,14.7365177 C7.55315871,14.7365177 7.79352851,14.6718028 8.00616333,14.5701079 L9.20801233,15.7719569 C9.31895223,15.8828968 9.46687211,15.9476117 9.62403698,15.9476117 L14.6995378,15.9476117 L14.6995378,17.3343606 L3.06009245,17.3343606 C2.81972265,16.751926 2.25577812,16.3451464 1.59013867,16.3451464 C0.711864407,16.3451464 0,17.0570108 0,17.9352851 C0,18.8135593 0.711864407,19.5254237 1.59013867,19.5254237 C2.25577812,19.5254237 2.81972265,19.1186441 3.06009245,18.5362096 L14.7365177,18.5362096 L14.7365177,19.9229584 L12.8412943,19.9229584 C12.6841294,19.9229584 12.5362096,19.9876733 12.4252696,20.0986133 L11.1402157,21.3836672 C10.9553159,21.3097072 10.761171,21.2727273 10.5485362,21.2727273 C9.67026194,21.2727273 8.95839753,21.9845917 8.95839753,22.8628659 C8.95839753,23.7411402 9.67026194,24.4530046 10.5485362,24.4530046 C11.4268105,24.4530046 12.1386749,23.7411402 12.1386749,22.8628659 C12.1386749,22.6317411 12.0924499,22.4191063 12,22.2157165 L13.1001541,21.1155624 L14.7457627,21.1155624 L14.7457627,26.0893683 L13.6640986,27.1710324 C13.4976888,27.1155624 13.3312789,27.0785824 13.146379,27.0785824 C12.2681048,27.0785824 11.5562404,27.7904468 11.5562404,28.6687211 C11.5562404,29.5469954 12.2681048,30.2588598 13.146379,30.2588598 C14.0246533,30.2588598 14.7365177,29.5469954 14.7365177,28.6687211 C14.7365177,28.4098613 14.6718028,28.1694915 14.5701079,27.9568567 L15.7719569,26.7550077 C15.8828968,26.6440678 15.9476117,26.4961479 15.9476117,26.3389831 L15.9476117,21.1155624 L17.3343606,21.1155624 L17.3343606,32.9399076 C16.751926,33.1802773 16.3451464,33.7442219 16.3451464,34.4098613 C16.3451464,35.2881356 17.0570108,36 17.9352851,36 C18.8135593,36 19.5254237,35.2881356 19.5254237,34.4098613 C19.5254237,33.7442219 19.1186441,33.1802773 18.5362096,32.9399076 L18.5362096,21.1155624 L19.9229584,21.1155624 L19.9229584,23.1494607 C19.9229584,23.3066256 19.9876733,23.4545455 20.0986133,23.5654854 L21.3836672,24.8505393 C21.3097072,25.0354391 21.2727273,25.229584 21.2727273,25.4422188 C21.2727273,26.3204931 21.9845917,27.0323575 22.8628659,27.0323575 C23.7411402,27.0323575 24.4530046,26.3204931 24.4530046,25.4422188 C24.4530046,24.5639445 23.7411402,23.8520801 22.8628659,23.8520801 C22.6317411,23.8520801 22.4191063,23.8983051 22.2157165,23.990755 L21.1155624,22.8906009 L21.1155624,21.1063174 L22.8998459,21.1063174 L24,22.2064715 C23.9075501,22.4006163 23.8613251,22.6224961 23.8613251,22.853621 C23.8613251,23.7318952 24.5731895,24.4437596 25.4514638,24.4437596 C26.3297381,24.4437596 27.0416025,23.7318952 27.0416025,22.853621 C27.0416025,21.9753467 26.3297381,21.2634823 25.4514638,21.2634823 C25.238829,21.2634823 25.0446841,21.3004622 24.8597843,21.3744222 L23.5747304,20.0893683 C23.4637904,19.9784284 23.3158706,19.9137134 23.1587057,19.9137134 L21.1248074,19.9137134 L21.1248074,18.5269646 L32.9029276,18.5269646 C33.1432974,19.1093991 33.7072419,19.5161787 34.3728814,19.5161787 C35.2511556,19.5161787 35.96302,18.8043143 35.96302,17.9260401 C35.96302,17.0477658 35.2419106,16.3451464 34.3728814,16.3451464 L34.3728814,16.3451464 Z M28.6317411,12.7580894 C28.853621,12.7580894 29.0292758,12.9337442 29.0292758,13.155624 C29.0292758,13.3775039 28.853621,13.5531587 28.6317411,13.5531587 C28.4098613,13.5531587 28.2342065,13.3775039 28.2342065,13.155624 C28.2342065,12.9337442 28.4191063,12.7580894 28.6317411,12.7580894 Z M22.825886,10.1694915 C23.0477658,10.1694915 23.2234206,10.3451464 23.2234206,10.5670262 C23.2234206,10.788906 23.0477658,10.9645609 22.825886,10.9645609 C22.6040062,10.9645609 22.4283513,10.788906 22.4283513,10.5670262 C22.4283513,10.3451464 22.6040062,10.1694915 22.825886,10.1694915 Z M17.9075501,1.21109399 C18.1294299,1.21109399 18.3050847,1.38674884 18.3050847,1.60862866 C18.3050847,1.83050847 18.1294299,2.00616333 17.9075501,2.00616333 C17.6856703,2.00616333 17.5100154,1.83050847 17.5100154,1.60862866 C17.5100154,1.38674884 17.6856703,1.21109399 17.9075501,1.21109399 Z M12.7395994,7.34052388 C12.7395994,7.11864407 12.9152542,6.94298921 13.1371341,6.94298921 C13.3590139,6.94298921 13.5346687,7.11864407 13.5346687,7.34052388 C13.5346687,7.5624037 13.3590139,7.73805855 13.1371341,7.73805855 C12.9152542,7.73805855 12.7395994,7.5624037 12.7395994,7.34052388 Z M7.3220339,13.5531587 C7.10015408,13.5531587 6.92449923,13.3775039 6.92449923,13.155624 C6.92449923,12.9337442 7.10015408,12.7580894 7.3220339,12.7580894 C7.54391371,12.7580894 7.71956857,12.9337442 7.71956857,13.155624 C7.71956857,13.3682589 7.54391371,13.5531587 7.3220339,13.5531587 Z M1.59013867,18.3235747 C1.36825886,18.3235747 1.19260401,18.1479199 1.19260401,17.9260401 C1.19260401,17.7041602 1.36825886,17.5285054 1.59013867,17.5285054 C1.81201849,17.5285054 1.98767334,17.7041602 1.98767334,17.9260401 C1.98767334,18.1479199 1.8027735,18.3235747 1.59013867,18.3235747 Z M10.5485362,23.2419106 C10.3266564,23.2419106 10.1510015,23.0662558 10.1510015,22.844376 C10.1510015,22.6224961 10.3266564,22.4468413 10.5485362,22.4468413 C10.770416,22.4468413 10.9460709,22.6224961 10.9460709,22.844376 C10.9460709,23.0570108 10.761171,23.2419106 10.5485362,23.2419106 Z M13.1371341,29.0477658 C12.9152542,29.0477658 12.7395994,28.8721109 12.7395994,28.6502311 C12.7395994,28.4283513 12.9152542,28.2526965 13.1371341,28.2526965 C13.3590139,28.2526965 13.5346687,28.4283513 13.5346687,28.6502311 C13.5346687,28.8721109 13.3497689,29.0477658 13.1371341,29.0477658 Z M17.9075501,34.788906 C17.6856703,34.788906 17.5100154,34.6132512 17.5100154,34.3913713 C17.5100154,34.1694915 17.6856703,33.9938367 17.9075501,33.9938367 C18.1294299,33.9938367 18.3050847,34.1694915 18.3050847,34.3913713 C18.3050847,34.6040062 18.1294299,34.788906 17.9075501,34.788906 Z M23.2234206,25.4329738 C23.2234206,25.6548536 23.0477658,25.8305085 22.825886,25.8305085 C22.6040062,25.8305085 22.4283513,25.6548536 22.4283513,25.4329738 C22.4283513,25.211094 22.6040062,25.0354391 22.825886,25.0354391 C23.0477658,25.0354391 23.2234206,25.211094 23.2234206,25.4329738 Z M25.8120185,22.844376 C25.8120185,23.0662558 25.6363636,23.2419106 25.4144838,23.2419106 C25.192604,23.2419106 25.0169492,23.0662558 25.0169492,22.844376 C25.0169492,22.6224961 25.192604,22.4468413 25.4144838,22.4468413 C25.6271186,22.4468413 25.8120185,22.6224961 25.8120185,22.844376 Z M19.8859784,15.9476117 L19.8859784,17.3343606 L18.4992296,17.3343606 L18.4992296,15.9476117 L19.8859784,15.9476117 Z M15.9291217,15.9476117 L17.3158706,15.9476117 L17.3158706,17.3343606 L15.9291217,17.3343606 L15.9291217,15.9476117 Z M15.9291217,19.9137134 L15.9291217,18.5269646 L17.3158706,18.5269646 L17.3158706,19.9137134 L15.9291217,19.9137134 Z M19.8859784,19.9137134 L18.4992296,19.9137134 L18.4992296,18.5269646 L19.8859784,18.5269646 L19.8859784,19.9137134 Z M34.3728814,18.3235747 C34.1510015,18.3235747 33.9753467,18.1479199 33.9753467,17.9260401 C33.9753467,17.7041602 34.1510015,17.5285054 34.3728814,17.5285054 C34.5947612,17.5285054 34.770416,17.7041602 34.770416,17.9260401 C34.770416,18.1479199 34.5855162,18.3235747 34.3728814,18.3235747 Z" id="sm_icon_everywhere" fill="#C2CE4B" fill-rule="nonzero"></path>
    </g>
</svg>