<?xml version="1.0" encoding="UTF-8"?>
<svg width="30px" height="36px" viewBox="0 0 30 36" version="1.1" xmlns="http://www.w3.org/2000/svg" xmlns:xlink="http://www.w3.org/1999/xlink">
    <!-- Generator: Sketch 57 (83077) - https://sketch.com -->
    <title>sm_icon_saftey</title>
    <desc>Created with Sketch.</desc>
    <g id="Page-1" stroke="none" stroke-width="1" fill="none" fill-rule="evenodd">
        <g id="sm_icon_saftey" fill="#C2CE4B" fill-rule="nonzero">
            <path d="M14.8341176,4.69058824 C15.2364706,4.73294118 15.5858824,4.41529412 15.5858824,4.01294118 C15.5858824,3.63176471 15.2788235,3.33529412 14.9082353,3.33529412 C14.5270588,3.33529412 14.2305882,3.64235294 14.2305882,4.01294118 C14.22,4.37294118 14.4847059,4.65882353 14.8341176,4.69058824 Z" id="Path"></path>
            <path d="M28.5564706,4.70117647 C26.6717647,4.70117647 25.1470588,3.16588235 25.1470588,1.29176471 C25.1470588,0.910588235 24.84,0.614117647 24.4694118,0.614117647 L5.35764706,0.614117647 C4.97647059,0.614117647 4.68,0.921176471 4.68,1.29176471 C4.68,3.17647059 3.14470588,4.70117647 1.27058824,4.70117647 C0.889411765,4.70117647 0.592941176,5.00823529 0.592941176,5.37882353 L0.592941176,16.5176471 C0.592941176,25.2 6.24705882,32.9823529 14.7282353,35.5235294 C14.7917647,35.5447059 14.8552941,35.5552941 14.9294118,35.5552941 C15.0035294,35.5552941 15.0564706,35.5447059 15.1305882,35.5235294 C23.4317647,33.0352941 29.2658824,25.3905882 29.2658824,16.5176471 L29.2658824,5.37882353 C29.2447059,5.00823529 28.9376471,4.70117647 28.5564706,4.70117647 Z M27.8788235,16.5176471 C27.8788235,24.6705882 22.68,31.7329412 14.9082353,34.1576471 C7.2,31.7541176 1.93764706,24.6282353 1.93764706,16.5176471 L1.93764706,6.01411765 C4.02352941,5.71764706 5.68588235,4.05529412 5.98235294,1.96941176 L23.8341176,1.96941176 C24.1305882,4.05529412 25.7929412,5.71764706 27.8788235,6.01411765 L27.8788235,16.5176471 Z" id="Shape"></path>
            <path d="M22.9341176,3.73764706 C22.8282353,3.49411765 22.5847059,3.32470588 22.3094118,3.32470588 L17.64,3.32470588 C17.2588235,3.32470588 16.9623529,3.63176471 16.9623529,4.00235294 C16.9623529,4.37294118 17.2694118,4.68 17.64,4.68 L21.8752941,4.68 C22.5952941,6.08823529 23.7388235,7.23176471 25.1470588,7.95176471 L25.1470588,16.4964706 C25.1470588,23.1776471 21.1341176,28.9376471 14.9082353,31.2458824 C8.68235294,28.9376471 4.66941176,23.1776471 4.66941176,16.4964706 L4.66941176,7.95176471 C6.07764706,7.23176471 7.22117647,6.08823529 7.94117647,4.68 L12.1764706,4.68 C12.5576471,4.68 12.8541176,4.37294118 12.8541176,4.00235294 C12.8541176,3.63176471 12.5470588,3.32470588 12.1764706,3.32470588 L7.50705882,3.32470588 C7.23176471,3.32470588 6.98823529,3.48352941 6.88235294,3.73764706 C6.25764706,5.15647059 5.13529412,6.28941176 3.70588235,6.91411765 C3.46235294,7.02 3.29294118,7.26352941 3.29294118,7.53882353 L3.29294118,16.5176471 C3.29294118,23.8341176 7.82470588,30.2188235 14.6752941,32.6435294 C14.7494118,32.6647059 14.8235294,32.6858824 14.9082353,32.6858824 C14.9929412,32.6858824 15.0670588,32.6752941 15.1411765,32.6435294 C21.9811765,30.2188235 26.5235294,23.8447059 26.5235294,16.5176471 L26.5235294,7.53882353 C26.5235294,7.26352941 26.3647059,7.02 26.1105882,6.91411765 C24.6811765,6.28941176 23.5482353,5.16705882 22.9341176,3.73764706 Z" id="Path"></path>
            <path d="M8.76705882,16.7188235 C8.76705882,20.1070588 11.52,22.86 14.9082353,22.86 C18.2964706,22.86 21.0494118,20.1070588 21.0494118,16.7188235 C21.0494118,13.3305882 18.2964706,10.5776471 14.9082353,10.5776471 C11.52,10.5776471 8.76705882,13.3305882 8.76705882,16.7188235 Z M19.6835294,16.7188235 C19.6835294,19.3552941 17.5447059,21.4941176 14.9082353,21.4941176 C12.2717647,21.4941176 10.1329412,19.3552941 10.1329412,16.7188235 C10.1329412,14.0823529 12.2717647,11.9434905 14.9082353,11.9434905 C17.5447059,11.9329412 19.6835294,14.0823529 19.6835294,16.7188235 Z" id="Shape"></path>
            <path d="M13.3411765,16.9094118 C13.0764706,16.6447059 12.6423529,16.6447059 12.3776471,16.9094118 C12.1129412,17.1741176 12.1129412,17.6082353 12.3776471,17.8729412 L13.7435294,19.2388235 C13.8811765,19.3764706 14.0505882,19.44 14.2305882,19.44 C14.4105882,19.44 14.58,19.3764706 14.7176471,19.2388235 L18.1270588,15.8294118 C18.3917647,15.5647059 18.3917647,15.1305882 18.1270588,14.8658824 C17.8623529,14.6011765 17.4282353,14.6011765 17.1635294,14.8658824 L14.2305882,17.7988235 L13.3411765,16.9094118 Z" id="Path"></path>
        </g>
    </g>
</svg>