<?xml version="1.0" encoding="UTF-8"?>
<svg width="36px" height="36px" viewBox="0 0 36 36" version="1.1" xmlns="http://www.w3.org/2000/svg" xmlns:xlink="http://www.w3.org/1999/xlink">
    <!-- Generator: Sketch 57 (83077) - https://sketch.com -->
    <title>sm_icon_congestion</title>
    <desc>Created with Sketch.</desc>
    <g id="Page-1" stroke="none" stroke-width="1" fill="none" fill-rule="evenodd">
        <g id="sm_icon_congestion" fill="#C2CE4B" fill-rule="nonzero">
            <path d="M13.5345269,19.5076726 L11.9002558,19.5076726 C11.5204604,19.5076726 11.2097187,19.8184143 11.2097187,20.1982097 C11.2097187,20.5780051 11.5204604,20.8887468 11.9002558,20.8887468 L13.5345269,20.8887468 C13.9143223,20.8887468 14.2250639,20.5780051 14.2250639,20.1982097 C14.2365729,19.8184143 13.9258312,19.5076726 13.5345269,19.5076726 Z" id="Path"></path>
            <path d="M35.528133,25.3081841 C35.528133,25.3081841 35.528133,25.3081841 35.528133,25.3081841 L32.0179028,19.887468 C31.6035806,19.2429668 30.9015345,18.8631714 30.1419437,18.8631714 L26.7352941,18.8631714 L26.7352941,14.9731458 L27.7480818,14.9731458 C28.5767263,14.9731458 29.2442455,14.3056266 29.2442455,13.4769821 L29.2442455,9.71355499 C29.2442455,8.88491049 28.5767263,8.2173913 27.7480818,8.2173913 L26.7352941,8.2173913 L26.7352941,2.62404092 C26.7352941,1.17391304 25.5613811,-1.27897692e-13 24.1112532,-1.27897692e-13 L5.13299233,-1.27897692e-13 C3.68286445,-1.27897692e-13 2.50895141,1.17391304 2.50895141,2.62404092 L2.50895141,8.2173913 L1.49616368,8.2173913 C0.667519182,8.2173913 2.52242671e-12,8.88491049 2.52242671e-12,9.71355499 L2.52242671e-12,13.4769821 C2.52242671e-12,14.3056266 0.667519182,14.9731458 1.49616368,14.9731458 L2.50895141,14.9731458 L2.50895141,20.612532 C2.50895141,22.7992327 4.15473146,24.6176471 6.27237852,24.8938619 L6.27237852,25.6304348 C6.27237852,26.7813299 7.20460358,27.713555 8.35549872,27.713555 C9.50639386,27.713555 10.4386189,26.7813299 10.4386189,25.6304348 L10.4386189,24.9398977 L12.3375959,24.9398977 L12.084399,25.331202 C12.084399,25.331202 12.084399,25.331202 12.084399,25.331202 C12.0153453,25.4347826 11.9693095,25.57289 11.9693095,25.7109974 L11.9693095,30.9245524 C11.9693095,31.9948849 12.8439898,32.8695652 13.9143223,32.8695652 L15.2148338,32.8695652 L15.2148338,33.5601023 C15.2148338,34.7109974 16.1470588,35.6432225 17.297954,35.6432225 C18.4488491,35.6432225 19.3810742,34.7109974 19.3810742,33.5601023 L19.3810742,32.8695652 L28.185422,32.8695652 L28.185422,33.5601023 C28.185422,34.7109974 29.1176471,35.6432225 30.2685422,35.6432225 C31.4194373,35.6432225 32.3516624,34.7109974 32.3516624,33.5601023 L32.3516624,32.8695652 L33.6521739,32.8695652 C34.7225064,32.8695652 35.5971867,31.9948849 35.5971867,30.9245524 L35.5971867,25.7109974 C35.6432225,25.5498721 35.5971867,25.4232737 35.528133,25.3081841 Z M26.7237852,9.60997442 L27.7365729,9.60997442 C27.7941176,9.60997442 27.8401535,9.65601023 27.8401535,9.71355499 L27.8401535,13.4769821 C27.8401535,13.5345269 27.7941176,13.5805627 27.7365729,13.5805627 L26.7237852,13.5805627 L26.7237852,9.60997442 Z M2.50895141,13.5805627 L1.49616368,13.5805627 C1.43861893,13.5805627 1.39258312,13.5345269 1.39258312,13.4769821 L1.39258312,9.71355499 C1.39258312,9.65601023 1.43861893,9.60997442 1.49616368,9.60997442 L2.50895141,9.60997442 L2.50895141,13.5805627 Z M27.8746803,20.2557545 L26.2404092,21.8900256 C25.9641944,22.1662404 25.9641944,22.6035806 26.2404092,22.8797954 C26.3785166,23.0179028 26.5511509,23.0869565 26.7352941,23.0869565 C26.9079284,23.0869565 27.0920716,23.0179028 27.230179,22.8797954 L29.8542199,20.2557545 L30.1534527,20.2557545 C30.4411765,20.2557545 30.7058824,20.4053708 30.8670077,20.6355499 L33.6867008,24.9859335 L20.4053708,24.9859335 L25.112532,20.2787724 C25.1240409,20.2672634 25.1240409,20.2557545 25.1355499,20.2557545 L27.8746803,20.2557545 Z M18.4143223,24.9974425 L13.9488491,24.9974425 L16.7685422,20.6470588 C16.9296675,20.4053708 17.1943734,20.2672634 17.4820972,20.2672634 L23.1560102,20.2672634 L18.4143223,24.9974425 Z M16.7225064,9.54092072 C16.8606138,9.67902813 17.0332481,9.74808184 17.2173913,9.74808184 C17.4015345,9.74808184 17.5741688,9.67902813 17.7122762,9.54092072 L23.0639386,4.18925831 L25.331202,4.18925831 L25.331202,15.5370844 L4.8797954,15.5370844 L16.2276215,4.18925831 L21.0959079,4.18925831 L16.7225064,8.56265985 C16.4578005,8.82736573 16.4578005,9.26470588 16.7225064,9.54092072 Z M3.90153453,2.62404092 C3.90153453,1.94501279 4.45396419,1.39258312 5.13299233,1.39258312 L24.1112532,1.39258312 C24.7902813,1.39258312 25.342711,1.94501279 25.342711,2.62404092 L25.342711,2.78516624 L3.90153453,2.78516624 L3.90153453,2.62404092 Z M3.90153453,4.17774936 L14.2595908,4.17774936 L3.90153453,14.5358056 L3.90153453,4.17774936 Z M9.04603581,25.6189258 C9.04603581,25.9987212 8.73529412,26.3094629 8.35549872,26.3094629 C7.97570332,26.3094629 7.66496164,25.9987212 7.66496164,25.6189258 L7.66496164,24.9283887 L9.05754476,24.9283887 L9.05754476,25.6189258 L9.04603581,25.6189258 Z M6.82480818,23.5358056 C5.21355499,23.5358056 3.90153453,22.2237852 3.90153453,20.612532 L3.90153453,16.9296675 L25.342711,16.9296675 L25.342711,18.8746803 L17.4820972,18.8746803 C16.7225064,18.8746803 16.0204604,19.2544757 15.6061381,19.898977 L13.2468031,23.5473146 L6.82480818,23.5473146 L6.82480818,23.5358056 Z M18.011509,33.5485934 C18.011509,33.9283887 17.7007673,34.2391304 17.3209719,34.2391304 C16.9411765,34.2391304 16.6304348,33.9283887 16.6304348,33.5485934 L16.6304348,32.8580563 L18.0230179,32.8580563 L18.0230179,33.5485934 L18.011509,33.5485934 Z M30.9936061,33.5485934 C30.9936061,33.9283887 30.6828645,34.2391304 30.3030691,34.2391304 C29.9232737,34.2391304 29.612532,33.9283887 29.612532,33.5485934 L29.612532,32.8580563 L31.0051151,32.8580563 L31.0051151,33.5485934 L30.9936061,33.5485934 Z M34.2506394,30.9130435 C34.2506394,31.2237852 33.9974425,31.4654731 33.6982097,31.4654731 L13.9258312,31.4654731 C13.6150895,31.4654731 13.3734015,31.2122762 13.3734015,30.9130435 L13.3734015,26.3900256 L34.2506394,26.3900256 L34.2506394,30.9130435 L34.2506394,30.9130435 Z" id="Shape"></path>
            <path d="M7.89514066,18.1150895 C6.74424552,18.1150895 5.81202046,19.0473146 5.81202046,20.1982097 C5.81202046,21.3491049 6.74424552,22.2813299 7.89514066,22.2813299 C9.04603581,22.2813299 9.97826087,21.3491049 9.97826087,20.1982097 C9.97826087,19.0473146 9.04603581,18.1150895 7.89514066,18.1150895 Z M7.89514066,20.9002558 C7.51534527,20.9002558 7.20460358,20.5895141 7.20460358,20.2097187 C7.20460358,19.8299233 7.51534527,19.5191816 7.89514066,19.5191816 C8.27493606,19.5191816 8.58567775,19.8299233 8.58567775,20.2097187 C8.5971867,20.5895141 8.27493606,20.9002558 7.89514066,20.9002558 Z" id="Shape"></path>
            <path d="M15.8132992,10.4501279 C15.6867008,10.3235294 15.5025575,10.2429668 15.3184143,10.2429668 C15.1342711,10.2429668 14.9501279,10.3120205 14.8235294,10.4501279 C14.6969309,10.5767263 14.6163683,10.7608696 14.6163683,10.9450128 C14.6163683,11.129156 14.685422,11.3132992 14.8235294,11.4398977 C14.9616368,11.5664962 15.1342711,11.6470588 15.3184143,11.6470588 C15.5025575,11.6470588 15.6867008,11.5780051 15.8132992,11.4398977 C15.9398977,11.3017903 16.0204604,11.129156 16.0204604,10.9450128 C16.0204604,10.7608696 15.9398977,10.5767263 15.8132992,10.4501279 Z" id="Path"></path>
            <path d="M26.988491,28.2314578 L20.6355499,28.2314578 C20.2557545,28.2314578 19.9450128,28.5421995 19.9450128,28.9219949 C19.9450128,29.3017903 20.2557545,29.612532 20.6355499,29.612532 L26.988491,29.612532 C27.3682864,29.612532 27.6790281,29.3017903 27.6790281,28.9219949 C27.6790281,28.5421995 27.3682864,28.2314578 26.988491,28.2314578 Z" id="Path"></path>
            <path d="M18.3107417,28.42711 C18.1841432,28.3005115 18,28.2199488 17.8158568,28.2199488 C17.6317136,28.2199488 17.4475703,28.2890026 17.3209719,28.42711 C17.1943734,28.5537084 17.1138107,28.7378517 17.1138107,28.9219949 C17.1138107,29.1061381 17.1828645,29.2902813 17.3209719,29.4168798 C17.4475703,29.5434783 17.6317136,29.6240409 17.8158568,29.6240409 C18,29.6240409 18.1841432,29.5549872 18.3107417,29.4168798 C18.4373402,29.2902813 18.5179028,29.1061381 18.5179028,28.9219949 C18.5179028,28.7378517 18.4373402,28.5652174 18.3107417,28.42711 Z" id="Path"></path>
            <path d="M30.0268542,28.42711 C29.9002558,28.3005115 29.7161125,28.2199488 29.5319693,28.2199488 C29.3478261,28.2199488 29.1751918,28.2890026 29.0370844,28.42711 C28.9104859,28.5537084 28.8299233,28.7378517 28.8299233,28.9219949 C28.8299233,29.1061381 28.898977,29.2902813 29.0370844,29.4168798 C29.1636829,29.5434783 29.3478261,29.6240409 29.5319693,29.6240409 C29.7161125,29.6240409 29.9002558,29.5549872 30.0268542,29.4168798 C30.1534527,29.2902813 30.2340153,29.1061381 30.2340153,28.9219949 C30.2340153,28.7378517 30.1534527,28.5652174 30.0268542,28.42711 Z" id="Path"></path>
        </g>
    </g>
</svg>