<?xml version="1.0" encoding="UTF-8"?>
<svg width="23px" height="36px" viewBox="0 0 23 36" version="1.1" xmlns="http://www.w3.org/2000/svg" xmlns:xlink="http://www.w3.org/1999/xlink">
    <!-- Generator: Sketch 57 (83077) - https://sketch.com -->
    <title>sm_icon_bt</title>
    <desc>Created with Sketch.</desc>
    <g id="Page-1" stroke="none" stroke-width="1" fill="none" fill-rule="evenodd">
        <g id="sm_icon_bt" fill="#C2CE4B" fill-rule="nonzero">
            <path d="M10.7319953,5.40731995 L10.755608,16.1983471 L5.54899646,11.4876033 L4.7107438,12.420307 L10.4604486,17.6151122 L4.6635183,22.7863046 L5.50177096,23.7190083 L10.755608,19.0200708 L10.7319953,30.5430933 L17.2373081,23.2231405 L12.0543093,17.768595 L17.2373081,11.9126328 L10.7319953,5.40731995 Z M15.5135773,11.9834711 L11.9952774,15.9622196 L11.9834711,8.45336482 L15.5135773,11.9834711 Z M11.9834711,27.2609209 L11.9952774,19.5513577 L15.5253837,23.270366 L11.9834711,27.2609209 Z" id="Shape"></path>
            <path d="M11.3577332,0.0236127509 C5.12396694,0.0236127509 0.0472255018,5.10035419 0.0472255018,11.3341204 L0.0472255018,24.5218418 C0.0472255018,30.755608 5.12396694,35.8323495 11.3577332,35.8323495 C17.5914994,35.8323495 22.6682409,30.755608 22.6682409,24.5218418 L22.6682409,11.3341204 C22.6564345,5.08854782 17.5914994,0.0236127509 11.3577332,0.0236127509 Z M21.4049587,24.5100354 C21.4049587,30.0472255 16.8949233,34.5572609 11.3577332,34.5572609 C5.82054309,34.5572609 1.31050767,30.0472255 1.31050767,24.5100354 L1.31050767,11.322314 C1.31050767,5.78512397 5.82054309,1.27508855 11.3577332,1.27508855 C16.8949233,1.27508855 21.4049587,5.78512397 21.4049587,11.322314 L21.4049587,24.5100354 Z" id="Shape"></path>
        </g>
    </g>
</svg>