<?xml version="1.0" encoding="UTF-8"?>
<svg width="721px" height="599px" viewBox="0 0 721 599" version="1.1" xmlns="http://www.w3.org/2000/svg" xmlns:xlink="http://www.w3.org/1999/xlink">
    <!-- Generator: Sketch 56.2 (81672) - https://sketch.com -->
    <title>tree</title>
    <desc>Created with Sketch.</desc>
    <g id="Page-1" stroke="none" stroke-width="1" fill="none" fill-rule="evenodd">
        <g id="go_website_2019_hover" transform="translate(-41.000000, -1880.000000)" fill-rule="nonzero">
            <g id="tree" transform="translate(41.000000, 1880.000000)">
                <path d="M529.379008,518.333832 L527.606473,518.333832 L527.606473,324.377264 C527.608955,322.776972 526.888155,321.261257 525.64527,320.253199 L526.765223,318.878801 C528.421868,320.223059 529.382477,322.243842 529.379008,324.377264 L529.379008,518.333832 Z" id="Path" fill="#3F3D56"></path>
                <path d="M348.815335,20.5904047 C349.273904,21.6367914 349.615703,22.7305487 349.834538,23.8518523 C349.338292,22.1413648 348.948337,20.9803604 348.815335,20.5904047 Z" id="Path" fill="#3F3D56"></path>
                <path d="M364.53764,74.7765199 C364.53764,74.7765199 364.53764,75.9995628 363.217108,80.4131521 L364.53764,74.7765199 Z" id="Path" fill="#3F3D56"></path>
                <path d="M526.36044,259.39395 C491.503719,277.56234 445.905492,293.249194 432.24818,297.795722 C442.66177,295.083758 472.971962,291.432355 519.935034,320.732207 C578.942419,357.538706 642.035477,332.998086 642.035477,332.998086 C642.035477,332.998086 628.014798,359.87844 598.218638,361.624378 C568.422425,363.379179 490.723808,314.306801 464.43725,328.32748 C438.141829,342.34816 425.87595,324.817879 415.356009,359.87844 C404.844931,394.930139 385.568712,490.735161 407.769598,544.487007 L429.961569,598.229991 L303.775453,598.229991 C303.775453,598.229991 349.347093,476.714482 324.221539,401.940479 C310.156547,360.064555 290.410609,329.736638 283.045764,314.324526 C279.350047,306.605176 278.765114,302.634718 283.550934,302.829696 C286.271761,302.94491 290.729663,304.407244 297.350047,307.296461 C297.350047,307.296461 266.968954,277.500301 257.042809,277.500301 C247.107802,277.500301 200.366295,272.829696 185.184612,257.054216 C185.184612,257.054216 163.568659,241.863669 125.007359,279.255102 C86.4460591,316.646535 95.7961329,316.646535 61.3293678,313.721867 C27.403223,310.841513 0.824197932,294.38361 -2.65878871e-05,293.869578 C0.983725258,294.268396 40.6085406,310.105914 64.8301064,302.040922 C89.3707267,293.860715 110.401746,262.894688 132.017699,252.38361 C153.633651,241.863669 166.484464,227.84299 195.69569,243.033536 L176.446059,197.648012 L171.172795,185.213743 L171.163932,185.196018 C171.163932,185.196018 164.729663,99.9020739 152.463784,94.0616012 C140.197905,88.2122659 147.793179,73.030582 125.007359,70.1059143 C125.007359,70.1059143 153.048718,66.5963131 158.304257,85.8813944 C163.568659,105.157613 199.790278,209.151705 199.790278,209.151705 C199.790278,209.151705 221.982301,253.544614 246.522922,243.033536 C271.063542,232.513595 237.172848,173.515072 237.172848,173.515072 L195.110809,154.229991 C195.110809,154.229991 226.66177,153.060124 245.937988,171.175338 C265.214207,189.28169 266.384074,247.704142 266.384074,247.704142 C266.384074,247.704142 314.871518,254.714482 326.561326,281.009903 C326.561326,281.009903 334.1566,257.639149 319.550987,243.61847 C315.899583,240.108869 312.062109,234.01138 308.366349,226.841513 C294.357042,199.322165 289.294078,168.113979 293.884812,137.577111 C296.056157,122.634718 297.394414,108.020242 295.010366,104.572679 C289.754827,96.9774062 267.553941,50.2447622 265.79914,37.9700207 C264.053202,25.7041418 267.553941,0.00251698671 267.553941,0.00251698671 C267.553941,0.00251698671 268.138874,31.5446145 275.149214,41.4796219 C282.159554,51.4146292 302.020706,100.487007 302.020706,100.487007 C302.020706,100.487007 302.020706,162.410198 318.38112,192.791291 C334.741533,223.172384 366.283631,257.054216 364.537648,279.255102 L364.537648,292.105914 C364.537648,292.105914 399.589347,258.809016 397.249613,247.704142 C394.909879,236.60813 391.994074,210.312709 369.793188,194.546092 C347.592301,178.770612 332.986688,153.645058 348.762168,117.423492 C357.63366,97.0483072 361.515492,86.1029601 363.217117,80.4220148 L354.017708,119.763226 C354.017708,119.763226 348.177235,160.070464 364.537648,174.091143 C364.581962,174.126594 364.617412,174.162044 364.661725,174.197495 C380.995551,188.2359 402.505152,213.82231 402.505152,213.82231 L402.443114,212.696756 L397.834547,129.698233 L398.844886,131.913891 L406.129968,147.884349 L413.025093,162.995131 C413.025093,162.995131 445.737058,120.933093 484.298357,106.912414 C522.850795,92.8917341 546.806482,43.819356 546.806482,43.819356 L579.527309,18.1088685 L552.646954,50.2447622 C552.646954,50.2447622 544.466747,88.2122659 498.319037,115.09262 C452.162464,141.964112 422.375167,181.686417 420.620366,206.227037 C418.865566,230.767657 417.110765,252.38361 417.110765,252.38361 C417.110765,252.38361 503.574576,249.458942 522.850795,211.482576 C542.135876,173.515072 557.911356,171.760272 557.911356,171.760272 L546.806482,204.472236 L534.540603,232.513595 C534.540603,232.513595 584.782848,233.683462 611.069406,263.479622 C637.364827,293.275781 702.788756,302.040922 702.788756,302.040922 L665.99112,311.967066 C665.99112,311.967066 630.930558,300.286121 597.63366,278.670168 C564.336762,257.054216 567.837536,237.777997 526.36044,259.39395 Z" id="Path" fill="#2E3542"></path>
                <path d="M544.989678,179.683462 C541.293962,196.043876 536.942411,211.845944 530.827196,223.890257 C511.550978,261.866623 425.087167,264.791291 425.087167,264.791291 C425.087167,264.791291 425.494848,259.775043 426.115232,251.860715 C448.067965,250.052739 508.076827,242.333388 523.737093,211.482576 C525.172839,208.66426 526.502233,205.633241 527.760727,202.442694 L544.989678,179.683462 Z" id="Path" fill="#000000" opacity="0.1"></path>
                <path d="M410.481563,226.229991 C410.481563,226.229991 388.86561,200.519504 372.514059,186.498824 C368.924694,183.432355 366.407752,179.089666 364.66177,174.197495 C364.519968,173.807539 364.387028,173.408721 364.254089,173.009903 C364.635182,173.382133 365.016275,173.745501 365.423956,174.091143 C379.737102,186.365885 398.091651,207.600744 402.443158,212.696756 C403.054679,213.423492 403.391459,213.82231 403.391459,213.82231 L398.844931,131.913891 L406.130012,147.884349 L410.481563,226.229991 Z" id="Path" fill="#000000" opacity="0.1"></path>
                <path d="M422.994266,152.46405 C422.866715,166.847805 420.999855,175.402706 420.999855,175.402706 C420.999855,175.402706 453.702,133.357507 492.249465,119.327477 C494.527648,117.886219 496.838942,116.467188 499.204547,115.089705 C545.3573,88.215935 553.536301,50.242192 553.536301,50.242192 L580.410009,18.1105613 L547.694127,43.8158641 C547.694127,43.8158641 523.741436,92.8896425 485.183592,106.910694 C458.900792,116.4681 435.336753,139.051321 422.994266,152.46405 Z" id="Path" fill="#000000" opacity="0.1"></path>
                <path d="M372.510275,291.660824 L372.510275,304.51348 C372.510275,304.51348 407.562993,271.213436 405.226059,260.1134 C403.439034,251.624508 401.299329,234.255075 390.466839,219.496068 C395.349616,230.649687 396.835773,241.529362 398.135956,247.705719 C399.811764,255.665486 382.261764,275.03984 372.197185,285.36569 C372.550274,287.444287 372.655373,289.55745 372.510275,291.660824 L372.510275,291.660824 Z" id="Path" fill="#000000" opacity="0.1"></path>
                <path d="M325.490313,203.459238 C325.767917,204.051341 326.05418,204.633979 326.35753,205.197465 C335.31623,221.835022 348.822523,239.520523 358.927914,255.765678 C350.760682,239.677914 336.547391,221.28125 325.490313,203.459238 Z" id="Path" fill="#000000" opacity="0.1"></path>
                <path d="M520.820411,320.732207 C501.602287,308.744668 485.175802,302.275657 471.757232,298.998204 C457.681312,304.296284 446.096287,308.246579 440.266981,310.186245 C450.721471,307.480024 481.009976,303.885093 527.910514,333.139888 C564.708594,356.093034 603.094857,355.188275 626.778372,351.25629 C633.328305,346.314473 638.817835,340.106231 642.92065,333.000594 C642.92065,333.000594 579.825811,357.537465 520.820411,320.732207 Z" id="Path" fill="#000000" opacity="0.1"></path>
                <path d="M353.972003,178.587332 C349.260913,167.044165 348.484679,153.308827 353.897025,137.21361 C353.829278,131.380591 354.16586,125.54989 354.904352,119.763412 L364.103371,80.4122659 C362.407338,86.0870694 358.526801,97.0347208 349.646428,117.426558 C338.404298,143.241864 342.599973,163.414334 353.972003,178.587332 Z" id="Path" fill="#000000" opacity="0.1"></path>
                <path d="M611.957486,263.479409 C593.725595,242.816614 563.978552,235.923253 547.453498,233.637705 L542.51587,244.923873 C542.51587,244.923873 592.758062,246.09234 619.047572,275.88709 C633.626233,292.409637 660.238467,302.461941 681.057855,308.141397 L703.678653,302.037412 C703.678653,302.037412 638.246996,293.274213 611.957486,263.479409 Z" id="Path" fill="#000000" opacity="0.1"></path>
                <path d="M254.499483,255.439702 C279.036372,244.923873 245.152174,185.918526 245.152174,185.918526 L244.225232,185.493678 C252.672753,203.316851 264.924213,235.525666 247.40938,243.032021 C231.020225,250.055965 215.675849,232.581049 207.291049,220.200115 C207.595489,221.075743 207.762638,221.555477 207.762638,221.555477 C207.762638,221.555477 229.962594,265.955521 254.499483,255.439702 Z" id="Path" fill="#000000" opacity="0.1"></path>
                <path d="M334.536532,293.413445 C334.536532,293.413445 341.9301,270.623442 328.040482,256.552502 C331.446514,268.674408 327.446428,281.005764 327.446428,281.005764 C318.407778,260.668945 287.34974,251.870685 273.745843,248.92823 C274.273462,255.699022 274.362682,260.1134 274.362682,260.1134 C274.362682,260.1134 322.852263,267.123935 334.536532,293.413445 Z" id="Path" fill="#000000" opacity="0.1"></path>
                <path d="M364.103371,80.4122659 C365.419897,76.0071846 365.420216,74.7791078 365.420216,74.7791078 L364.103371,80.4122659 Z" id="Path" fill="#000000" opacity="0.1"></path>
                <path d="M72.4552112,314.556727 C72.573031,314.518804 72.6926854,314.484133 72.8097164,314.445129 C97.3466056,306.266136 118.378254,275.302919 139.994109,264.787143 C161.609965,254.271368 174.462514,240.250254 203.673058,255.439728 C203.673058,255.439728 198.562759,234.521832 188.659764,220.779022 C191.939844,227.953426 194.590861,235.399056 196.582954,243.032047 C167.372411,227.842564 154.519755,241.863634 132.904006,252.379462 C111.288257,262.895291 90.2565022,293.858455 65.719613,302.037448 C41.1827238,310.21644 0.872144756,293.858455 0.872144756,293.858455 C0.872144756,293.858455 27.7458612,310.800603 62.2143722,313.721637 C66.157356,314.055731 69.5217341,314.3506 72.4552112,314.556727 Z" id="Path" fill="#000000" opacity="0.1"></path>
                <path d="M179.140298,197.603699 C179.140298,197.603699 178.183134,197.621424 176.446059,197.648012 L171.172795,185.213743 C171.748866,185.20488 172.050195,185.196018 172.050195,185.196018 C172.050195,185.196018 167.991111,131.399903 160.174272,106.32748 C160.271761,106.371793 160.351524,106.424969 160.440151,106.469282 C172.70603,112.309755 179.140298,197.603699 179.140298,197.603699 Z" id="Path" fill="#000000" opacity="0.1"></path>
                <path d="M316.020106,598.23265 C326.724496,565.41826 352.467669,474.677734 332.199722,414.345217 C323.446901,388.290142 315.3339,371.675583 308.475421,361.076074 C313.604428,371.109926 319.212053,384.382024 325.109619,401.937536 C350.230697,476.716626 304.66216,598.23265 304.66216,598.23265 L316.020106,598.23265 Z" id="Path" fill="#000000" opacity="0.1"></path>
                <path d="M305.326414,319.704142 C298.277078,316.604551 290.732792,314.782999 283.045764,314.324526 C279.350047,306.605176 278.765114,302.634718 283.550934,302.829696 C284.880328,303.068987 286.218585,303.352591 287.547979,303.680508 C296.942428,311.479622 305.326414,319.704142 305.326414,319.704142 Z" id="Path" fill="#000000" opacity="0.1"></path>
                <path d="M147.168514,88.3866558 C147.834912,89.5088475 148.642316,90.5410526 149.571013,91.4580709 C148.888903,90.3467089 148.082917,89.3163157 147.168514,88.3866558 L147.168514,88.3866558 Z" id="Path" fill="#000000" opacity="0.1"></path>
                <path d="M253.915276,183.581699 C254.818275,184.435619 255.664339,185.347801 256.44803,186.312381 C253.888874,180.16036 250.728532,174.840674 246.825173,171.174018 C227.546295,153.063456 195.998774,154.23187 195.998774,154.23187 L235.562535,172.365261 C242.341914,174.894371 248.572375,178.702172 253.915276,183.581699 L253.915276,183.581699 Z" id="Path" fill="#000000" opacity="0.1"></path>
                <path d="M295.898951,104.573885 C298.283167,108.017619 296.943598,122.632298 294.767105,137.579202 C290.178199,168.114922 295.242947,199.321411 309.253693,226.838446 C311.114789,230.520763 313.193447,234.089021 315.478635,237.524287 C302.126815,210.414058 297.374309,179.872318 301.857208,149.986883 C304.033702,135.040059 305.37327,120.425335 302.989055,116.981566 C297.731194,109.386824 275.531131,62.649873 273.778511,50.3814239 C273.253027,45.6218442 273.130582,40.8263781 273.412484,36.0461832 C268.874384,23.1701123 268.440993,0 268.440993,0 C268.440993,0 264.935752,25.705356 266.688372,37.9737075 C268.440993,50.2420591 290.64109,96.9791787 295.898951,104.573885 Z" id="Path" fill="#000000" opacity="0.1"></path>
                <path d="M350.706931,23.8087888 C350.472849,22.6540988 350.117358,21.5273892 349.646384,20.4474417 C349.646384,20.4474417 350.095356,21.7083013 350.706931,23.8087888 Z" id="Path" fill="#000000" opacity="0.1"></path>
                <path d="M144.360975,82.6465347 C149.509781,83.2768272 155.43234,84.8565731 159.949985,88.5202511 C159.655285,87.5235244 159.398233,86.6300118 159.193542,85.8791876 C153.935575,66.6002127 125.893445,70.1054801 125.893445,70.1054801 C138.566074,71.7301152 141.839362,77.1504195 144.360975,82.6465347 Z" id="Path" fill="#000000" opacity="0.1"></path>
                <path d="M695.286009,568.216573 C686.573158,581.578095 688.960511,598.57223 688.960511,598.57223 C688.960511,598.57223 705.474106,593.903061 714.186931,580.541539 C722.899755,567.180018 720.512428,550.185882 720.512428,550.185882 C720.512428,550.185882 703.998833,554.855052 695.286009,568.216573 Z" id="Path" fill="#3F3D56"></path>
                <path d="M701.830742,570.578925 C701.142062,586.515341 689.312118,598.947253 689.312118,598.947253 C689.312118,598.947253 678.598759,585.541143 679.287439,569.604736 C679.976118,553.668328 691.806062,541.236408 691.806062,541.236408 C691.806062,541.236408 702.51943,554.642517 701.830742,570.578925 Z" id="Path" fill="#C2CE4B"></path>
                <path d="M548.371347,469.728487 C548.371347,469.728487 558.396753,459.210922 562.499929,461.326857 C566.603105,463.442792 550.702086,472.847778 550.702086,472.847778 L548.371347,469.728487 Z" id="Path" fill="#FFB9B9"></path>
                <path d="M548.371347,469.728487 C548.371347,469.728487 558.396753,459.210922 562.499929,461.326857 C566.603105,463.442792 550.702086,472.847778 550.702086,472.847778 L548.371347,469.728487 Z" id="Path" fill="#000000" opacity="0.1"></path>
                <path d="M517.783037,446.773143 C517.783037,446.773143 514.097708,453.378798 515.062077,460.499734 C516.026446,467.620671 524.845905,490.470851 527.844195,490.064801 C530.842484,489.65875 553.052322,473.292815 553.052322,473.292815 L548.816384,467.37826 L532.591347,477.208777 C532.591347,477.208777 530.11971,442.049131 517.783037,446.773143 Z" id="Path" fill="#D0CDE1"></path>
                <path d="M577.94416,462.853781 L552.650739,476.747123 C552.353941,476.944327 551.985062,477.000003 551.643283,476.899182 C551.301504,476.79836 551.021903,476.551388 550.879657,476.224671 L544.683518,463.273232 C544.44085,462.510177 544.793295,461.684449 545.512174,461.331811 L566.512077,450.507563 C567.047683,450.185462 567.739848,450.317787 568.118871,450.814742 L578.608573,460.697052 C578.817254,461.069009 578.864301,461.510262 578.738735,461.917856 C578.613169,462.325451 578.325975,462.663736 577.94416,462.853781 Z" id="Path" fill="#2F2E41"></path>
                <polygon id="Path" fill="#C2CE4B" points="576.25613 460.94003 552.544165 474.493648 546.233973 463.121123 566.57548 452.058789"></polygon>
                <circle id="Oval" fill="#F2F2F2" transform="translate(556.132671, 456.832415) rotate(-50.158480) translate(-556.132671, -456.832415) " cx="556.132671" cy="456.832415" r="1"></circle>
                <circle id="Oval" fill="#F2F2F2" transform="translate(564.936714, 468.467681) rotate(-50.158480) translate(-564.936714, -468.467681) " cx="564.936714" cy="468.467681" r="1"></circle>
                <path d="M517.783037,446.773143 C517.783037,446.773143 514.097708,453.378798 515.062077,460.499734 C516.026446,467.620671 524.845905,490.470851 527.844195,490.064801 C530.842484,489.65875 553.052322,473.292815 553.052322,473.292815 L548.816384,467.37826 L532.591347,477.208777 C532.591347,477.208777 530.11971,442.049131 517.783037,446.773143 Z" id="Path" fill="#000000" opacity="0.1"></path>
                <path d="M541.593474,471.738195 C541.593474,471.738195 552.939696,462.661214 556.72177,465.308668 C560.503843,467.956121 543.484547,475.142065 543.484547,475.142065 L541.593474,471.738195 Z" id="Path" fill="#FFB9B9"></path>
                <circle id="Oval" fill="#FFB9B9" cx="526.465161" cy="424.462272" r="10.9680177"></circle>
                <path d="M564.2859,500.860165 C564.2859,500.860165 576.010334,502.373016 575.632121,509.558942 C575.253908,516.744869 566.555149,546.623273 566.555149,546.623273 L565.798733,558.347699 C565.798733,558.347699 566.555149,578.014493 564.285882,577.636325 C562.016614,577.258157 556.721734,563.64265 556.721734,563.64265 C556.721734,563.64265 550.292207,559.482372 553.317864,555.700298 C556.343521,551.918225 558.612771,552.296428 557.856355,548.136142 C557.099938,543.975855 557.478151,526.578319 559.747391,521.283412 C562.016632,515.988505 563.33891,513.068118 563.33891,513.068118 L555.965318,512.584644 L564.2859,500.860165 Z" id="Path" fill="#FFB9B9"></path>
                <path d="M564.2859,500.860165 C564.2859,500.860165 576.010334,502.373016 575.632121,509.558942 C575.253908,516.744869 566.555149,546.623273 566.555149,546.623273 L565.798733,558.347699 C565.798733,558.347699 566.555149,578.014493 564.285882,577.636325 C562.016614,577.258157 556.721734,563.64265 556.721734,563.64265 C556.721734,563.64265 550.292207,559.482372 553.317864,555.700298 C556.343521,551.918225 558.612771,552.296428 557.856355,548.136142 C557.099938,543.975855 557.478151,526.578319 559.747391,521.283412 C562.016632,515.988505 563.33891,513.068118 563.33891,513.068118 L555.965318,512.584644 L564.2859,500.860165 Z" id="Path" fill="#000000" opacity="0.1"></path>
                <path d="M565.042316,502.751211 C565.042316,502.751211 576.388538,505.398656 577.523158,512.962812 C578.657778,520.526969 584.330898,542.841199 584.330898,542.841199 L590.382213,556.834874 C590.382213,556.834874 599.837397,573.854207 595.67712,573.476003 C591.516842,573.097799 585.843722,564.777226 583.952685,564.777226 C582.061648,564.777226 576.388538,562.507985 576.76675,560.995152 C577.144963,559.482319 579.792452,554.943838 579.792452,554.943838 L570.642195,539.004682 C568.875404,535.927839 567.539964,532.622724 566.673377,529.182151 C565.733433,525.449052 564.664157,520.876174 564.664157,519.392331 C564.664157,516.744886 557.1,515.610257 557.1,515.610257 L565.042316,502.751211 Z" id="Path" fill="#FFB9B9"></path>
                <path d="M527.977985,478.545926 L533.272892,493.67423 C533.272892,493.67423 541.593456,495.943471 547.644771,497.834508 C553.696086,499.725545 565.042316,497.078092 566.176936,501.616582 C567.311557,506.155072 563.907696,514.097433 560.503826,515.98847 C557.099956,517.879507 555.208919,519.770544 544.240901,516.744886 C533.272883,513.719229 507.17657,512.962812 507.17657,512.962812 C504.646811,514.480657 501.797735,515.387178 498.856006,515.610257 C493.939303,515.98847 492.804682,516.366674 491.291858,515.232053 C489.779034,514.097433 492.048266,514.097433 492.804709,511.071767 C493.561152,508.0461 493.939329,509.18073 497.343199,505.776869 C500.747069,502.373007 503.394523,492.161397 505.28556,488.757527 C507.176597,485.353657 508.311261,478.545926 508.311261,478.545926 L527.977985,478.545926 Z" id="Path" fill="#2F2E41"></path>
                <path d="M527.221569,433.539244 C524.436725,435.573916 522.758822,438.789896 522.683078,442.238012 C522.683078,447.911123 511.336857,436.186697 511.336857,436.186697 C511.336857,436.186697 517.38818,428.622549 517.38818,426.3533 C517.38818,424.08405 527.221569,433.539244 527.221569,433.539244 Z" id="Path" fill="#FFB9B9"></path>
                <path d="M512.84969,431.270003 C512.84969,431.270003 519.657421,433.917448 521.170254,437.699521 C522.683087,441.481595 528.356189,449.423956 528.356189,449.423956 C528.356189,449.423956 536.298549,457.74452 533.651096,466.821501 C531.003643,475.898482 528.734402,478.167722 528.734402,479.680555 C528.734402,481.193388 524.952328,483.840833 521.926671,483.462629 C518.901013,483.084425 507.554783,481.571592 506.798366,480.058759 C506.04195,478.545926 501.503468,456.988103 504.529126,449.045761 C506.983586,442.976332 509.761078,437.042595 512.84969,431.270003 L512.84969,431.270003 Z" id="Path" fill="#D0CDE1"></path>
                <path d="M529.646313,424.961344 C532.10073,425.543858 534.509353,423.980056 536.520487,422.42961 C537.66249,421.549205 538.919353,420.293716 538.569448,418.876759 C538.259034,417.619719 536.778168,416.907208 536.562647,415.629634 C536.412869,414.741873 536.931802,413.878174 536.973873,412.97836 C536.897948,411.580373 536.048612,410.34147 534.772032,409.766597 C533.576198,409.122656 532.219941,408.854189 530.991456,408.277914 C529.115477,407.397855 527.556372,405.811516 525.552824,405.303359 C522.81569,404.609131 520.028641,406.087241 517.214588,406.278594 C515.511607,406.394393 513.786877,406.035297 512.102198,406.314665 C508.795049,406.983395 506.377492,409.832054 506.255521,413.203932 C506.233817,414.407645 506.474357,415.7506 505.756095,416.705238 C505.472226,417.034035 505.148996,417.326672 504.793684,417.576558 C502.291126,419.60034 501.15491,422.981442 501.025728,426.238777 C500.962148,427.841973 501.297962,429.746455 502.720325,430.427929 C503.482231,430.688686 504.287167,430.800518 505.0913,430.757335 C505.911641,430.722857 506.695737,431.097212 507.184706,431.756801 C507.832564,432.899734 506.861885,434.58787 507.709374,435.585288 C508.345976,436.33449 509.587675,436.085663 510.331126,435.447279 C511.074576,434.808895 511.538216,433.89078 512.242954,433.208154 C513.61387,431.880292 515.647391,431.639592 517.526464,431.437728 C518.083302,431.433447 518.62498,431.255823 519.076227,430.929536 C519.417648,430.57124 519.639697,430.11598 519.711846,429.626349 C519.959316,428.499517 519.96251,427.332746 519.721214,426.204576 C519.602,425.855314 519.586957,425.478915 519.67792,425.121253 C519.802123,424.86706 519.994071,424.652078 520.232623,424.499982 C521.39727,423.625126 523.437527,422.351326 524.951087,422.592275 C526.630697,422.859625 527.952053,424.559247 529.646313,424.961344 Z" id="Path" fill="#2F2E41"></path>
                <path d="M514.362514,444.885465 C514.362514,444.885465 509.824032,450.936789 509.824032,458.122688 C509.824032,465.308588 515.497143,489.135687 518.522801,489.135687 C521.548458,489.135687 545.753734,475.898464 545.753734,475.898464 L542.349873,469.468936 L524.952328,477.033084 C524.952328,477.033084 527.221569,441.859808 514.362514,444.885465 Z" id="Path" fill="#D0CDE1"></path>
                <rect id="Rectangle" fill="#C2CE4B" x="478.861835" y="513.151427" width="86.8537666" height="16.8389956"></rect>
                <path d="M522.288895,530.876526 C518.374994,530.872052 515.203265,527.700324 515.198792,523.786422 L515.198792,324.377264 C515.198792,321.640861 516.773531,319.148732 519.244897,317.973891 C521.716263,316.79905 524.6431,317.151232 526.765223,318.878801 L525.64527,320.253199 C524.05373,318.957655 521.858716,318.693637 520.005356,319.574824 C518.151996,320.456011 516.97117,322.325086 516.971318,324.377264 L516.971318,523.786422 C516.974522,526.721911 519.353406,529.100796 522.288895,529.104 L522.288895,530.876526 Z" id="Path" fill="#3F3D56"></path>
                <rect id="Rectangle" x="43.7068981" y="597.346254" width="714.327917" height="1.77252585"></rect>
                <ellipse id="Oval" fill="#C2CE4B" transform="translate(507.222246, 417.435091) rotate(-38.768250) translate(-507.222246, -417.435091) " cx="507.222246" cy="417.435091" rx="1" ry="2.65878877"></ellipse>
                <path d="M432.952183,568.216573 C424.239332,581.578095 426.626685,598.57223 426.626685,598.57223 C426.626685,598.57223 443.140281,593.903061 451.853105,580.541539 C460.565929,567.180018 458.178603,550.185882 458.178603,550.185882 C458.178603,550.185882 441.665007,554.855052 432.952183,568.216573 Z" id="Path" fill="#3F3D56"></path>
                <path d="M439.496916,570.578925 C438.808236,586.515341 426.978292,598.947253 426.978292,598.947253 C426.978292,598.947253 416.264934,585.541143 416.953613,569.604736 C417.642292,553.668328 429.472236,541.236408 429.472236,541.236408 C429.472236,541.236408 440.185604,554.642517 439.496916,570.578925 Z" id="Path" fill="#C2CE4B"></path>
                <path d="M289.5646,573.270975 C293.730035,588.668792 307.997433,598.205096 307.997433,598.205096 C307.997433,598.205096 315.511427,582.776552 311.346027,567.378727 C307.180626,551.980901 292.913185,542.444606 292.913185,542.444606 C292.913185,542.444606 285.399199,557.873123 289.5646,573.270975 Z" id="Path" fill="#3F3D56"></path>
                <path d="M295.685362,569.961811 C307.115282,581.088381 308.511359,598.192502 308.511359,598.192502 C308.511359,598.192502 291.375882,597.256892 279.945962,586.130331 C268.516041,575.00377 267.119965,557.89964 267.119965,557.89964 C267.119965,557.89964 284.255442,558.83525 295.685362,569.961811 Z" id="Path" fill="#C2CE4B"></path>
                <path d="M257.801628,152.478532 C256.807968,168.398836 244.742189,180.601994 244.742189,180.601994 C244.742189,180.601994 234.287451,166.993232 235.281111,151.072928 C236.274771,135.152623 248.340541,122.949465 248.340541,122.949465 C248.340541,122.949465 258.795288,136.558227 257.801628,152.478532 Z" id="Path" fill="#C2CE4B"></path>
                <path d="M132.026561,51.8331492 C145.520003,60.3402452 150.441625,76.7803693 150.441625,76.7803693 C150.441625,76.7803693 133.48605,79.4277696 119.992617,70.9206736 C106.499185,62.4135775 101.577563,45.9734535 101.577563,45.9734535 C101.577563,45.9734535 118.533146,43.3260532 132.026561,51.8331492 Z" id="Path" fill="#C2CE4B"></path>
                <path d="M101.893622,245.92473 C115.387064,254.431826 120.308685,270.87195 120.308685,270.87195 C120.308685,270.87195 103.353111,273.51935 89.859678,265.012254 C76.3662452,256.505158 71.4446233,240.065034 71.4446233,240.065034 C71.4446233,240.065034 88.4002068,237.417634 101.893622,245.92473 Z" id="Path" fill="#C2CE4B"></path>
                <path d="M376.209483,80.2077784 C372.140233,95.631288 357.932579,105.256387 357.932579,105.256387 C357.932579,105.256387 350.32247,89.8750192 354.391719,74.4515096 C358.460969,59.028 372.668623,49.402901 372.668623,49.402901 C372.668623,49.402901 380.278724,64.7842688 376.209483,80.2077784 Z" id="Path" fill="#C2CE4B"></path>
                <path d="M504.571808,92.2338612 C499.789046,107.451244 485.148762,116.404564 485.148762,116.404564 C485.148762,116.404564 478.262871,100.685645 483.04566,85.4682629 C487.828449,70.2508804 502.468706,61.2975598 502.468706,61.2975598 C502.468706,61.2975598 509.35457,77.0164786 504.571808,92.2338612 Z" id="Path" fill="#C2CE4B"></path>
                <path d="M643.311306,261.596198 C634.64766,274.989651 618.151329,279.719486 618.151329,279.719486 C618.151329,279.719486 615.701566,262.734257 624.36522,249.340786 C633.028874,235.947315 649.525232,231.217498 649.525232,231.217498 C649.525232,231.217498 651.97496,248.202744 643.311306,261.596198 Z" id="Path" fill="#C2CE4B"></path>
            </g>
        </g>
    </g>
</svg>