<?xml version="1.0" standalone="no"?>
<!DOCTYPE svg PUBLIC "-//W3C//DTD SVG 20010904//EN"
 "http://www.w3.org/TR/2001/REC-SVG-20010904/DTD/svg10.dtd">
<svg version="1.0" xmlns="http://www.w3.org/2000/svg"
 width="825.000000pt" height="825.000000pt" viewBox="0 0 825.000000 825.000000"
 preserveAspectRatio="xMidYMid meet">
<metadata>
Created by potrace 1.11, written by Peter Selinger 2001-2013
</metadata>
<g transform="translate(0.000000,825.000000) scale(0.100000,-0.100000)"
fill="#000000" stroke="none">
<path d="M4057 7124 c-1 -1 -48 -5 -105 -8 -86 -5 -298 -33 -377 -50 -202 -43
-431 -110 -530 -156 -11 -5 -49 -21 -85 -35 -100 -41 -304 -150 -415 -223 -88
-58 -200 -137 -215 -152 -3 -3 -27 -23 -55 -45 -129 -101 -321 -295 -424 -427
-29 -38 -58 -68 -64 -69 -7 0 -21 -2 -32 -4 -11 -2 -42 -7 -70 -10 -27 -3 -57
-8 -65 -10 -8 -2 -28 -7 -45 -9 -283 -49 -662 -236 -894 -441 -243 -216 -411
-448 -529 -730 -42 -102 -98 -281 -108 -345 -3 -19 -9 -53 -14 -75 -36 -171
-31 -422 11 -595 6 -25 13 -56 15 -70 12 -60 79 -243 124 -335 177 -360 464
-646 825 -820 141 -68 297 -120 450 -151 42 -8 182 -24 243 -28 37 -2 69 -9
76 -17 7 -8 47 -57 89 -109 204 -256 490 -498 788 -667 330 -187 715 -318
1084 -368 22 -3 54 -7 70 -10 113 -17 300 -20 1090 -20 l890 0 130 27 c396 83
702 256 960 545 132 148 267 359 343 541 13 28 28 52 35 53 7 0 102 1 212 3
220 2 284 13 396 67 121 59 234 167 296 284 51 97 86 258 86 395 0 268 -148
510 -383 630 -147 75 -280 99 -557 100 l-62 0 -34 73 c-148 319 -427 605 -757
776 -233 121 -451 188 -740 227 -30 5 -557 8 -1170 8 -1236 1 -1153 5 -1306
-64 -260 -117 -444 -385 -447 -650 0 -52 2 -108 5 -125 3 -16 9 -48 13 -70 11
-64 90 -218 146 -285 137 -165 341 -267 569 -284 41 -3 826 -8 1745 -12 918
-3 1672 -7 1676 -9 32 -20 45 -441 18 -580 l-14 -70 -670 2 c-369 1 -1239 4
-1935 7 -696 3 -1510 5 -1810 6 l-545 0 -48 85 c-26 47 -47 87 -47 89 0 2 -19
44 -41 93 -105 224 -192 570 -226 898 -10 95 -10 455 0 533 42 337 170 721
341 1020 l56 98 658 -2 c3782 -14 4023 -13 4107 6 112 25 152 38 210 67 199
101 324 254 391 480 35 120 38 290 5 406 -73 265 -267 458 -555 552 -157 51
-198 53 -921 55 -363 1 -929 2 -1258 3 -329 2 -599 2 -600 1z m1583 -408 c911
-4 948 -5 1023 -25 269 -70 396 -267 317 -492 -45 -127 -107 -184 -245 -225
-70 -20 27 -20 -1890 -10 -731 4 -1590 9 -1908 10 -317 2 -580 5 -582 8 -11
11 177 175 310 270 225 161 440 265 760 368 36 11 189 47 237 55 18 3 40 8 48
10 8 2 42 7 75 11 33 3 69 8 80 10 11 2 72 7 135 10 63 4 116 7 117 8 1 1 131
0 290 -1 158 -1 713 -4 1233 -7z m-4176 -1337 c-25 -57 -50 -113 -54 -124 -55
-126 -137 -428 -169 -620 -6 -33 -13 -73 -16 -90 -25 -146 -25 -611 0 -745 1
-8 6 -42 10 -75 11 -89 12 -93 30 -185 9 -47 19 -96 21 -110 25 -131 122 -430
183 -563 17 -38 31 -72 31 -77 0 -13 -108 17 -248 70 -65 24 -218 113 -292
168 -82 62 -198 174 -245 237 -17 22 -36 46 -43 53 -23 25 -110 179 -143 253
-61 141 -114 365 -110 474 1 49 12 173 17 200 2 11 7 40 10 65 3 25 8 48 11
53 2 4 7 20 9 35 11 58 59 182 115 297 145 297 390 543 690 693 92 46 230 103
236 98 2 -1 -18 -49 -43 -107z m3601 -913 c330 -3 609 -7 620 -9 11 -3 40 -8
65 -12 323 -50 639 -211 854 -433 57 -59 165 -200 166 -215 0 -12 -3217 6
-3273 18 -83 17 -144 50 -203 109 -84 84 -116 180 -92 281 31 135 164 251 308
268 26 3 513 1 1555 -7z m2525 -1106 c199 -59 279 -208 229 -425 -27 -115 -90
-183 -189 -203 -14 -3 -79 -6 -145 -6 -114 -1 -120 0 -118 19 0 11 5 52 10 90
16 133 8 458 -13 527 -3 10 2 18 13 20 39 7 151 -4 213 -22z m-2880 -1034
c520 -3 1200 -5 1513 -5 366 -1 567 -5 567 -11 0 -15 -78 -142 -134 -217 -50
-68 -202 -226 -242 -254 -12 -7 -48 -32 -80 -55 -99 -69 -274 -155 -344 -169
-8 -2 -42 -10 -75 -18 -71 -19 -101 -24 -180 -34 -70 -9 -1626 -7 -1730 2
-504 43 -911 179 -1290 431 -130 87 -304 230 -383 316 l-22 25 727 -4 c401 -1
1153 -5 1673 -7z"/>
</g>
</svg>
